<svg width="31" height="20" viewBox="0 0 31 20" fill="none" xmlns="http://www.w3.org/2000/svg">
<path d="M20 14C21.1 14 21.99 13.1 21.99 12L22 2C22 0.9 21.1 0 20 0H4C2.9 0 2 0.9 2 2V12C2 13.1 2.9 14 4 14H0V16H24V14H20ZM4 2H20V12H4V2Z" fill="#1F1F1F"/>
<path d="M28.7222 3.98056L29.5 3.15833C28.1389 1.71944 26.3889 1 24.6389 1C22.8889 1 21.1389 1.71944 19.7778 3.15833L20.5556 3.98056C21.7222 2.85 23.1806 2.23333 24.6389 2.23333C26.0972 2.23333 27.5556 2.85 28.7222 3.98056ZM27.8472 4.80278C26.9722 3.87778 25.8056 3.36389 24.6389 3.36389C23.4722 3.36389 22.3056 3.87778 21.4306 4.80278L22.2083 5.625C22.8889 4.90556 23.7639 4.59722 24.6389 4.59722C25.5139 4.59722 26.3889 4.90556 27.0694 5.625L27.8472 4.80278ZM27.5556 11.2778H25.6111V7.16667H23.6667V11.2778H13.9444C12.875 11.2778 12 12.2028 12 13.3333V17.4444C12 18.575 12.875 19.5 13.9444 19.5H27.5556C28.625 19.5 29.5 18.575 29.5 17.4444V13.3333C29.5 12.2028 28.625 11.2778 27.5556 11.2778ZM16.8611 16.4167C19.7222 17.3333 14.9167 16.4167 14.9167 16.4167V14.3611H16.8611C16.8611 14.3611 14 15.5 16.8611 16.4167ZM20.2639 16.4167C25 19 18.3194 16.4167 18.3194 16.4167V14.3611H20.2639C20.2639 14.3611 15.5278 13.8333 20.2639 16.4167ZM23.6667 16.4167C26.5 17.5 21.7222 16.4167 21.7222 16.4167V14.3611H23.6667C23.6667 14.3611 20.8333 15.3333 23.6667 16.4167Z" fill="white"/>
<path d="M30.2 4.9L31 4.1C29.6 2.7 27.8 2 26 2C24.2 2 22.4 2.7 21 4.1L21.8 4.9C23 3.8 24.5 3.2 26 3.2C27.5 3.2 29 3.8 30.2 4.9ZM29.3 5.7C28.4 4.8 27.2 4.3 26 4.3C24.8 4.3 23.6 4.8 22.7 5.7L23.5 6.5C24.2 5.8 25.1 5.5 26 5.5C26.9 5.5 27.8 5.8 28.5 6.5L29.3 5.7ZM29 12H27V8H25V12H15C13.9 12 13 12.9 13 14V18C13 19.1 13.9 20 15 20H29C30.1 20 31 19.1 31 18V14C31 12.9 30.1 12 29 12ZM18 17H16V15H18V17ZM21.5 17H19.5V15H21.5V17ZM25 17H23V15H25V17Z" fill="#6d28d9"/>
</svg>
