<svg width="174" height="291" viewBox="0 0 174 291" fill="none" xmlns="http://www.w3.org/2000/svg">
<path d="M11.8596 290.641H78.8437C78.9665 290.035 79.0805 289.439 79.1945 288.825C80.1009 284.317 81.013 279.738 81.9311 275.09C82.0802 274.37 82.2118 273.66 82.3609 272.949C82.7819 270.809 83.238 268.669 83.6414 266.512C83.773 265.792 83.9221 265.091 84.0624 264.371C84.1502 263.915 84.2379 263.494 84.3343 263.012C84.4308 262.529 84.4834 262.275 84.5448 261.916C84.9571 259.863 85.3605 257.811 85.7728 255.776C85.7728 255.776 85.7728 255.776 85.7728 255.723C85.8517 255.346 85.9307 254.96 85.9921 254.583C86.2903 253.118 86.5797 251.653 86.8691 250.197C87.0621 249.198 87.2639 248.206 87.4568 247.215C88.5883 241.523 89.7022 235.91 90.7986 230.445C90.9301 229.752 91.0705 229.077 91.202 228.393C91.6757 225.99 92.1493 223.604 92.6142 221.271C92.6843 220.973 92.7457 220.674 92.7896 220.394C93.0527 219.087 93.3071 217.762 93.5702 216.499C93.7018 215.833 93.8421 215.157 93.9649 214.5C94.1403 213.622 94.3157 212.745 94.4911 211.868C94.842 210.114 95.1753 208.421 95.5174 206.746L97.6838 195.87C97.7627 195.51 97.8329 195.16 97.9031 194.809C97.9996 194.309 98.096 193.8 98.1925 193.309C98.289 192.818 98.4381 192.116 98.5521 191.555C99.0433 189.072 99.5082 186.722 99.9467 184.538C100.069 183.906 100.201 183.292 100.315 182.696L101.192 178.451C101.268 178.094 101.338 177.743 101.403 177.398C101.64 176.205 101.859 175.091 102.069 174.074C102.139 173.679 102.218 173.293 102.297 172.925C103.095 168.908 103.587 166.426 103.692 165.908C103.694 165.876 103.694 165.844 103.692 165.812H41.8915V165.917L41.5845 167.154C41.488 167.54 41.3652 168.031 41.2337 168.557C38.6989 178.828 29.577 215.815 20.4376 254.276C17.4818 266.485 14.5611 278.896 11.8596 290.641Z" fill="#D3766A"/>
<path d="M11.8596 290.64H81.3259L103.683 165.706H41.9003L11.8596 290.64Z" fill="#263238"/>
<path opacity="0.1" d="M41.8915 165.706L73.3531 290.64H81.326L103.683 165.706H41.8915Z" fill="black"/>
<path d="M41.8391 165.592V165.768C42.2338 168.443 45.479 192.677 53.5484 215.192C54.0659 216.631 54.5833 218.025 55.1271 219.385C57.2662 220.028 59.3611 220.811 61.3984 221.727L62.8632 222.376C65.4155 223.525 68.5643 225.069 72.2744 227.112V227.796C72.2744 227.981 72.2744 228.209 72.2744 228.463C72.3709 230.436 76.046 280.519 76.5459 290.579H139.767C138.785 281.08 137.811 271.739 136.855 262.951C135.54 250.671 134.285 239.549 133.207 230.498C133.207 230.498 144.118 204.623 123.69 165.592H41.8391Z" fill="#D3766A"/>
<path d="M75.0809 290.649L145.328 290.588L134.557 230.533C134.557 230.533 139.021 217.455 138.478 209.833C137.899 201.668 134.268 180.749 125.225 165.592H41.8388C41.8388 165.592 41.4354 193.072 51.6536 219.306L64.4154 224.384L75.0809 290.649Z" fill="#263238"/>
<path d="M120.471 199.519C114.726 198.949 108.814 199.019 103.482 196.466C98.1488 193.914 94.6229 188.783 91.86 183.652C90.1639 180.478 88.8816 177.1 88.0446 173.6C88.033 173.568 88.0104 173.54 87.9807 173.522C87.951 173.505 87.916 173.498 87.8818 173.503C87.8476 173.508 87.8162 173.525 87.7931 173.551C87.77 173.577 87.7566 173.61 87.7552 173.644C87.9761 176.918 88.7718 180.128 90.1058 183.126C91.3003 186.092 92.8306 188.911 94.6667 191.528C96.3702 194.04 98.615 196.138 101.236 197.668C103.902 199.114 106.831 200.008 109.849 200.299C113.387 200.665 116.955 200.644 120.489 200.238C120.584 200.236 120.674 200.195 120.74 200.126C120.806 200.057 120.842 199.965 120.839 199.87C120.837 199.774 120.797 199.684 120.728 199.618C120.659 199.552 120.566 199.516 120.471 199.519Z" fill="#37474F"/>
<path d="M37.3657 196.203C38.0411 195.651 41.2513 195.168 44.3825 189.055C45.5692 186.638 46.453 184.084 47.0138 181.45C47.3734 179.88 48.5487 172.232 48.6364 172.188C48.7241 172.144 48.7154 172.188 48.7329 172.293C48.847 172.82 48.119 179.828 47.8032 181.617C47.3776 184.666 46.4655 187.628 45.1017 190.388C42.0933 195.703 38.0235 197.072 37.3306 196.712C37.2166 196.651 37.2692 196.282 37.3657 196.203Z" fill="#37474F"/>
<path d="M52.8641 218.841C60.6553 221.677 68.1857 225.184 75.3705 229.322C75.4321 229.35 75.4801 229.402 75.504 229.465C75.5278 229.528 75.5255 229.598 75.4976 229.66C75.4697 229.722 75.4184 229.77 75.3551 229.794C75.2918 229.818 75.2216 229.815 75.1599 229.787C67.5818 226.568 59.8458 223.411 52.4782 219.745C52.3815 219.68 52.3105 219.583 52.2774 219.471C52.2443 219.36 52.2513 219.24 52.297 219.133C52.3427 219.026 52.4244 218.938 52.5279 218.885C52.6315 218.832 52.7504 218.816 52.8641 218.841Z" fill="#37474F"/>
<path d="M50.4521 166.812C50.4521 166.549 50.9345 166.496 50.9345 166.812C50.9321 175.271 51.3566 183.726 52.2063 192.142C52.5572 196.045 55.7147 217.631 62.4684 216.061C63.5999 215.798 64.1787 214.684 64.3629 212.973C64.5734 210.912 63.8016 208.395 63.4858 206.351C62.7315 201.834 62.1351 197.3 61.7316 192.739C60.9477 184.241 61.0418 175.685 62.0123 167.206C62.0123 167.148 62.0354 167.092 62.0765 167.051C62.1176 167.01 62.1734 166.987 62.2316 166.987C62.2897 166.987 62.3455 167.01 62.3866 167.051C62.4277 167.092 62.4508 167.148 62.4508 167.206C62.4508 178.995 62.7491 190.765 64.512 202.448C65.3891 208.062 68.1871 216.482 62.3105 217.359C56.4339 218.236 52.4782 204.088 51.7151 200.255C49.6803 189.415 49.6013 177.749 50.4521 166.812Z" fill="#37474F"/>
<path d="M62.2929 216.605C62.8915 218.063 63.3983 219.557 63.8103 221.078C64.2492 222.252 64.4634 223.499 64.4418 224.753C64.4312 224.802 64.4068 224.847 64.3715 224.882C64.3363 224.918 64.2917 224.942 64.2429 224.953C64.1941 224.964 64.1432 224.961 64.0961 224.944C64.049 224.928 64.0076 224.898 63.977 224.858C63.2721 223.753 62.7426 222.546 62.407 221.28C61.8895 219.894 61.3457 218.517 60.8633 217.122C60.814 216.938 60.8358 216.741 60.9242 216.572C61.0126 216.403 61.1612 216.273 61.3408 216.208C61.5204 216.143 61.7178 216.147 61.8941 216.221C62.0704 216.294 62.2127 216.431 62.2929 216.605Z" fill="#37474F"/>
<path d="M75.2828 1.15386C75.2828 1.15386 89.597 -4.59114 102.104 9.56524C117.015 26.3968 105.744 76.8037 106.253 81.4874C106.762 86.1711 108.604 87.4867 108.797 91.653C108.99 95.8192 105.288 98.0821 104.709 99.4855C104.131 100.889 107.341 108.844 107.341 108.844C107.341 108.844 84.2029 112.116 70.4324 107.704C56.662 103.292 41.953 91.7582 41.953 91.7582C41.953 91.7582 45.6807 87.6183 45.935 85.4782C46.1894 83.3381 44.023 80.2156 44.672 76.3301C45.3211 72.4445 51.7765 68.4361 52.6185 66.41C53.4606 64.3839 54.9604 25.3969 59.9248 12.3018C64.8891 -0.793292 75.2828 1.15386 75.2828 1.15386Z" fill="#263238"/>
<path d="M41.3477 90.5655C42.7757 89.2817 44.0185 87.8057 45.0403 86.18C45.3083 85.7437 45.4566 85.2445 45.4701 84.7327C45.1456 81.5313 42.7423 78.4527 43.6633 75.1724C44.6544 72.6902 47.3997 70.8833 49.3118 69.0941C50.3907 68.0679 51.6537 67.0153 52.0922 65.4716C52.1823 64.9753 52.2467 64.4747 52.2852 63.9718C53.6447 47.8595 54.3639 31.5191 58.8722 15.8629C59.9949 12.2493 61.3632 8.60051 63.8278 5.66223C61.1439 8.43387 59.6177 12.1001 58.3021 15.6787C53.1623 31.1946 52.3027 47.6928 51.1713 63.9192C51.1274 64.3753 51.0923 64.884 51.0222 65.2699C50.6625 66.5154 49.5486 67.4451 48.6189 68.3748C46.6016 70.3571 43.8826 72.199 42.9002 74.9794C41.9792 78.4878 44.4965 81.505 45.0842 84.7854C45.0855 85.2366 44.9707 85.6806 44.7509 86.0747C43.8158 87.7313 42.672 89.2612 41.3477 90.6268V90.5655Z" fill="#263238"/>
<path d="M108.612 106.958C107.937 104.88 106.92 102.24 106.393 100.161V100.082C106.588 99.7971 106.815 99.5352 107.069 99.3013C109.112 97.3103 110.928 94.7755 110.972 91.7933C111.156 88.2849 109.13 85.1362 108.341 81.9611C107.762 79.7683 108.156 77.637 108.472 75.4442C111.244 56.6918 115.27 24.8356 102.473 9.4074C101.005 7.67472 99.2479 6.20885 97.2803 5.07452C99.1636 6.30865 100.834 7.84007 102.227 9.60913C114.147 25.3969 109.884 56.5515 107.49 75.2951C107.156 77.5492 106.797 79.97 107.49 82.1979C108.367 85.5484 110.402 88.3376 110.34 91.7846C110.245 93.99 109.4 96.0971 107.946 97.7576C107.428 98.4242 106.823 99.0119 106.288 99.6872C106.197 99.795 106.136 99.9253 106.113 100.064C106.846 102.409 107.71 104.711 108.7 106.958H108.612Z" fill="#263238"/>
<path d="M57.118 77.3738C43.9615 89.2234 -3.69127 137.534 0.308302 153.506C4.0272 168.355 17.8503 170.846 26.937 162.795C40.0935 151.129 60.8282 105.678 66.0557 91.7495C71.0288 78.4351 70.0728 65.7347 57.118 77.3738Z" fill="#D3766A"/>
<path d="M53.0658 126.491L12.842 112.063C12.842 112.063 47.4261 80.2419 60.2054 73.7514C74.6249 66.4452 75.2038 75.4179 70.5464 90.0567C65.889 104.695 53.0658 126.491 53.0658 126.491Z" fill="#455A64"/>
<path d="M21.0604 106.95C22.5339 107.239 35.094 111.537 37.8569 112.528C40.6197 113.519 51.7326 117.475 54.4604 118.738C54.4871 118.746 54.5095 118.764 54.5227 118.789C54.5358 118.814 54.5387 118.843 54.5305 118.869C54.5224 118.896 54.5039 118.919 54.4793 118.932C54.4546 118.945 54.4257 118.948 54.399 118.94C51.4958 118.22 40.2338 114.265 37.4446 113.309C34.6554 112.352 22.2708 107.818 20.9815 107.169C20.9025 107.072 20.9639 106.932 21.0604 106.95Z" fill="#263238"/>
<path opacity="0.1" d="M70.5727 90.0567C65.924 104.704 53.0745 126.491 53.0745 126.491L26.7615 117.054L70.6165 71.5938C74.4056 73.3655 73.6074 80.5051 70.5727 90.0567Z" fill="black"/>
<path d="M127.724 167.382L37.1376 167.11L45.8121 133.596C45.8121 133.596 38.2603 124.141 40.7512 114.633C44.2596 101.292 64.0733 75.3214 65.7661 73.8829C72.5636 68.1029 83.387 67.8046 88.1935 72.7603C116.901 102.319 127.724 167.382 127.724 167.382Z" fill="#455A64"/>
<path d="M72.2743 125.825C68.0349 126.232 63.831 126.951 59.6967 127.974C57.6531 128.509 55.6445 129.131 53.6447 129.807C52.6448 130.14 51.6362 130.447 50.6275 130.745C49.5781 131.084 48.4912 131.293 47.391 131.368C47.3701 131.368 47.35 131.376 47.3352 131.391C47.3204 131.406 47.3121 131.426 47.3121 131.447C47.3121 131.468 47.3204 131.488 47.3352 131.503C47.35 131.518 47.3701 131.526 47.391 131.526C48.4325 131.565 49.4754 131.539 50.5135 131.447C51.5164 131.32 52.5097 131.127 53.4869 130.868C55.5656 130.342 57.618 129.719 59.6967 129.175C63.8805 128.079 68.0643 126.974 72.327 126.176C72.5199 126.141 72.4673 125.807 72.2743 125.825Z" fill="#263238"/>
<path d="M82.7644 129.526C79.2672 129.179 75.7532 129.03 72.2392 129.079C70.485 129.079 68.7308 129.245 66.9766 129.421C66.1433 129.509 65.3101 129.605 64.4768 129.719C63.6436 129.833 62.67 130.087 61.7491 130.193C61.7372 130.189 61.7244 130.187 61.712 130.189C61.6995 130.191 61.6876 130.196 61.6774 130.203C61.6671 130.21 61.6587 130.22 61.653 130.231C61.6472 130.242 61.6442 130.255 61.6442 130.267C61.6442 130.28 61.6472 130.292 61.653 130.303C61.6587 130.315 61.6671 130.324 61.6774 130.332C61.6876 130.339 61.6995 130.344 61.712 130.345C61.7244 130.347 61.7372 130.346 61.7491 130.342C62.6262 130.272 63.5033 130.342 64.3804 130.342L67.0117 130.263C68.7659 130.21 70.5201 130.175 72.2743 130.105C75.7827 129.965 79.2911 129.859 82.7994 129.842C82.9661 129.807 82.9485 129.544 82.7644 129.526Z" fill="#263238"/>
<path d="M86.7902 84.645C91.7283 101.669 110.595 163.303 125.383 166.505C140.346 169.75 151.432 164.163 151.169 152.05C150.897 138.894 113.901 93.6264 103.613 82.8469C93.7982 72.5848 81.9486 67.9274 86.7902 84.645Z" fill="#D3766A"/>
<path d="M96.9033 127.193L138.478 117.282C138.478 117.282 107.613 81.8471 95.5964 73.9532C82.0715 65.1032 80.5015 73.9532 83.5188 89.0217C86.536 104.09 96.9033 127.193 96.9033 127.193Z" fill="#455A64"/>
<path d="M130.847 110.993C129.356 111.107 116.348 113.993 113.533 114.686C110.717 115.379 99.2012 118.071 96.3506 119.027C96.3283 119.037 96.31 119.054 96.2989 119.076C96.2879 119.098 96.2846 119.122 96.2898 119.146C96.295 119.17 96.3082 119.191 96.3273 119.206C96.3464 119.221 96.3701 119.229 96.3945 119.229C99.3503 118.834 110.981 116.142 113.866 115.501C116.752 114.861 129.549 111.721 130.908 111.177C131.022 111.133 130.943 110.984 130.847 110.993Z" fill="#263238"/>
<path d="M100.64 126.298C99.3679 126.693 98.0873 127.044 96.8068 127.421L96.7366 127.272C93.3284 120.367 90.4263 113.223 88.0533 105.897C87.2639 103.459 86.5535 100.985 85.9746 98.4856C88.2989 104.924 91.6845 113.633 94.2281 119.983L97.0787 127.114L96.8594 127C98.1224 126.763 99.3767 126.509 100.64 126.298Z" fill="#263238"/>
<path d="M84.9309 101.669C86.4233 103.397 87.7451 105.265 88.8779 107.248C87.0317 105.827 85.6563 103.883 84.9309 101.669Z" fill="#263238"/>
<path d="M163.773 225.358L108.121 235.26C93.0792 237.944 93.3511 225.481 94.7106 212.21C96.0701 198.94 98.0085 178.88 111.454 176.46L125.9 173.89L140.355 171.311C153.801 168.917 162.545 187.099 168.422 199.089C174.299 211.079 178.781 222.683 163.773 225.358Z" fill="#A78BFA"/>
<path d="M109.99 177.346C110.015 177.498 109.98 177.654 109.891 177.78C109.803 177.907 109.668 177.993 109.516 178.021C109.372 178.031 109.229 177.988 109.114 177.899C109 177.811 108.923 177.683 108.897 177.541C108.87 177.398 108.898 177.252 108.973 177.128C109.049 177.005 109.167 176.914 109.306 176.872C109.459 176.846 109.616 176.881 109.744 176.97C109.872 177.058 109.96 177.193 109.99 177.346ZM118.761 175.188C118.646 175.207 118.539 175.26 118.454 175.34C118.37 175.421 118.311 175.524 118.285 175.638C118.259 175.752 118.268 175.87 118.31 175.979C118.352 176.088 118.425 176.182 118.521 176.249C118.616 176.316 118.729 176.353 118.846 176.355C118.962 176.357 119.077 176.325 119.175 176.262C119.273 176.199 119.351 176.109 119.397 176.002C119.443 175.895 119.457 175.776 119.436 175.662C119.412 175.515 119.332 175.383 119.212 175.294C119.093 175.206 118.943 175.168 118.796 175.188H118.761ZM128.251 173.495C128.168 173.499 128.087 173.521 128.013 173.559C127.939 173.597 127.873 173.651 127.822 173.716C127.77 173.781 127.732 173.856 127.712 173.937C127.691 174.018 127.688 174.102 127.702 174.184C127.717 174.266 127.748 174.344 127.795 174.412C127.842 174.481 127.903 174.539 127.974 174.583C128.045 174.626 128.124 174.654 128.207 174.665C128.289 174.676 128.373 174.668 128.453 174.644C128.59 174.602 128.707 174.512 128.782 174.39C128.857 174.267 128.885 174.122 128.86 173.98C128.835 173.839 128.76 173.712 128.647 173.622C128.535 173.533 128.394 173.488 128.251 173.495ZM137.732 171.811C137.617 171.831 137.51 171.884 137.426 171.965C137.341 172.046 137.282 172.15 137.257 172.264C137.232 172.378 137.242 172.497 137.285 172.606C137.327 172.715 137.402 172.808 137.498 172.874C137.594 172.941 137.708 172.977 137.825 172.978C137.942 172.979 138.057 172.946 138.154 172.881C138.252 172.817 138.328 172.725 138.373 172.617C138.418 172.51 138.43 172.391 138.408 172.276C138.382 172.131 138.301 172.001 138.181 171.914C138.062 171.828 137.914 171.791 137.767 171.811H137.732ZM101.955 190.757C101.804 190.784 101.669 190.871 101.58 190.997C101.492 191.123 101.456 191.28 101.482 191.432C101.512 191.584 101.6 191.719 101.728 191.808C101.855 191.896 102.013 191.931 102.166 191.906C102.318 191.878 102.453 191.791 102.541 191.665C102.63 191.539 102.665 191.382 102.64 191.23C102.61 191.085 102.527 190.955 102.407 190.868C102.287 190.78 102.138 190.74 101.991 190.757H101.955ZM111.446 189.064C111.293 189.094 111.158 189.182 111.07 189.31C110.981 189.437 110.946 189.595 110.972 189.748C110.985 189.823 111.012 189.895 111.053 189.96C111.094 190.025 111.148 190.08 111.211 190.124C111.274 190.167 111.345 190.197 111.42 190.212C111.495 190.228 111.572 190.228 111.647 190.213C111.723 190.2 111.795 190.172 111.86 190.131C111.925 190.09 111.981 190.037 112.026 189.974C112.07 189.911 112.101 189.84 112.117 189.765C112.134 189.69 112.135 189.613 112.121 189.537C112.093 189.392 112.012 189.263 111.893 189.176C111.775 189.088 111.627 189.048 111.481 189.064H111.446ZM120.927 187.38C120.852 187.392 120.779 187.42 120.715 187.461C120.65 187.502 120.595 187.556 120.551 187.619C120.508 187.682 120.478 187.753 120.462 187.828C120.447 187.903 120.447 187.98 120.462 188.055C120.482 188.17 120.535 188.277 120.616 188.362C120.697 188.446 120.801 188.505 120.915 188.53C121.029 188.555 121.148 188.546 121.257 188.503C121.366 188.46 121.459 188.386 121.526 188.289C121.592 188.193 121.628 188.079 121.629 187.962C121.63 187.845 121.597 187.731 121.532 187.633C121.468 187.535 121.376 187.459 121.268 187.414C121.161 187.369 121.042 187.357 120.927 187.38ZM130.417 185.687C130.265 185.717 130.13 185.805 130.041 185.933C129.953 186.06 129.918 186.218 129.944 186.371C129.985 186.51 130.076 186.628 130.2 186.703C130.323 186.779 130.47 186.806 130.612 186.78C130.755 186.754 130.882 186.676 130.971 186.562C131.059 186.448 131.103 186.305 131.093 186.16C131.065 186.016 130.984 185.886 130.865 185.799C130.746 185.711 130.599 185.671 130.452 185.687H130.417ZM139.907 184.003C139.831 184.014 139.758 184.041 139.693 184.082C139.627 184.123 139.57 184.176 139.526 184.239C139.482 184.302 139.451 184.374 139.435 184.449C139.419 184.525 139.419 184.603 139.434 184.678C139.438 184.761 139.46 184.843 139.498 184.917C139.536 184.991 139.59 185.056 139.655 185.107C139.72 185.159 139.795 185.197 139.876 185.217C139.956 185.238 140.04 185.241 140.122 185.227C140.204 185.212 140.282 185.181 140.351 185.134C140.42 185.087 140.478 185.026 140.522 184.955C140.565 184.884 140.593 184.805 140.604 184.722C140.614 184.64 140.607 184.556 140.583 184.476C140.557 184.331 140.476 184.2 140.357 184.112C140.238 184.024 140.09 183.985 139.943 184.003H139.907ZM149.389 182.31C149.237 182.338 149.102 182.424 149.014 182.551C148.925 182.677 148.89 182.833 148.915 182.985C148.957 183.123 149.048 183.24 149.17 183.315C149.292 183.39 149.438 183.418 149.579 183.393C149.72 183.368 149.848 183.292 149.937 183.18C150.026 183.068 150.072 182.927 150.064 182.784C150.037 182.639 149.955 182.51 149.837 182.422C149.718 182.334 149.571 182.294 149.424 182.31H149.389ZM105.587 183.661C105.435 183.689 105.3 183.775 105.211 183.901C105.123 184.028 105.087 184.184 105.113 184.336C105.143 184.489 105.231 184.623 105.359 184.712C105.487 184.8 105.644 184.836 105.797 184.81C105.936 184.768 106.054 184.677 106.129 184.554C106.205 184.43 106.232 184.283 106.206 184.141C106.18 183.999 106.102 183.871 105.988 183.783C105.874 183.694 105.731 183.651 105.587 183.661ZM115.077 181.968C114.925 181.996 114.79 182.082 114.702 182.209C114.613 182.335 114.578 182.491 114.603 182.643C114.615 182.72 114.642 182.793 114.682 182.858C114.723 182.924 114.776 182.98 114.84 183.025C114.903 183.069 114.974 183.1 115.05 183.116C115.125 183.132 115.203 183.132 115.279 183.117C115.416 183.075 115.533 182.985 115.608 182.862C115.683 182.74 115.711 182.595 115.686 182.453C115.661 182.312 115.586 182.185 115.473 182.095C115.361 182.006 115.22 181.961 115.077 181.968ZM124.558 180.284C124.406 180.312 124.272 180.398 124.183 180.525C124.094 180.651 124.059 180.807 124.085 180.959C124.113 181.111 124.2 181.246 124.327 181.334C124.454 181.422 124.611 181.456 124.763 181.43C124.915 181.403 125.051 181.318 125.141 181.192C125.23 181.066 125.267 180.91 125.242 180.758C125.217 180.61 125.134 180.478 125.013 180.39C124.892 180.301 124.742 180.264 124.593 180.284H124.558ZM134.048 178.591C133.897 178.619 133.762 178.705 133.673 178.832C133.585 178.958 133.549 179.114 133.575 179.267C133.586 179.343 133.613 179.416 133.654 179.481C133.695 179.547 133.748 179.604 133.811 179.648C133.874 179.692 133.946 179.723 134.021 179.739C134.097 179.755 134.175 179.755 134.25 179.74C134.333 179.736 134.415 179.714 134.489 179.676C134.563 179.638 134.628 179.584 134.679 179.519C134.731 179.454 134.769 179.379 134.789 179.298C134.81 179.218 134.813 179.134 134.799 179.052C134.784 178.97 134.753 178.892 134.706 178.823C134.659 178.754 134.598 178.696 134.527 178.652C134.456 178.609 134.377 178.581 134.294 178.57C134.212 178.56 134.128 178.567 134.048 178.591ZM143.53 176.907C143.454 176.92 143.382 176.947 143.318 176.988C143.253 177.03 143.198 177.083 143.154 177.146C143.111 177.209 143.081 177.28 143.065 177.355C143.05 177.43 143.05 177.507 143.065 177.582C143.085 177.698 143.138 177.804 143.219 177.889C143.3 177.974 143.404 178.032 143.518 178.057C143.632 178.083 143.751 178.073 143.86 178.03C143.969 177.987 144.062 177.913 144.128 177.817C144.195 177.72 144.231 177.607 144.232 177.49C144.233 177.373 144.2 177.258 144.135 177.161C144.071 177.063 143.979 176.987 143.871 176.941C143.763 176.896 143.645 176.884 143.53 176.907ZM152.845 175.276C152.737 175.336 152.65 175.428 152.596 175.54C152.543 175.651 152.525 175.777 152.546 175.898C152.56 175.973 152.589 176.045 152.63 176.109C152.671 176.173 152.725 176.228 152.788 176.271C152.85 176.314 152.921 176.345 152.996 176.36C153.07 176.376 153.147 176.377 153.222 176.363C153.324 176.347 153.419 176.303 153.498 176.236C153.576 176.17 153.636 176.084 153.669 175.986C153.432 175.741 153.16 175.504 152.88 175.276H152.845ZM104.131 202.948C104.016 202.967 103.909 203.021 103.824 203.101C103.74 203.181 103.681 203.284 103.655 203.398C103.629 203.512 103.638 203.631 103.68 203.739C103.722 203.848 103.795 203.942 103.891 204.009C103.986 204.076 104.099 204.113 104.216 204.115C104.332 204.118 104.447 204.085 104.545 204.022C104.643 203.959 104.721 203.869 104.767 203.762C104.813 203.655 104.827 203.536 104.806 203.422C104.778 203.277 104.697 203.148 104.578 203.06C104.46 202.972 104.312 202.932 104.166 202.948H104.131ZM113.612 201.264C113.46 201.292 113.325 201.378 113.237 201.505C113.148 201.631 113.113 201.787 113.138 201.94C113.166 202.093 113.254 202.229 113.382 202.318C113.511 202.407 113.669 202.441 113.823 202.413C113.976 202.385 114.112 202.297 114.201 202.169C114.29 202.041 114.324 201.883 114.296 201.729C114.266 201.584 114.183 201.456 114.063 201.369C113.942 201.283 113.794 201.246 113.647 201.264H113.612ZM123.102 199.571C122.95 199.599 122.816 199.686 122.727 199.812C122.638 199.938 122.603 200.094 122.629 200.247C122.67 200.384 122.761 200.501 122.883 200.576C123.006 200.651 123.151 200.679 123.292 200.654C123.434 200.629 123.561 200.554 123.65 200.442C123.74 200.329 123.785 200.188 123.778 200.045C123.75 199.9 123.669 199.771 123.55 199.683C123.431 199.595 123.284 199.555 123.137 199.571H123.102ZM132.584 197.879C132.43 197.906 132.294 197.994 132.205 198.123C132.116 198.251 132.082 198.409 132.11 198.563C132.138 198.716 132.226 198.852 132.354 198.941C132.482 199.03 132.641 199.064 132.794 199.036C132.87 199.022 132.943 198.994 133.008 198.952C133.073 198.91 133.129 198.856 133.173 198.792C133.217 198.729 133.248 198.657 133.264 198.582C133.28 198.506 133.282 198.428 133.268 198.352C133.254 198.276 133.225 198.204 133.183 198.139C133.142 198.074 133.087 198.018 133.024 197.974C132.96 197.93 132.889 197.899 132.813 197.882C132.738 197.866 132.66 197.865 132.584 197.879ZM142.074 196.195C141.991 196.199 141.91 196.221 141.836 196.259C141.762 196.297 141.697 196.35 141.645 196.415C141.593 196.48 141.555 196.556 141.535 196.636C141.514 196.717 141.511 196.801 141.526 196.883C141.54 196.965 141.572 197.043 141.618 197.112C141.665 197.181 141.726 197.239 141.797 197.282C141.868 197.326 141.947 197.354 142.03 197.364C142.112 197.375 142.196 197.368 142.276 197.344C142.351 197.331 142.424 197.303 142.489 197.262C142.554 197.221 142.61 197.168 142.654 197.105C142.698 197.042 142.729 196.971 142.745 196.896C142.762 196.821 142.763 196.744 142.749 196.668C142.722 196.523 142.64 196.394 142.522 196.306C142.403 196.219 142.256 196.179 142.109 196.195H142.074ZM151.59 194.502C151.439 194.53 151.304 194.617 151.216 194.744C151.128 194.871 151.093 195.028 151.12 195.18C151.146 195.332 151.232 195.468 151.358 195.558C151.484 195.648 151.64 195.684 151.792 195.659C151.944 195.631 152.079 195.544 152.167 195.417C152.255 195.29 152.289 195.133 152.263 194.981C152.236 194.829 152.151 194.693 152.025 194.603C151.899 194.514 151.743 194.477 151.59 194.502ZM161.072 192.818C160.935 192.859 160.817 192.95 160.742 193.072C160.667 193.195 160.64 193.34 160.664 193.481C160.689 193.623 160.765 193.75 160.877 193.839C160.989 193.929 161.13 193.974 161.274 193.967C161.35 193.955 161.423 193.928 161.489 193.888C161.554 193.847 161.611 193.793 161.655 193.73C161.699 193.667 161.73 193.596 161.746 193.52C161.762 193.445 161.762 193.367 161.747 193.291C161.722 193.14 161.637 193.005 161.512 192.917C161.387 192.828 161.232 192.792 161.081 192.818H161.072ZM98.2979 197.536C98.146 197.565 98.0114 197.652 97.9234 197.779C97.8353 197.906 97.8008 198.063 97.8273 198.215C97.8539 198.367 97.9393 198.503 98.0651 198.593C98.1909 198.682 98.3471 198.719 98.4996 198.694C98.6515 198.666 98.7861 198.579 98.8742 198.452C98.9622 198.325 98.9968 198.168 98.9702 198.016C98.9437 197.864 98.8583 197.728 98.7324 197.638C98.6066 197.548 98.4505 197.512 98.2979 197.536ZM107.797 195.87C107.721 195.882 107.648 195.908 107.582 195.949C107.516 195.99 107.46 196.043 107.416 196.106C107.371 196.169 107.34 196.241 107.324 196.316C107.309 196.392 107.308 196.47 107.323 196.545C107.343 196.66 107.396 196.767 107.476 196.852C107.556 196.936 107.659 196.995 107.773 197.021C107.887 197.047 108.006 197.038 108.114 196.996C108.223 196.954 108.317 196.881 108.384 196.785C108.451 196.69 108.488 196.577 108.49 196.46C108.493 196.344 108.46 196.229 108.397 196.131C108.335 196.033 108.244 195.955 108.137 195.909C108.03 195.863 107.912 195.849 107.797 195.87ZM117.278 194.177C117.202 194.191 117.13 194.22 117.065 194.262C117 194.303 116.944 194.358 116.9 194.421C116.856 194.485 116.825 194.556 116.808 194.632C116.792 194.707 116.791 194.785 116.805 194.861C116.819 194.937 116.847 195.01 116.889 195.075C116.931 195.14 116.985 195.196 117.049 195.24C117.112 195.284 117.184 195.315 117.259 195.331C117.335 195.347 117.413 195.349 117.489 195.335C117.642 195.307 117.779 195.219 117.867 195.091C117.956 194.963 117.99 194.804 117.962 194.651C117.935 194.497 117.847 194.361 117.718 194.272C117.59 194.184 117.432 194.149 117.278 194.177ZM126.769 192.493C126.693 192.506 126.62 192.533 126.555 192.574C126.491 192.615 126.434 192.669 126.39 192.732C126.346 192.795 126.315 192.866 126.299 192.941C126.282 193.016 126.281 193.093 126.295 193.169C126.337 193.306 126.427 193.423 126.55 193.498C126.672 193.573 126.817 193.601 126.959 193.576C127.1 193.551 127.227 193.476 127.317 193.363C127.406 193.251 127.451 193.11 127.444 192.967C127.433 192.89 127.407 192.815 127.367 192.748C127.327 192.681 127.274 192.623 127.211 192.577C127.148 192.531 127.076 192.499 127 192.481C126.924 192.464 126.845 192.462 126.769 192.476V192.493ZM136.25 190.8C136.097 190.83 135.963 190.918 135.874 191.046C135.786 191.174 135.751 191.331 135.776 191.484C135.804 191.638 135.892 191.774 136.02 191.863C136.149 191.952 136.307 191.986 136.46 191.958C136.614 191.93 136.75 191.842 136.839 191.714C136.928 191.586 136.962 191.428 136.934 191.274C136.908 191.118 136.822 190.979 136.694 190.887C136.565 190.795 136.406 190.757 136.25 190.783V190.8ZM145.74 189.116C145.657 189.121 145.576 189.143 145.502 189.181C145.428 189.219 145.363 189.272 145.311 189.337C145.259 189.402 145.222 189.478 145.201 189.558C145.181 189.639 145.177 189.723 145.192 189.805C145.206 189.887 145.238 189.965 145.285 190.034C145.331 190.102 145.392 190.16 145.463 190.204C145.534 190.248 145.613 190.276 145.696 190.286C145.779 190.297 145.862 190.29 145.942 190.265C146.079 190.223 146.196 190.133 146.271 190.011C146.347 189.888 146.374 189.743 146.349 189.602C146.325 189.46 146.249 189.333 146.137 189.244C146.025 189.154 145.883 189.109 145.74 189.116ZM155.222 187.424C155.146 187.437 155.074 187.466 155.009 187.508C154.944 187.55 154.889 187.604 154.845 187.668C154.802 187.732 154.772 187.803 154.757 187.879C154.742 187.954 154.742 188.032 154.757 188.108C154.769 188.183 154.797 188.255 154.838 188.32C154.879 188.384 154.933 188.44 154.996 188.483C155.059 188.527 155.13 188.557 155.205 188.572C155.28 188.588 155.357 188.588 155.432 188.573C155.584 188.545 155.719 188.458 155.807 188.332C155.896 188.206 155.931 188.049 155.906 187.897C155.88 187.741 155.793 187.602 155.665 187.51C155.537 187.418 155.377 187.381 155.222 187.406V187.424ZM96.8507 216.833C96.7744 216.844 96.7013 216.871 96.6358 216.912C96.5703 216.952 96.5136 217.006 96.4694 217.069C96.4251 217.132 96.3941 217.204 96.3782 217.279C96.3623 217.355 96.3619 217.432 96.377 217.508C96.3814 217.591 96.4033 217.672 96.4413 217.746C96.4794 217.82 96.5327 217.885 96.5978 217.937C96.6629 217.989 96.7382 218.027 96.8189 218.047C96.8995 218.068 96.9836 218.071 97.0655 218.056C97.1475 218.042 97.2255 218.01 97.2943 217.964C97.3631 217.917 97.4212 217.856 97.4647 217.785C97.5083 217.714 97.5362 217.635 97.5468 217.552C97.5574 217.47 97.5503 217.386 97.526 217.306C97.5133 217.231 97.4857 217.158 97.4448 217.093C97.4038 217.028 97.3504 216.972 97.2875 216.928C97.2247 216.884 97.1537 216.853 97.0787 216.837C97.0037 216.82 96.9262 216.819 96.8507 216.833ZM106.332 215.166C106.18 215.194 106.046 215.28 105.957 215.407C105.868 215.533 105.833 215.689 105.858 215.842C105.871 215.918 105.899 215.991 105.941 216.057C105.982 216.123 106.036 216.179 106.1 216.223C106.164 216.268 106.236 216.298 106.312 216.314C106.388 216.33 106.467 216.33 106.543 216.315C106.618 216.303 106.69 216.275 106.755 216.234C106.819 216.193 106.875 216.139 106.918 216.076C106.962 216.013 106.992 215.942 107.007 215.867C107.023 215.792 107.023 215.715 107.008 215.64C106.98 215.488 106.893 215.353 106.767 215.265C106.641 215.176 106.484 215.141 106.332 215.166ZM115.822 213.482C115.747 213.495 115.674 213.522 115.609 213.563C115.544 213.604 115.488 213.658 115.444 213.721C115.4 213.784 115.369 213.855 115.353 213.93C115.336 214.005 115.335 214.082 115.349 214.158C115.391 214.295 115.481 214.412 115.603 214.487C115.726 214.562 115.871 214.59 116.012 214.565C116.154 214.54 116.281 214.465 116.371 214.352C116.46 214.24 116.505 214.099 116.498 213.956C116.489 213.877 116.465 213.801 116.426 213.733C116.386 213.664 116.333 213.604 116.27 213.557C116.206 213.51 116.134 213.477 116.057 213.46C115.98 213.442 115.9 213.441 115.822 213.456V213.482ZM125.277 211.763C125.126 211.791 124.991 211.877 124.902 212.004C124.814 212.13 124.778 212.286 124.804 212.438C124.832 212.59 124.92 212.725 125.047 212.813C125.173 212.901 125.33 212.936 125.482 212.909C125.635 212.882 125.77 212.797 125.86 212.671C125.95 212.545 125.986 212.389 125.962 212.237C125.932 212.084 125.844 211.949 125.716 211.861C125.588 211.772 125.431 211.737 125.277 211.763ZM134.768 210.079C134.653 210.098 134.546 210.151 134.461 210.232C134.377 210.312 134.318 210.415 134.292 210.529C134.266 210.643 134.275 210.761 134.317 210.87C134.359 210.979 134.432 211.073 134.528 211.14C134.623 211.207 134.736 211.244 134.853 211.246C134.969 211.248 135.084 211.216 135.182 211.153C135.28 211.09 135.358 211 135.404 210.893C135.451 210.786 135.464 210.667 135.443 210.553C135.419 210.404 135.338 210.271 135.216 210.182C135.095 210.093 134.943 210.056 134.794 210.079H134.768ZM144.249 208.386C144.111 208.428 143.992 208.519 143.917 208.642C143.841 208.766 143.814 208.913 143.84 209.055C143.866 209.197 143.944 209.325 144.058 209.413C144.172 209.502 144.315 209.545 144.46 209.535C144.611 209.507 144.746 209.421 144.835 209.295C144.923 209.168 144.959 209.012 144.933 208.86C144.903 208.713 144.819 208.582 144.697 208.494C144.575 208.406 144.425 208.368 144.275 208.386H144.249ZM153.739 206.702C153.624 206.721 153.518 206.775 153.433 206.855C153.348 206.935 153.289 207.038 153.264 207.152C153.238 207.266 153.246 207.384 153.288 207.493C153.33 207.602 153.404 207.696 153.499 207.763C153.595 207.83 153.708 207.867 153.825 207.869C153.941 207.872 154.056 207.839 154.154 207.776C154.252 207.713 154.329 207.623 154.376 207.516C154.422 207.409 154.436 207.291 154.415 207.176C154.391 207.027 154.309 206.894 154.188 206.805C154.066 206.716 153.914 206.679 153.766 206.702H153.739ZM163.23 205.009C163.146 205.014 163.065 205.036 162.991 205.074C162.917 205.112 162.852 205.165 162.8 205.23C162.748 205.295 162.711 205.371 162.691 205.451C162.67 205.532 162.667 205.616 162.681 205.698C162.696 205.78 162.727 205.858 162.774 205.927C162.821 205.995 162.882 206.054 162.953 206.097C163.023 206.141 163.103 206.169 163.185 206.179C163.268 206.19 163.352 206.183 163.431 206.158C163.514 206.154 163.596 206.132 163.67 206.094C163.744 206.056 163.809 206.003 163.861 205.938C163.912 205.873 163.95 205.797 163.97 205.717C163.991 205.636 163.994 205.552 163.98 205.47C163.965 205.388 163.934 205.31 163.887 205.241C163.84 205.172 163.779 205.114 163.708 205.071C163.637 205.027 163.558 204.999 163.476 204.989C163.393 204.978 163.309 204.985 163.23 205.009ZM100.456 209.737C100.379 209.748 100.306 209.775 100.241 209.816C100.175 209.857 100.119 209.91 100.074 209.973C100.03 210.036 99.999 210.108 99.9831 210.183C99.9672 210.259 99.9668 210.337 99.9819 210.412C100.024 210.55 100.114 210.667 100.237 210.742C100.359 210.817 100.504 210.845 100.646 210.82C100.787 210.795 100.914 210.719 101.004 210.607C101.093 210.495 101.138 210.354 101.131 210.211C101.105 210.063 101.023 209.931 100.902 209.843C100.781 209.754 100.63 209.717 100.482 209.737H100.456ZM109.937 208.044C109.785 208.072 109.65 208.158 109.562 208.285C109.473 208.411 109.438 208.567 109.463 208.719C109.505 208.857 109.596 208.974 109.718 209.049C109.84 209.124 109.986 209.152 110.127 209.127C110.268 209.102 110.396 209.027 110.485 208.914C110.575 208.802 110.62 208.661 110.612 208.518C110.585 208.371 110.502 208.241 110.381 208.153C110.261 208.065 110.111 208.026 109.963 208.044H109.937ZM119.454 206.395C119.377 206.407 119.304 206.434 119.239 206.474C119.173 206.515 119.116 206.568 119.072 206.632C119.028 206.695 118.997 206.766 118.981 206.842C118.965 206.917 118.965 206.995 118.98 207.071C118.984 207.154 119.006 207.235 119.044 207.309C119.082 207.383 119.136 207.448 119.201 207.5C119.266 207.552 119.341 207.589 119.422 207.61C119.502 207.63 119.586 207.633 119.668 207.619C119.75 207.605 119.828 207.573 119.897 207.526C119.966 207.479 120.024 207.418 120.068 207.348C120.111 207.277 120.139 207.197 120.15 207.115C120.16 207.032 120.153 206.948 120.129 206.869C120.116 206.793 120.089 206.721 120.048 206.656C120.007 206.591 119.953 206.535 119.89 206.491C119.828 206.447 119.757 206.415 119.682 206.399C119.607 206.383 119.529 206.381 119.454 206.395ZM128.935 204.641C128.783 204.669 128.648 204.755 128.56 204.882C128.471 205.008 128.436 205.164 128.461 205.316C128.474 205.393 128.502 205.466 128.543 205.532C128.585 205.597 128.639 205.654 128.703 205.698C128.767 205.742 128.839 205.773 128.915 205.789C128.991 205.805 129.069 205.805 129.145 205.79C129.221 205.777 129.293 205.75 129.358 205.709C129.422 205.668 129.478 205.614 129.521 205.551C129.565 205.488 129.595 205.417 129.61 205.342C129.625 205.267 129.626 205.19 129.61 205.115C129.583 204.963 129.496 204.828 129.37 204.739C129.243 204.651 129.087 204.615 128.935 204.641ZM138.434 202.983C138.358 202.996 138.286 203.024 138.221 203.065C138.156 203.105 138.1 203.159 138.056 203.222C138.012 203.285 137.981 203.356 137.964 203.431C137.948 203.506 137.946 203.583 137.96 203.659C137.988 203.81 138.075 203.945 138.201 204.034C138.327 204.122 138.483 204.158 138.636 204.132C138.788 204.102 138.923 204.014 139.012 203.886C139.1 203.759 139.135 203.601 139.109 203.448C139.097 203.373 139.069 203.301 139.028 203.236C138.987 203.171 138.933 203.116 138.87 203.072C138.807 203.029 138.736 202.999 138.661 202.983C138.586 202.968 138.509 202.968 138.434 202.983ZM147.915 201.29C147.801 201.311 147.696 201.366 147.612 201.447C147.529 201.527 147.471 201.631 147.447 201.745C147.422 201.858 147.432 201.977 147.475 202.085C147.517 202.193 147.591 202.286 147.687 202.352C147.782 202.418 147.895 202.454 148.011 202.456C148.128 202.458 148.242 202.426 148.339 202.363C148.437 202.3 148.514 202.209 148.56 202.103C148.606 201.996 148.62 201.878 148.6 201.764C148.57 201.61 148.48 201.473 148.351 201.385C148.221 201.296 148.061 201.262 147.907 201.29H147.915ZM157.406 199.606C157.29 199.626 157.184 199.68 157.099 199.76C157.014 199.841 156.956 199.945 156.931 200.059C156.906 200.173 156.915 200.293 156.958 200.401C157.001 200.51 157.075 200.603 157.171 200.67C157.268 200.736 157.382 200.772 157.498 200.773C157.615 200.775 157.73 200.741 157.828 200.677C157.925 200.612 158.002 200.52 158.047 200.413C158.092 200.305 158.104 200.186 158.081 200.071C158.068 199.995 158.041 199.922 157.999 199.857C157.957 199.791 157.903 199.735 157.839 199.692C157.775 199.648 157.703 199.618 157.627 199.604C157.551 199.589 157.472 199.59 157.397 199.606H157.406ZM166.887 197.914C166.812 197.926 166.739 197.954 166.675 197.995C166.61 198.036 166.555 198.09 166.511 198.153C166.468 198.216 166.438 198.287 166.422 198.362C166.407 198.437 166.407 198.514 166.422 198.589C166.435 198.665 166.463 198.737 166.503 198.802C166.544 198.867 166.598 198.923 166.661 198.967C166.724 199.011 166.795 199.042 166.87 199.059C166.945 199.075 167.022 199.076 167.098 199.063C167.249 199.035 167.384 198.948 167.473 198.822C167.561 198.696 167.597 198.539 167.571 198.387C167.541 198.233 167.452 198.097 167.322 198.008C167.192 197.919 167.033 197.885 166.878 197.914H166.887ZM99.0171 229.024C98.934 229.029 98.8528 229.051 98.7788 229.089C98.7048 229.127 98.6397 229.18 98.5879 229.245C98.536 229.31 98.4986 229.386 98.4781 229.466C98.4575 229.547 98.4544 229.631 98.4687 229.713C98.4831 229.795 98.5148 229.873 98.5615 229.942C98.6083 230.01 98.6692 230.069 98.7401 230.112C98.811 230.156 98.8903 230.184 98.9729 230.194C99.0554 230.205 99.1393 230.198 99.2189 230.173C99.2951 230.162 99.3682 230.135 99.4337 230.094C99.4993 230.054 99.5559 230 99.6002 229.937C99.6445 229.874 99.6755 229.802 99.6914 229.727C99.7072 229.652 99.7076 229.574 99.6925 229.498C99.6798 229.422 99.6522 229.35 99.6112 229.285C99.5703 229.22 99.5168 229.164 99.454 229.12C99.3911 229.076 99.3201 229.045 99.2451 229.028C99.1701 229.012 99.0926 229.01 99.0171 229.024ZM108.507 227.332C108.355 227.36 108.221 227.447 108.133 227.574C108.045 227.701 108.01 227.858 108.037 228.01C108.063 228.162 108.149 228.298 108.275 228.388C108.4 228.477 108.556 228.514 108.709 228.489C108.862 228.459 108.996 228.371 109.085 228.243C109.173 228.116 109.208 227.958 109.183 227.805C109.155 227.653 109.068 227.519 108.942 227.43C108.816 227.341 108.66 227.306 108.507 227.332ZM117.989 225.691C117.837 225.719 117.702 225.806 117.614 225.932C117.525 226.058 117.49 226.215 117.515 226.367C117.545 226.519 117.633 226.654 117.761 226.743C117.889 226.831 118.046 226.866 118.199 226.84C118.275 226.828 118.347 226.8 118.411 226.759C118.476 226.718 118.532 226.664 118.575 226.601C118.618 226.538 118.649 226.467 118.664 226.392C118.679 226.317 118.679 226.24 118.664 226.165C118.651 226.089 118.624 226.017 118.583 225.952C118.542 225.887 118.488 225.831 118.426 225.787C118.363 225.743 118.292 225.712 118.217 225.695C118.142 225.679 118.064 225.678 117.989 225.691ZM127.479 223.937C127.403 223.951 127.33 223.98 127.265 224.021C127.2 224.063 127.144 224.117 127.1 224.181C127.056 224.245 127.025 224.316 127.009 224.392C126.993 224.467 126.991 224.545 127.005 224.621C127.018 224.697 127.046 224.769 127.087 224.833C127.128 224.898 127.181 224.954 127.244 224.997C127.307 225.04 127.379 225.071 127.454 225.086C127.528 225.101 127.606 225.101 127.681 225.086C127.818 225.044 127.935 224.954 128.01 224.832C128.085 224.709 128.113 224.564 128.088 224.422C128.063 224.281 127.988 224.154 127.876 224.064C127.763 223.975 127.622 223.93 127.479 223.937ZM136.96 222.253C136.809 222.281 136.674 222.367 136.585 222.494C136.497 222.62 136.461 222.776 136.487 222.929C136.515 223.08 136.602 223.215 136.729 223.303C136.856 223.391 137.013 223.426 137.165 223.399C137.318 223.373 137.453 223.287 137.543 223.161C137.633 223.035 137.669 222.879 137.645 222.727C137.613 222.576 137.523 222.444 137.396 222.359C137.268 222.274 137.111 222.242 136.96 222.271V222.253ZM146.451 220.56C146.298 220.59 146.163 220.678 146.075 220.806C145.986 220.934 145.951 221.091 145.977 221.244C145.99 221.32 146.017 221.392 146.058 221.457C146.099 221.521 146.153 221.577 146.216 221.62C146.279 221.664 146.35 221.694 146.425 221.709C146.5 221.724 146.577 221.724 146.652 221.709C146.728 221.697 146.801 221.669 146.865 221.628C146.93 221.587 146.987 221.534 147.031 221.471C147.075 221.408 147.106 221.337 147.122 221.262C147.139 221.187 147.14 221.109 147.126 221.034C147.094 220.885 147.006 220.755 146.88 220.67C146.754 220.585 146.6 220.552 146.451 220.578V220.56ZM155.976 218.894C155.901 218.906 155.828 218.934 155.764 218.975C155.699 219.016 155.644 219.07 155.6 219.133C155.557 219.196 155.527 219.267 155.511 219.342C155.496 219.417 155.496 219.494 155.511 219.569C155.531 219.684 155.584 219.791 155.665 219.876C155.746 219.96 155.85 220.019 155.964 220.044C156.078 220.069 156.197 220.06 156.306 220.017C156.415 219.974 156.508 219.9 156.574 219.803C156.641 219.707 156.677 219.593 156.678 219.476C156.679 219.36 156.646 219.245 156.581 219.147C156.517 219.05 156.425 218.973 156.317 218.928C156.209 218.883 156.091 218.871 155.976 218.894ZM165.466 217.201C165.314 217.231 165.179 217.319 165.09 217.447C165.002 217.575 164.967 217.732 164.993 217.885C165.034 218.024 165.125 218.142 165.249 218.217C165.372 218.293 165.519 218.32 165.661 218.294C165.804 218.268 165.931 218.19 166.02 218.076C166.108 217.962 166.152 217.819 166.142 217.675C166.128 217.595 166.099 217.519 166.054 217.451C166.01 217.383 165.953 217.326 165.885 217.281C165.818 217.237 165.742 217.207 165.662 217.193C165.582 217.179 165.501 217.182 165.422 217.201H165.466ZM102.692 221.929C102.555 221.97 102.438 222.061 102.363 222.183C102.288 222.306 102.26 222.451 102.285 222.592C102.309 222.734 102.385 222.861 102.497 222.95C102.61 223.04 102.751 223.085 102.894 223.078C103.031 223.036 103.148 222.945 103.223 222.823C103.298 222.701 103.326 222.555 103.301 222.414C103.277 222.273 103.201 222.145 103.089 222.056C102.977 221.966 102.835 221.921 102.692 221.929ZM112.121 220.236C112.044 220.248 111.971 220.276 111.906 220.318C111.84 220.359 111.783 220.414 111.739 220.477C111.695 220.541 111.664 220.613 111.648 220.689C111.633 220.765 111.632 220.844 111.647 220.92C111.66 220.995 111.688 221.068 111.729 221.132C111.77 221.197 111.823 221.252 111.886 221.296C111.949 221.339 112.021 221.369 112.096 221.385C112.17 221.4 112.248 221.4 112.323 221.385C112.46 221.343 112.577 221.252 112.652 221.13C112.727 221.008 112.755 220.862 112.73 220.721C112.705 220.58 112.63 220.452 112.518 220.363C112.405 220.274 112.264 220.228 112.121 220.236ZM121.602 218.552C121.519 218.556 121.438 218.578 121.364 218.616C121.29 218.654 121.225 218.707 121.173 218.773C121.121 218.838 121.084 218.913 121.063 218.994C121.043 219.074 121.04 219.158 121.054 219.24C121.068 219.322 121.1 219.4 121.147 219.469C121.194 219.538 121.254 219.596 121.325 219.639C121.396 219.683 121.476 219.711 121.558 219.722C121.641 219.732 121.725 219.725 121.804 219.701C121.941 219.659 122.059 219.568 122.134 219.446C122.209 219.324 122.236 219.178 122.212 219.037C122.187 218.896 122.111 218.768 121.999 218.679C121.887 218.59 121.746 218.544 121.602 218.552ZM131.093 216.859C131.01 216.863 130.928 216.885 130.854 216.923C130.78 216.961 130.715 217.015 130.663 217.08C130.612 217.145 130.574 217.22 130.554 217.301C130.533 217.381 130.53 217.466 130.544 217.547C130.559 217.629 130.59 217.707 130.637 217.776C130.684 217.845 130.745 217.903 130.816 217.947C130.887 217.99 130.966 218.018 131.048 218.029C131.131 218.039 131.215 218.032 131.294 218.008C131.432 217.966 131.549 217.876 131.624 217.753C131.699 217.631 131.727 217.486 131.702 217.344C131.677 217.203 131.601 217.076 131.489 216.986C131.377 216.897 131.236 216.852 131.093 216.859ZM140.592 215.166C140.44 215.194 140.305 215.28 140.216 215.407C140.128 215.533 140.092 215.689 140.118 215.842C140.148 215.994 140.236 216.129 140.364 216.217C140.492 216.306 140.649 216.341 140.802 216.315C140.941 216.274 141.059 216.182 141.134 216.059C141.21 215.936 141.237 215.789 141.211 215.646C141.185 215.504 141.107 215.377 140.993 215.288C140.879 215.199 140.736 215.156 140.592 215.166ZM150.082 213.473C149.93 213.501 149.795 213.588 149.707 213.714C149.618 213.84 149.583 213.997 149.608 214.149C149.62 214.225 149.647 214.298 149.687 214.364C149.728 214.429 149.781 214.486 149.845 214.53C149.908 214.574 149.979 214.605 150.055 214.621C150.13 214.637 150.208 214.637 150.284 214.622C150.421 214.581 150.538 214.49 150.613 214.368C150.688 214.245 150.716 214.1 150.691 213.959C150.666 213.817 150.591 213.69 150.478 213.601C150.366 213.511 150.225 213.466 150.082 213.473ZM159.563 211.789C159.411 211.817 159.277 211.904 159.188 212.03C159.099 212.156 159.064 212.313 159.09 212.465C159.118 212.617 159.205 212.751 159.332 212.839C159.459 212.927 159.616 212.962 159.768 212.935C159.92 212.909 160.056 212.823 160.146 212.697C160.235 212.572 160.272 212.416 160.247 212.263C160.234 212.187 160.205 212.115 160.163 212.05C160.121 211.986 160.067 211.93 160.003 211.887C159.939 211.843 159.868 211.813 159.792 211.798C159.717 211.783 159.639 211.783 159.563 211.798V211.789ZM169.054 210.097C168.902 210.124 168.767 210.211 168.678 210.337C168.59 210.464 168.554 210.62 168.58 210.772C168.591 210.848 168.618 210.921 168.659 210.987C168.7 211.052 168.753 211.109 168.816 211.153C168.879 211.198 168.951 211.229 169.026 211.244C169.102 211.26 169.18 211.261 169.255 211.246C169.331 211.233 169.403 211.205 169.468 211.164C169.533 211.123 169.589 211.07 169.633 211.007C169.678 210.944 169.709 210.873 169.725 210.798C169.741 210.723 169.743 210.646 169.729 210.57C169.699 210.42 169.612 210.287 169.486 210.201C169.36 210.114 169.204 210.08 169.054 210.105V210.097ZM104.815 234.112C104.739 234.124 104.667 234.152 104.603 234.193C104.538 234.234 104.482 234.288 104.439 234.351C104.396 234.414 104.365 234.485 104.35 234.56C104.335 234.635 104.335 234.712 104.35 234.787C104.363 234.863 104.39 234.935 104.431 235C104.472 235.065 104.526 235.121 104.588 235.165C104.651 235.209 104.722 235.24 104.797 235.257C104.872 235.273 104.95 235.274 105.025 235.261C105.177 235.233 105.312 235.146 105.4 235.02C105.489 234.894 105.524 234.737 105.499 234.585C105.467 234.434 105.378 234.302 105.251 234.215C105.123 234.128 104.967 234.094 104.815 234.12V234.112ZM114.305 232.419C114.153 232.447 114.019 232.534 113.93 232.661C113.842 232.788 113.808 232.945 113.834 233.097C113.861 233.249 113.946 233.385 114.072 233.475C114.198 233.565 114.354 233.601 114.507 233.576C114.659 233.548 114.793 233.461 114.881 233.334C114.969 233.207 115.004 233.05 114.977 232.898C114.951 232.746 114.865 232.61 114.739 232.52C114.614 232.431 114.458 232.394 114.305 232.419ZM123.795 230.735C123.719 230.746 123.646 230.773 123.58 230.814C123.515 230.854 123.458 230.908 123.414 230.971C123.37 231.034 123.339 231.106 123.323 231.181C123.307 231.257 123.306 231.334 123.322 231.41C123.334 231.486 123.362 231.558 123.403 231.623C123.444 231.688 123.497 231.744 123.56 231.788C123.623 231.832 123.694 231.863 123.769 231.88C123.844 231.896 123.921 231.898 123.997 231.884C124.134 231.842 124.251 231.751 124.326 231.629C124.401 231.507 124.429 231.361 124.404 231.22C124.38 231.079 124.304 230.951 124.192 230.862C124.08 230.773 123.938 230.727 123.795 230.735ZM133.277 229.042C133.125 229.07 132.99 229.158 132.902 229.285C132.814 229.412 132.78 229.568 132.806 229.72C132.833 229.873 132.918 230.008 133.044 230.098C133.17 230.188 133.326 230.224 133.478 230.2C133.63 230.171 133.765 230.084 133.853 229.957C133.941 229.83 133.975 229.673 133.949 229.521C133.922 229.369 133.837 229.233 133.711 229.144C133.585 229.054 133.429 229.017 133.277 229.042ZM142.767 227.358C142.691 227.369 142.618 227.396 142.552 227.437C142.486 227.478 142.43 227.531 142.385 227.594C142.341 227.657 142.31 227.729 142.294 227.804C142.278 227.88 142.278 227.958 142.293 228.033C142.313 228.148 142.366 228.255 142.446 228.34C142.526 228.424 142.629 228.483 142.743 228.509C142.857 228.535 142.976 228.526 143.084 228.484C143.193 228.442 143.287 228.369 143.354 228.273C143.421 228.178 143.458 228.065 143.46 227.948C143.463 227.831 143.43 227.717 143.367 227.619C143.304 227.521 143.214 227.443 143.107 227.397C143 227.35 142.882 227.337 142.767 227.358ZM152.248 225.691C152.172 225.705 152.1 225.734 152.035 225.776C151.97 225.818 151.914 225.872 151.87 225.935C151.826 225.999 151.795 226.07 151.778 226.146C151.762 226.221 151.761 226.299 151.775 226.376C151.788 226.452 151.817 226.524 151.859 226.589C151.901 226.654 151.955 226.71 152.019 226.754C152.082 226.798 152.154 226.829 152.229 226.845C152.305 226.862 152.383 226.863 152.459 226.849C152.612 226.821 152.748 226.733 152.837 226.605C152.926 226.477 152.96 226.319 152.932 226.165C152.905 226.011 152.817 225.875 152.688 225.786C152.56 225.698 152.402 225.663 152.248 225.691ZM161.739 224.007C161.663 224.02 161.59 224.048 161.525 224.089C161.461 224.13 161.404 224.183 161.36 224.246C161.316 224.309 161.285 224.38 161.269 224.455C161.252 224.53 161.251 224.607 161.265 224.683C161.307 224.82 161.397 224.937 161.52 225.012C161.642 225.087 161.787 225.115 161.929 225.09C162.07 225.065 162.197 224.99 162.287 224.878C162.376 224.765 162.421 224.624 162.414 224.481C162.403 224.404 162.377 224.329 162.337 224.262C162.297 224.196 162.244 224.137 162.181 224.091C162.118 224.046 162.046 224.013 161.97 223.995C161.894 223.978 161.815 223.976 161.739 223.99V224.007ZM170.834 222.578C170.934 222.514 171.026 222.437 171.106 222.35C170.996 222.391 170.901 222.464 170.834 222.56V222.578Z" fill="white"/>
<path opacity="0.1" d="M116.314 182.442C116.476 183.354 116.365 184.294 115.993 185.142C115.622 185.991 115.007 186.711 114.226 187.21C113.446 187.709 112.535 187.966 111.608 187.947C110.682 187.928 109.782 187.635 109.022 187.105C108.262 186.575 107.677 185.831 107.34 184.968C107.003 184.105 106.929 183.161 107.129 182.256C107.328 181.352 107.791 180.526 108.46 179.885C109.128 179.243 109.972 178.814 110.884 178.652C112.107 178.436 113.365 178.713 114.383 179.423C115.401 180.134 116.095 181.219 116.314 182.442Z" fill="black"/>
<path opacity="0.1" d="M147.073 176.969C147.236 177.881 147.125 178.821 146.753 179.669C146.381 180.518 145.767 181.238 144.986 181.737C144.205 182.236 143.294 182.493 142.368 182.474C141.442 182.455 140.542 182.162 139.782 181.632C139.022 181.102 138.437 180.358 138.1 179.495C137.763 178.632 137.689 177.688 137.888 176.783C138.088 175.879 138.551 175.053 139.219 174.412C139.888 173.77 140.732 173.341 141.644 173.179C142.866 172.963 144.125 173.24 145.143 173.95C146.161 174.661 146.855 175.746 147.073 176.969Z" fill="black"/>
<path d="M114.831 182.713C114.941 183.332 114.865 183.968 114.613 184.544C114.361 185.119 113.944 185.606 113.415 185.944C112.886 186.283 112.269 186.456 111.641 186.444C111.013 186.431 110.403 186.233 109.889 185.873C109.374 185.514 108.977 185.01 108.748 184.425C108.519 183.841 108.469 183.201 108.604 182.588C108.739 181.975 109.052 181.415 109.505 180.98C109.958 180.545 110.529 180.254 111.147 180.143C111.558 180.07 111.979 180.079 112.387 180.168C112.794 180.258 113.18 180.426 113.522 180.665C113.864 180.904 114.156 181.208 114.38 181.559C114.605 181.91 114.758 182.303 114.831 182.713Z" fill="#263238"/>
<path d="M145.591 177.232C145.701 177.85 145.625 178.487 145.373 179.062C145.121 179.637 144.704 180.124 144.175 180.463C143.646 180.801 143.029 180.974 142.401 180.962C141.773 180.949 141.163 180.751 140.648 180.391C140.133 180.032 139.736 179.528 139.508 178.944C139.279 178.359 139.229 177.719 139.364 177.106C139.499 176.493 139.812 175.933 140.265 175.498C140.717 175.063 141.289 174.772 141.907 174.662C142.318 174.588 142.739 174.597 143.146 174.686C143.554 174.776 143.939 174.945 144.282 175.183C144.624 175.422 144.915 175.726 145.14 176.077C145.365 176.429 145.518 176.821 145.591 177.232Z" fill="#263238"/>
<path d="M141.223 178.547L140.811 177.24C124.681 126.132 108.007 73.2865 90.2197 71.5148L90.3952 69.7606C109.332 71.6463 125.435 122.676 142.486 176.705L142.898 178.012L141.223 178.547Z" fill="#263238"/>
<path d="M86.1413 73.3742C85.5625 75.0231 76.3178 85.101 68.6432 83.8994C66.1435 83.5047 67.6959 69.7693 67.6959 69.7693L67.5731 68.7255L65.9417 54.1657L83.7995 45.2719L86.3694 44.1141C86.3694 44.1141 86.5536 48.1313 86.729 53.1307C86.729 53.3588 86.729 53.5956 86.729 53.8412C86.729 54.1219 86.7729 54.3937 86.7729 54.6569C86.7729 55.4024 86.843 56.1655 86.8606 56.9198C86.8606 57.4987 86.8606 58.06 86.8606 58.674C86.8606 59.288 86.8606 59.8756 86.8606 60.4808C86.9129 64.7899 86.6726 69.0976 86.1413 73.3742Z" fill="#D3766A"/>
<path d="M86.729 53.1308C84.8578 56.96 82.1748 60.3356 78.8667 63.0227C75.5585 65.7099 71.7046 67.644 67.5731 68.6905L65.9417 54.1307L83.7995 45.2369L86.3694 44.0791C86.3694 44.0791 86.5536 48.1313 86.729 53.1308Z" fill="#263238"/>
<path d="M48.8997 29.5981C44.1195 54.8586 58.7056 60.5773 64.1524 61.6035C69.0993 62.5332 86.0799 65.1119 93.43 40.4478C100.78 15.7838 90.5707 5.60066 79.3964 2.87289C68.2222 0.145106 53.6886 4.33764 48.8997 29.5981Z" fill="#D3766A"/>
<path d="M57.3987 25.5898C57.9858 25.575 58.5716 25.5252 59.1529 25.4407C59.7759 25.4759 60.3929 25.3031 60.9071 24.9495C61.0548 24.8101 61.1496 24.6236 61.1752 24.4221C61.2008 24.2205 61.1556 24.0163 61.0474 23.8444C60.7931 23.5312 60.46 23.2913 60.0824 23.1495C59.7047 23.0077 59.2961 22.969 58.8985 23.0374C58.0726 23.0421 57.2781 23.3549 56.6707 23.9145C56.5269 24.0522 56.4288 24.2306 56.3896 24.4257C56.3503 24.6208 56.3718 24.8232 56.4511 25.0058C56.5304 25.1883 56.6638 25.3421 56.8332 25.4466C57.0026 25.551 57.2 25.601 57.3987 25.5898Z" fill="#263238"/>
<path d="M75.2828 28.765C74.7192 28.5813 74.1658 28.3676 73.6251 28.1247C73.0119 27.9804 72.4632 27.6383 72.0638 27.1511C71.9608 26.9743 71.9229 26.7671 71.9565 26.5653C71.9901 26.3635 72.0933 26.1798 72.248 26.046C72.5804 25.8174 72.9677 25.6815 73.3701 25.6522C73.7724 25.6229 74.1752 25.7013 74.5373 25.8793C75.3264 26.1308 75.9949 26.6649 76.4143 27.3791C76.498 27.5482 76.5313 27.7379 76.5102 27.9254C76.489 28.1129 76.4143 28.2904 76.295 28.4365C76.1756 28.5827 76.0167 28.6914 75.8372 28.7497C75.6577 28.8079 75.4652 28.8132 75.2828 28.765Z" fill="#263238"/>
<path d="M70.5377 34.2732C70.5377 34.2118 70.6605 34.3784 70.6518 34.4486C70.336 36.2028 70.2571 38.1938 71.7394 39.0095C71.7832 39.0095 71.7394 39.1147 71.7394 39.0972C69.836 38.5446 69.9676 35.8519 70.5377 34.2732Z" fill="#263238"/>
<path d="M72.3621 32.7295C75.1776 32.9312 74.5461 38.5534 71.9411 38.3604C69.3361 38.1675 70.0202 32.5277 72.3621 32.7295Z" fill="#263238"/>
<path d="M73.4322 33.1154C73.8795 33.4925 74.3092 34.1065 74.8881 34.2293C75.467 34.3521 76.1424 33.8434 76.6423 33.3522C76.6949 33.2996 76.73 33.3522 76.73 33.4311C76.6248 34.51 76.0897 35.5625 74.9144 35.5976C73.7391 35.6327 73.1602 34.5889 73.0462 33.475C73.0375 33.247 73.248 32.9663 73.4322 33.1154Z" fill="#263238"/>
<path d="M59.951 32.3698C59.951 32.3084 59.8019 32.4399 59.8019 32.5101C59.6703 34.2643 59.2318 36.2378 57.6004 36.6588C57.5477 36.6588 57.5477 36.7553 57.6004 36.7553C59.5563 36.6851 60.1089 34.045 59.951 32.3698Z" fill="#263238"/>
<path d="M58.6178 30.3964C55.8374 29.8876 55.0393 35.4835 57.6092 35.9484C60.1791 36.4133 60.9071 30.8174 58.6178 30.3964Z" fill="#263238"/>
<path d="M57.3636 30.5981C56.8812 30.8261 56.3637 31.2998 55.8287 31.2647C55.2937 31.2296 54.8463 30.5455 54.5394 29.9052C54.5394 29.8438 54.4516 29.9052 54.4429 29.9578C54.2587 31.0191 54.4429 32.1856 55.4515 32.5365C56.4602 32.8873 57.2057 32.0453 57.5916 31.0103C57.6618 30.8261 57.5566 30.5016 57.3636 30.5981Z" fill="#263238"/>
<path d="M67.6871 48.2804C67.2397 48.6663 66.81 49.2014 66.1521 49.2101C65.5018 49.1594 64.8704 48.9678 64.3015 48.6488C64.2895 48.643 64.2759 48.6412 64.2628 48.6438C64.2498 48.6463 64.2379 48.653 64.229 48.6629C64.2201 48.6728 64.2146 48.6854 64.2135 48.6987C64.2123 48.7119 64.2155 48.7252 64.2225 48.7365C64.4475 49.097 64.7664 49.3895 65.1449 49.5827C65.5235 49.7758 65.9475 49.8623 66.3714 49.8329C66.7344 49.7631 67.0687 49.5877 67.3324 49.3287C67.5961 49.0697 67.7775 48.7386 67.8537 48.3769C67.88 48.2716 67.7485 48.2278 67.6871 48.2804Z" fill="#263238"/>
<path d="M61.2491 40.483C61.2491 40.483 60.4948 43.4301 60.372 44.658C60.372 44.772 64.5908 45.5351 67.0994 43.0704C67.2046 42.9652 67.0555 42.8161 66.9327 42.8775C65.2604 43.7912 63.3372 44.1389 61.4508 43.8686C61.407 43.5178 62.7401 39.4129 62.556 39.3779C61.5946 39.3433 60.6329 39.4377 59.6966 39.6585C60.9509 34.3082 63.0647 29.1947 64.24 23.8707C64.2551 23.8289 64.253 23.7827 64.2341 23.7424C64.2151 23.7021 64.181 23.671 64.1391 23.6559C64.0973 23.6407 64.0511 23.6429 64.0108 23.6618C63.9705 23.6807 63.9394 23.7149 63.9242 23.7567C61.3368 28.9579 59.758 35.0801 58.3108 40.5795C58.0915 41.2373 60.7228 40.6233 61.2491 40.483Z" fill="#263238"/>
<path d="M61.3895 44.4299C62.0111 45.4932 62.8961 46.3783 63.9594 46.9998C64.5479 47.3224 65.2231 47.4513 65.889 47.3682C67.345 47.184 67.538 45.8947 67.4239 44.7369C67.3522 44.1387 67.214 43.5503 67.0117 42.9827C65.3412 44.0552 63.3702 44.5625 61.3895 44.4299Z" fill="#263238"/>
<path d="M63.9594 46.9998C64.5479 47.3224 65.2231 47.4513 65.8891 47.3682C67.3451 47.184 67.538 45.8947 67.424 44.7369C65.8978 44.7194 64.2752 45.5526 63.9594 46.9998Z" fill="#FF98B9"/>
<path d="M91.1669 43.4213C86.0358 43.3599 86.3341 31.6419 86.3341 31.6419C86.3341 31.6419 66.8976 26.1337 67.4764 8.39873C67.4764 8.39873 62.2665 19.0379 50.3291 22.5376C50.3291 22.5376 51.9693 1.02232 69.4236 1.82925C69.4236 1.82925 87.1586 -3.43334 95.7366 12.986C104.315 29.4053 94.5788 43.4564 91.1669 43.4213Z" fill="#263238"/>
<path d="M67.5817 7.0918C66.9561 9.75514 66.9083 12.5216 67.4414 15.205C67.9362 17.9307 68.9872 20.5252 70.5288 22.827C70.9115 23.4026 71.3305 23.9534 71.783 24.4759L72.4233 25.2828C72.6601 25.5372 72.9145 25.774 73.1601 26.0108C73.6688 26.4845 74.1512 26.9756 74.6687 27.423C75.1862 27.8703 75.7738 28.2387 76.3264 28.6334C76.6071 28.8351 76.879 29.0368 77.2035 29.2298L78.0806 29.721L79.8348 30.7033C81.0803 31.2471 82.3608 31.7208 83.6239 32.1681C82.4661 31.4664 81.2557 30.8875 80.1155 30.1771L78.4577 29.0719L77.6333 28.5193C77.3701 28.3176 77.1246 28.0896 76.8702 27.8791C76.3702 27.4493 75.8615 27.002 75.3528 26.616C74.8441 26.2301 74.4319 25.6688 73.9758 25.2039L73.2916 24.5022L72.6864 23.7216C72.2655 23.2198 71.8759 22.6926 71.5199 22.1428C70.0565 19.9634 68.9794 17.5483 68.336 15.0032C67.9989 13.7233 67.7671 12.4179 67.6431 11.1001C67.5085 9.76822 67.4879 8.42722 67.5817 7.0918Z" fill="#263238"/>
<path d="M70.2395 44.044C68.1099 43.3422 66.3457 41.824 65.3344 39.8227C64.323 37.8214 64.1472 35.5005 64.8454 33.3697C65.3399 31.8664 66.2464 30.5321 67.4617 29.5185C68.6771 28.5049 70.1525 27.8528 71.7201 27.6362C73.2877 27.4196 74.8847 27.6474 76.3293 28.2935C77.7739 28.9396 79.0082 29.9782 79.8918 31.291C80.7754 32.6039 81.2728 34.1384 81.3274 35.72C81.382 37.3016 80.9917 38.8668 80.2008 40.2375C79.4099 41.6082 78.2502 42.7295 76.8536 43.4737C75.457 44.218 73.8796 44.5553 72.3007 44.4474C71.5997 44.398 70.9075 44.2625 70.2395 44.044ZM65.9242 33.7205C65.4704 35.0967 65.4351 36.5766 65.8227 37.9729C66.2102 39.3692 67.0033 40.6191 68.1016 41.5645C69.1998 42.5099 70.5538 43.1083 71.9922 43.2839C73.4306 43.4594 74.8888 43.2044 76.1822 42.5509C77.4756 41.8975 78.5461 40.875 79.2581 39.6129C79.9702 38.3509 80.2919 36.9059 80.1825 35.461C80.073 34.016 79.5374 32.636 78.6434 31.4956C77.7494 30.3551 76.5371 29.5056 75.1601 29.0543C74.5915 28.8673 74.0026 28.7495 73.4059 28.7035C71.7786 28.5897 70.1599 29.0211 68.8051 29.9296C67.4503 30.8381 66.4367 32.1719 65.9242 33.7205Z" fill="#455A64"/>
<path d="M53.4342 40.7549C50.0223 40.1146 47.9436 35.8695 48.8031 31.291C49.1552 29.2119 50.1489 27.2951 51.6449 25.8091C52.248 25.1322 53.0159 24.6225 53.8739 24.3295C54.7319 24.0366 55.6511 23.9703 56.5423 24.137C57.4335 24.3038 58.2665 24.698 58.9605 25.2814C59.6546 25.8648 60.1861 26.6176 60.5036 27.4669C61.3624 29.3932 61.5985 31.5396 61.179 33.6065C60.3633 37.9394 57.2145 41.0443 53.9868 40.8251C53.8012 40.8147 53.6165 40.7912 53.4342 40.7549ZM52.4256 26.5898C51.1021 27.911 50.225 29.6131 49.917 31.4577C49.1715 35.4309 50.8468 39.0884 53.6447 39.6059C56.4427 40.1234 59.3196 37.3342 60.0651 33.361C60.4446 31.5294 60.2422 29.625 59.4862 27.9142C59.2154 27.245 58.7882 26.6506 58.2403 26.1805C57.6924 25.7105 57.0399 25.3786 56.3374 25.2127C56.1954 25.186 56.0519 25.1684 55.9076 25.1601C55.2599 25.1446 54.616 25.2636 54.0167 25.5097C53.4173 25.7558 52.8755 26.1236 52.4256 26.5898Z" fill="#455A64"/>
<path d="M64.8628 34.3696L65.5995 33.7644C64.7224 32.6768 62.4683 31.0103 60.4159 32.5277L60.986 33.2907C62.8191 31.9312 64.7575 34.2731 64.8628 34.3696Z" fill="#455A64"/>
<path d="M98.333 42.5091L99.2101 42.2372C99.0873 41.8074 97.9032 38.0622 95.8771 37.3254C93.9826 36.6501 81.2032 35.4748 80.6594 35.4309L80.5717 36.3782C84.238 36.7115 94.0878 37.6938 95.5526 38.2289C97.0173 38.7639 98.026 41.5004 98.333 42.5091Z" fill="#455A64"/>
<path d="M87.5621 40.8514C87.5621 40.8514 93.9561 33.4223 97.3768 35.7817C100.797 38.1411 95.4559 49.2891 91.0705 50.4468C90.5144 50.6282 89.9276 50.6964 89.3448 50.6476C88.7619 50.5987 88.1947 50.4338 87.6765 50.1624C87.1584 49.8911 86.6998 49.5188 86.3276 49.0676C85.9555 48.6163 85.6774 48.0952 85.5096 47.5349L87.5621 40.8514Z" fill="#D3766A"/>
<path d="M95.7893 38.9393C95.8056 38.9393 95.8212 38.9458 95.8328 38.9573C95.8443 38.9688 95.8507 38.9844 95.8507 39.0007C95.8507 39.017 95.8443 39.0326 95.8328 39.0441C95.8212 39.0556 95.8056 39.0621 95.7893 39.0621C92.6844 39.9392 90.8337 42.5705 89.4392 45.3246C90.439 44.3159 91.7108 43.8335 93.0791 45.0352C93.1493 45.0965 93.0791 45.2106 92.9826 45.1843C92.4772 44.9588 91.9135 44.8986 91.3719 45.0119C90.8302 45.1253 90.338 45.4066 89.9654 45.8158C89.3388 46.4982 88.7861 47.245 88.3164 48.0436C88.1498 48.298 87.6849 48.105 87.8165 47.8156C87.8149 47.7922 87.8149 47.7687 87.8165 47.7454C88.1761 43.9388 91.667 38.913 95.7893 38.9393Z" fill="#263238"/>
<path d="M110.867 183.529C110.674 182.898 91.246 120.167 87.4832 102.503C84.9221 90.5127 82.8521 75.3126 87.4832 71.0236C88.144 70.4368 88.9542 70.0444 89.8241 69.8896C90.6941 69.7348 91.59 69.8237 92.4125 70.1465L91.9126 71.8217C91.3772 71.5996 90.791 71.5296 90.2184 71.6194C89.6458 71.7091 89.109 71.9552 88.6673 72.3304C85.5624 75.1986 85.7466 86.0746 89.1672 102.152C92.9125 119.738 112.323 182.38 112.516 183.012L110.867 183.529Z" fill="#263238"/>
<path d="M99.8102 159.606L90.6829 92.6274L81.436 93.8875L90.5633 160.867L99.8102 159.606Z" fill="#A78BFA"/>
<path d="M90.5531 160.86L81.4257 93.8813L57.3004 97.1689L66.4278 164.148L90.5531 160.86Z" fill="#A78BFA"/>
<path opacity="0.1" d="M90.5531 160.86L81.4257 93.8813L57.3004 97.1689L66.4278 164.148L90.5531 160.86Z" fill="black"/>
<path d="M98.8377 152.492L97.9874 146.253L88.7406 147.513L89.5909 153.753L98.8377 152.492Z" fill="#455A64"/>
<path d="M97.4327 142.155L97.1034 139.739L87.8565 141L88.1858 143.416L97.4327 142.155Z" fill="#455A64"/>
<path d="M85.9759 163.092L76.1688 91.1245L64.6102 92.6996L74.4173 164.667L85.9759 163.092Z" fill="#C7C7C7"/>
<path d="M77.7338 102.607L76.7804 95.6107L65.2218 97.1858L66.1752 104.182L77.7338 102.607Z" fill="#A78BFA"/>
<path d="M78.4803 108.119L78.0824 105.199L66.5238 106.774L66.9217 109.694L78.4803 108.119Z" fill="#A78BFA"/>
<path d="M84.7907 154.348L83.8373 147.352L72.2787 148.927L73.2321 155.923L84.7907 154.348Z" fill="#A78BFA"/>
<path d="M52.5702 167.718L74.4186 164.741L64.602 92.7039L42.7536 95.6812L52.5702 167.718Z" fill="#EBEBEB"/>
<path d="M73.657 164.829L64.2694 98.4454L54.6744 99.8022L64.062 166.186L73.657 164.829Z" fill="#A78BFA"/>
<path d="M62.4486 165.243L53.3947 98.8025L29.0348 102.122L38.0887 168.562L62.4486 165.243Z" fill="#A78BFA"/>
<path opacity="0.1" d="M62.4486 165.243L53.3947 98.8025L29.0348 102.122L38.0887 168.562L62.4486 165.243Z" fill="black"/>
<path d="M71.06 164.064L62.006 97.6241L54.393 98.6616L63.447 165.102L71.06 164.064Z" fill="white"/>
<path d="M56.5479 102.74C59.5564 122.755 62.5648 144.796 65.0119 164.882C61.9947 144.875 58.995 122.825 56.5479 102.74Z" fill="#DBDBDB"/>
<path d="M58.0389 102.538C61.0561 122.544 64.0558 144.639 66.5029 164.68C63.4857 144.674 60.486 122.623 58.0389 102.538Z" fill="#DBDBDB"/>
<path d="M59.4949 102.336C62.5122 122.343 65.5206 144.393 67.9589 164.478C64.9417 144.472 61.942 122.422 59.4949 102.336Z" fill="#DBDBDB"/>
<path d="M61.0211 102.134C64.0383 122.141 67.0468 144.191 69.4939 164.277C66.4767 144.27 63.4682 122.176 61.0211 102.134Z" fill="#DBDBDB"/>
<path d="M3.66759 160.435C-4.15614 150.98 8.93018 140.648 17.4994 140.858C37.6113 141.349 68.1519 151.383 83.966 160.356C89.0532 163.251 78.3087 198.949 72.1515 197.817C65.7048 196.651 19.5343 179.635 3.66759 160.435Z" fill="#D3766A"/>
<path d="M120.181 163.794C120.997 168.18 116.927 170.337 116.927 170.337C118.421 171.977 119.296 174.086 119.401 176.302C119.401 180.214 113.261 181.924 113.261 181.924C114.458 183.949 115.02 186.286 114.875 188.634C114.489 192.379 108.551 194.984 108.551 194.984C108.626 197.451 107.807 199.862 106.244 201.773C101.859 206.72 91.8073 205.281 85.6325 203.527C78.2298 201.518 60.644 193.388 57.2321 192.054L64.8277 152.339C64.8277 152.339 94.4562 148.691 101.736 150.901C107.858 152.813 119.269 158.883 120.181 163.794Z" fill="#D3766A"/>
<path d="M116.822 170.127C110.788 166.619 104.025 165.014 97.3682 163.11C97.3532 163.106 97.3376 163.105 97.3222 163.107C97.3069 163.109 97.292 163.114 97.2786 163.122C97.2651 163.13 97.2534 163.14 97.2439 163.152C97.2345 163.165 97.2275 163.179 97.2235 163.194C97.2195 163.209 97.2184 163.224 97.2204 163.24C97.2224 163.255 97.2274 163.27 97.2352 163.283C97.2429 163.297 97.2532 163.308 97.2655 163.318C97.2778 163.327 97.2918 163.334 97.3068 163.338C103.946 165.207 110.139 168.355 116.691 170.478C116.737 170.495 116.789 170.494 116.834 170.473C116.879 170.452 116.914 170.415 116.932 170.368C116.949 170.322 116.948 170.27 116.927 170.225C116.906 170.18 116.869 170.144 116.822 170.127Z" fill="#263238"/>
<path d="M113.209 181.372C111.76 180.7 110.23 180.223 108.656 179.951C107.007 179.553 105.356 179.188 103.701 178.854C100.377 178.17 97.0436 177.565 93.6931 177.1C93.544 177.1 93.4738 177.293 93.6317 177.328C96.9384 178.012 100.236 178.74 103.508 179.565C105.148 179.977 106.779 180.398 108.42 180.837C109.934 181.339 111.499 181.675 113.086 181.836C113.142 181.839 113.198 181.823 113.243 181.79C113.289 181.756 113.322 181.708 113.336 181.654C113.35 181.599 113.346 181.542 113.322 181.49C113.299 181.439 113.259 181.397 113.209 181.372Z" fill="#263238"/>
<path d="M108.411 194.993C107.227 194.282 105.578 194.168 104.236 193.923C102.718 193.642 101.201 193.361 99.6924 193.046C96.6576 192.458 93.6316 191.87 90.6232 191.169C90.4741 191.169 90.4039 191.37 90.553 191.406C93.6053 192.125 96.6489 192.888 99.71 193.581C101.21 193.923 102.718 194.256 104.218 194.581C105.499 194.853 107.069 195.344 108.384 195.124C108.397 195.12 108.408 195.112 108.417 195.102C108.426 195.091 108.432 195.079 108.434 195.066C108.437 195.053 108.436 195.039 108.432 195.026C108.428 195.014 108.421 195.002 108.411 194.993Z" fill="#263238"/>
<path d="M41.0758 144.34C36.3044 143.463 31.533 142.586 26.7265 141.902C21.92 141.218 17.0784 140.735 12.3069 141.805C16.9994 140.279 21.9989 140.569 26.8142 141.262C31.6412 141.914 36.4096 142.943 41.0758 144.34Z" fill="#263238"/>
<path d="M146.766 146.358C156.835 152.997 147.494 165.075 139.372 167.461C120.331 173.065 85.3255 174.758 67.88 170.969C62.2666 169.75 68.9501 130.149 75.0635 129.351C81.4224 128.526 126.33 132.877 146.766 146.358Z" fill="#D3766A"/>
<path d="M30.6384 121.159C28.2088 125.106 31.3488 128.728 31.3488 128.728C29.2838 129.755 27.6449 131.475 26.7178 133.587C25.253 137.385 30.5682 141.341 30.5682 141.341C28.6462 142.853 27.2249 144.911 26.4897 147.243C25.4635 151.015 30.2525 155.769 30.2525 155.769C29.2545 158.135 29.1424 160.782 29.9367 163.224C32.3224 169.653 42.6459 171.995 49.2329 172.679C57.1268 173.504 77.3001 172.197 81.0716 172.179L88.5621 130.807C88.5621 130.807 61.2492 116.177 53.3553 115.607C46.6981 115.115 33.3662 116.738 30.6384 121.159Z" fill="#D3766A"/>
<path d="M31.5243 128.561C38.7077 127.386 45.8561 128.395 53.0395 128.991C53.0676 128.999 53.0924 129.015 53.1101 129.038C53.1278 129.061 53.1374 129.089 53.1374 129.118C53.1374 129.147 53.1278 129.176 53.1101 129.199C53.0924 129.222 53.0676 129.238 53.0395 129.245C45.8912 128.561 38.7077 129.307 31.5593 128.912C31.5363 128.914 31.5131 128.912 31.4909 128.906C31.4687 128.899 31.4481 128.888 31.4302 128.873C31.4122 128.859 31.3974 128.84 31.3865 128.82C31.3755 128.8 31.3687 128.777 31.3664 128.754C31.3641 128.731 31.3663 128.708 31.373 128.686C31.3797 128.664 31.3907 128.643 31.4054 128.625C31.42 128.607 31.4381 128.592 31.4585 128.581C31.4789 128.57 31.5012 128.564 31.5243 128.561Z" fill="#263238"/>
<path d="M30.8225 140.823C32.4814 140.712 34.1478 140.821 35.7781 141.148C37.5323 141.376 39.2865 141.648 40.988 141.937C44.4964 142.522 47.9551 143.191 51.3641 143.946C51.522 143.946 51.5045 144.218 51.3641 144.191C47.9084 143.621 44.435 143.095 40.9529 142.665L35.6904 142.06C34.0303 141.991 32.3829 141.738 30.7786 141.306C30.729 141.285 30.6874 141.248 30.6597 141.202C30.632 141.156 30.6197 141.102 30.6246 141.048C30.6295 140.995 30.6513 140.944 30.6868 140.904C30.7224 140.863 30.7699 140.835 30.8225 140.823Z" fill="#263238"/>
<path d="M30.3929 155.795C31.805 155.55 33.4539 156.058 34.8398 156.321L39.5761 157.199C42.7337 157.76 45.9 158.321 49.0751 158.777C49.1076 158.777 49.1389 158.79 49.1619 158.813C49.1849 158.836 49.1979 158.868 49.1979 158.9C49.1979 158.933 49.1849 158.964 49.1619 158.987C49.1389 159.01 49.1076 159.023 49.0751 159.023C45.8474 158.576 42.6109 158.146 39.427 157.707C37.8394 157.479 36.2607 157.242 34.6731 156.988C33.3311 156.778 31.6296 156.663 30.4367 155.962C30.4164 155.963 30.3961 155.957 30.3795 155.946C30.363 155.934 30.351 155.916 30.3458 155.897C30.3406 155.877 30.3425 155.856 30.3511 155.837C30.3597 155.819 30.3745 155.804 30.3929 155.795Z" fill="#263238"/>
<path d="M135.548 140.753C124.909 137.025 114.147 133.271 102.894 131.982C114.235 132.359 125.242 136.183 135.548 140.753Z" fill="#263238"/>
<path d="M31.498 120.15C30.4428 121.307 29.8579 122.816 29.8579 124.382C29.8579 125.948 30.4428 127.457 31.498 128.614L31.6296 128.781L31.4454 128.886C25.4197 132.473 25.4285 136.78 30.8139 141.016L31.2349 141.341C29.9665 142.246 28.8679 143.369 27.9896 144.656C25.2092 148.349 28.2001 152.55 30.8139 155.401L31.0858 155.699L30.8928 156.085C29.886 158.162 29.7316 160.551 30.4626 162.74C31.1935 164.93 32.7519 166.747 34.8047 167.803C45.6369 174.328 65.0032 172.522 77.4843 171.802C87.571 172.542 97.6918 172.703 107.797 172.285C111.156 172.136 114.507 171.864 117.857 171.522C114.53 172.03 111.185 172.416 107.823 172.679C97.7612 173.416 87.6616 173.493 77.5896 172.908C72.7129 173.334 67.8333 173.609 62.9508 173.732C55.627 173.828 48.1103 173.872 41.0233 171.811C33.2961 169.68 25.9635 164.347 29.9368 155.48L30.0157 156.155C28.0598 153.936 26.2266 151.48 25.8846 148.419C25.7969 145.253 28.0159 142.779 30.3578 140.981V141.639C29.2778 140.773 28.3243 139.76 27.5248 138.63C24.376 134.447 27.3581 130.614 31.2963 128.535L31.2349 128.816C30.1792 127.596 29.6233 126.023 29.6786 124.411C29.7339 122.799 30.3963 121.268 31.5331 120.124L31.498 120.15Z" fill="#263238"/>
</svg>
