<svg width="166" height="291" viewBox="0 0 166 291" fill="none" xmlns="http://www.w3.org/2000/svg">
<path d="M136.684 290.65H69.6823C67.147 263.606 64.4172 233.976 62.3804 211.36C62.3213 210.751 62.2621 210.143 62.2114 209.534C60.3267 188.702 59.0506 174.309 59.0506 174.309H121.785V174.495C122.292 178.248 130.075 238.92 136.684 290.65Z" fill="#455A64"/>
<path d="M80.221 290.65H79.1562C75.3531 261.206 72.4543 231.652 69.8598 202.08C69.7414 200.618 69.6062 199.148 69.4794 197.677C69.0484 192.649 68.6343 187.603 68.2033 182.575C68.2033 182.414 68.4315 182.414 68.4484 182.575C68.9104 187.037 69.3667 191.502 69.8175 195.97C69.9781 197.593 70.1471 199.207 70.2992 200.83C71.9895 217.732 73.6797 234.635 75.5475 251.47C76.9926 264.536 78.5223 277.601 80.221 290.65Z" fill="#263238"/>
<path d="M112.725 174.301L104.273 229.936L103.986 231.821L103.225 236.891L103.175 237.238L102.972 238.599L95.07 290.65H64.3749C59.9041 265.448 55.0362 237.931 51.1486 216C51.081 215.603 51.0134 215.222 50.9458 214.842C46.7201 191.178 43.7706 174.276 43.7706 174.276L112.725 174.301Z" fill="#263238"/>
<path d="M121.844 174.242C121.839 174.324 121.839 174.405 121.844 174.487C121.345 177.732 117.271 208.174 108.322 231.001C108.254 231.195 108.186 231.373 108.11 231.567C108.11 231.567 106.843 231.964 104.561 232.869C103.716 233.215 89.9654 238.784 89.6104 238.953C89.6104 238.953 86.5088 267.747 84.8101 290.642H21.848C23.8425 269.742 23.9608 260.825 25.8961 241.438C26.2933 237.458 23.8763 222.989 24.2481 219.287C25.8436 204.011 28.9173 188.925 33.4262 174.242H121.844Z" fill="#455A64"/>
<path d="M71.3302 191.026C71.3489 190.119 71.2552 189.214 71.0514 188.33C71.0439 188.301 71.027 188.275 71.0033 188.257C70.9795 188.239 70.9504 188.229 70.9204 188.229C70.8903 188.229 70.8612 188.239 70.8374 188.257C70.8137 188.275 70.7968 188.301 70.7894 188.33C70.6071 189.095 70.5052 189.877 70.4851 190.663C70.3921 191.559 70.2823 192.446 70.1809 193.342C69.9895 195.17 69.6704 196.984 69.2259 198.768C68.4031 202.138 66.6863 205.224 64.2565 207.701C61.83 210.085 58.9584 211.968 55.8052 213.245C52.3064 214.724 48.6301 215.281 45.0129 216.338C44.9771 216.343 44.9449 216.363 44.9235 216.392C44.9021 216.422 44.8932 216.458 44.8988 216.494C44.9044 216.53 44.9241 216.562 44.9534 216.584C44.9827 216.605 45.0193 216.614 45.0552 216.608C49.0625 216.598 53.0305 215.818 56.7433 214.31C60.0442 213.074 63.0456 211.153 65.5496 208.673C68.0674 206.135 69.8391 202.954 70.671 199.478C71.0862 197.694 71.3213 195.874 71.3725 194.043C71.4205 193.038 71.4064 192.03 71.3302 191.026Z" fill="#263238"/>
<path d="M125.064 209.644C124.582 209.104 122.3 208.58 119.993 202.537C119.111 200.104 118.457 197.595 118.041 195.041C117.77 193.494 116.849 185.964 116.781 185.922C116.714 185.879 116.731 185.922 116.722 186.023C116.646 186.539 117.238 193.435 117.483 195.193C117.805 198.145 118.48 201.047 119.494 203.838C121.683 209.104 124.565 210.49 125.064 210.143C125.173 210.084 125.131 209.729 125.064 209.644Z" fill="#263238"/>
<path d="M109.192 229.522C100.453 232.522 92.0275 236.79 83.9649 241.269C83.9083 241.307 83.8671 241.364 83.8486 241.43C83.8301 241.495 83.8355 241.566 83.864 241.628C83.8924 241.69 83.942 241.739 84.0039 241.768C84.0657 241.797 84.1358 241.803 84.2016 241.785C92.6951 238.134 101.366 234.643 109.648 230.536C109.771 230.469 109.865 230.357 109.909 230.224C109.954 230.091 109.946 229.946 109.889 229.818C109.831 229.69 109.728 229.589 109.598 229.534C109.469 229.479 109.324 229.475 109.192 229.522Z" fill="#263238"/>
<path d="M108.702 180.209C108.702 179.963 108.254 179.904 108.262 180.209C108.33 188.711 107.815 196.181 107.138 204.126C106.817 207.81 103.978 228.178 97.7744 226.682C96.7349 226.437 96.2025 225.381 96.0334 223.766C95.8391 221.823 96.5405 219.448 96.8786 217.521C97.5547 213.253 98.104 208.977 98.4505 204.667C99.1593 196.643 99.0602 188.568 98.1547 180.563C98.1608 180.534 98.1603 180.503 98.1532 180.474C98.146 180.445 98.1324 180.418 98.1134 180.394C98.0944 180.371 98.0704 180.352 98.0432 180.339C98.016 180.326 97.9862 180.319 97.9561 180.319C97.926 180.319 97.8962 180.326 97.869 180.339C97.8418 180.352 97.8178 180.371 97.7988 180.394C97.7798 180.418 97.7662 180.445 97.7591 180.474C97.7519 180.503 97.7514 180.534 97.7575 180.563C97.7575 191.694 97.5209 202.807 95.9236 213.836C95.1545 219.127 92.5431 227.105 97.9603 227.933C103.378 228.761 106.936 215.434 107.595 211.749C109.446 201.548 109.496 190.536 108.702 180.209Z" fill="#263238"/>
<path d="M97.2842 227.595C96.6152 229.228 96.0506 230.902 95.5939 232.607C95.108 233.927 94.8674 235.324 94.884 236.731C94.884 236.993 95.2728 237.018 95.4164 236.841C96.201 235.599 96.7936 234.245 97.1743 232.826C97.7575 231.28 98.366 229.742 98.8646 228.17C98.9159 227.967 98.8901 227.752 98.7921 227.567C98.6941 227.382 98.5308 227.24 98.3341 227.168C98.1373 227.097 97.921 227.101 97.727 227.179C97.533 227.258 97.3752 227.406 97.2842 227.595Z" fill="#263238"/>
<path d="M39.9169 177.445C38.2267 186.809 35.8265 199.731 34.2968 208.96C33.7136 212.881 32.8516 216.752 32.9023 220.716C33.1897 227.384 33.9418 234.035 34.5926 240.686C33.3756 253.194 32.0375 265.693 30.5782 278.184C30.0627 282.342 29.5894 286.492 29.0316 290.642C29.2598 286.467 29.5725 282.292 29.8768 278.117C30.7219 265.888 31.8459 252.34 32.97 240.779C32.2516 234.119 31.567 227.46 31.2797 220.758C31.2797 216.718 32.2262 212.678 32.9023 208.715C34.9222 198.218 37.297 187.806 39.9085 177.445H39.9169Z" fill="#263238"/>
<path d="M115.531 84.9624C126.179 95.2984 162.165 140.927 163.585 147.063C169.864 174.157 161.734 193.747 155.7 192.311C140.098 188.601 102.321 111.964 96.8194 87.8781C94.1319 76.1055 97.7068 67.6626 115.531 84.9624Z" fill="#FFC4C0"/>
<path d="M110.02 132.907L134.301 104.654C134.301 104.654 119.57 86.0611 107.865 77.4323C98.9322 70.8572 94.5798 75.3787 95.577 82.6721C98.9237 106.978 110.02 132.907 110.02 132.907Z" fill="#A78BFA"/>
<path d="M128.867 101.696C124.819 105.778 114.161 117.179 108.203 125.486C108.203 125.537 108.339 125.698 108.381 125.655C114.381 119.486 125.444 106.353 129.12 101.924C129.188 101.848 128.943 101.62 128.867 101.696Z" fill="#263238"/>
<path d="M123.314 184.941L29.0401 184.857C28.7358 184.485 54.0221 84.1596 74.3813 69.767C79.4521 66.2006 95.3996 66.5386 100.022 74.6688C108.685 89.9403 124.497 182.702 123.314 184.941Z" fill="#EBEBEB"/>
<path d="M16.8063 242.86L97.5375 219.757L94.3217 208.519L13.5905 231.623L16.8063 242.86Z" fill="#A78BFA"/>
<path d="M13.5889 231.622L94.3201 208.518L80.8802 161.555L0.148993 184.659L13.5889 231.622Z" fill="#A78BFA"/>
<path opacity="0.1" d="M13.5889 231.622L94.3201 208.518L80.8802 161.555L0.148993 184.659L13.5889 231.622Z" fill="black"/>
<path d="M16.4715 241.69L97.2027 218.587L94.6542 209.681L13.923 232.785L16.4715 241.69Z" fill="white"/>
<path d="M89.9654 213C65.8454 220.166 38.7168 227.933 14.4531 234.601C38.5731 227.434 65.7018 219.668 89.9654 213Z" fill="#DBDBDB"/>
<path d="M90.464 214.749C66.344 221.916 39.2153 229.682 14.9517 236.35C39.0717 229.184 66.2088 221.417 90.464 214.749Z" fill="#DBDBDB"/>
<path d="M90.9627 216.49C66.8511 223.665 39.714 231.432 15.4504 238.1C39.5704 230.925 66.7075 223.167 90.9627 216.49Z" fill="#DBDBDB"/>
<path d="M91.4613 218.239C67.3497 225.406 40.2126 233.173 15.9574 239.849C40.069 232.674 67.2061 224.916 91.4613 218.239Z" fill="#DBDBDB"/>
<path d="M61.2902 75.9872C40.162 94.58 13.3038 129.061 13.2024 137.977C12.9573 160.323 17.2759 183.69 20.8085 194.939C23.1242 202.41 62.2199 186.015 60.0225 179.406C56.7857 169.577 52.5854 143.513 51.3769 139.685C50.7346 137.639 63.327 110.866 70.8148 92.6024C78.7168 73.0715 68.0766 70.0037 61.2902 75.9872Z" fill="#FFC4C0"/>
<path d="M74.9052 233.688C71.3049 236.511 67.4004 233.832 67.4004 233.832C66.6241 235.962 65.1299 237.755 63.1748 238.903C59.6168 240.762 55.1376 235.987 55.1376 235.987C53.8637 238.039 52.0029 239.661 49.7964 240.644C46.213 242.08 41.007 237.914 41.007 237.914C38.7987 239.151 36.219 239.553 33.7389 239.046C27.1638 237.424 23.7072 227.561 22.2959 221.138C20.6056 213.447 19.6337 193.578 19.2281 189.868L58.9491 177.893C58.9491 177.893 76.3673 203.111 77.8124 210.785C79.0379 217.25 78.9364 230.519 74.9052 233.688Z" fill="#FFC4C0"/>
<path d="M67.5442 233.646C67.8991 226.462 66.1075 219.566 64.713 212.577C64.7063 212.546 64.6873 212.518 64.6604 212.501C64.6335 212.483 64.6007 212.477 64.5693 212.484C64.5379 212.491 64.5105 212.51 64.4931 212.537C64.4756 212.564 64.4696 212.596 64.4764 212.628C65.9384 219.558 66.0145 226.691 67.1977 233.671C67.2089 233.711 67.2333 233.745 67.2667 233.768C67.3001 233.791 67.3406 233.802 67.3812 233.799C67.4218 233.796 67.4602 233.78 67.4899 233.752C67.5196 233.724 67.5387 233.686 67.5442 233.646Z" fill="#263238"/>
<path d="M55.5855 235.717C55.5155 234.078 55.2313 232.456 54.7404 230.891C54.3094 229.201 53.8953 227.51 53.3797 225.82C52.4163 222.482 51.3852 219.161 50.2443 215.873C50.1936 215.721 49.9654 215.763 50.0077 215.924C50.9542 219.253 51.8585 222.6 52.6698 225.972C53.0755 227.663 53.4671 229.353 53.8446 231.043C54.1042 232.663 54.5377 234.249 55.1376 235.776C55.162 235.817 55.1981 235.851 55.2414 235.872C55.2848 235.893 55.3334 235.901 55.3812 235.895C55.429 235.889 55.4739 235.868 55.5103 235.837C55.5466 235.805 55.5728 235.763 55.5855 235.717Z" fill="#263238"/>
<path d="M40.9479 237.796C41.0324 236.384 40.3479 234.829 39.9337 233.494C39.4689 231.981 39.0041 230.46 38.5477 228.947C37.6434 225.905 36.7392 222.871 35.9447 219.803C35.934 219.775 35.9136 219.751 35.8872 219.737C35.8608 219.722 35.8301 219.718 35.8006 219.724C35.7711 219.73 35.7448 219.746 35.7263 219.77C35.7078 219.794 35.6983 219.823 35.6996 219.854C36.5025 222.972 37.2547 226.099 38.0745 229.218C38.4801 230.747 38.9196 232.268 39.3084 233.798C39.6718 235.091 39.9675 236.756 40.7958 237.846C40.8064 237.861 40.8213 237.871 40.8382 237.876C40.8551 237.882 40.8733 237.881 40.8901 237.876C40.9069 237.87 40.9216 237.859 40.9319 237.845C40.9423 237.831 40.9479 237.813 40.9479 237.796Z" fill="#263238"/>
<path d="M27.206 108.491L63.4114 117.229C63.4114 117.229 73.2656 95.6449 75.6066 81.303C77.3898 70.3163 71.3809 68.5331 65.3467 72.7503C45.2326 86.7964 27.206 108.491 27.206 108.491Z" fill="#A78BFA"/>
<path d="M63.572 111.043C58.0956 109.302 43.0945 105.009 32.9783 103.488C32.9191 103.488 32.8515 103.707 32.9107 103.724C41.1338 106.26 57.8758 110.122 63.479 111.381C63.5889 111.407 63.6481 111.077 63.572 111.043Z" fill="#263238"/>
<path d="M76.6208 69.0909C75.9255 70.0603 75.4991 71.1963 75.3848 72.3838C75.2705 73.5712 75.4724 74.7678 75.9701 75.8519C77.9646 80.5508 86.3314 89.8219 95.6531 88.5965C99.9971 88.0302 100.521 82.4017 100.09 78.6578C99.659 74.9138 96.7095 70.5699 92.3571 68.5162C88.0047 66.4626 78.3956 66.7414 76.6208 69.0909Z" fill="#A78BFA"/>
<path d="M96.6927 85.5709C91.512 88.5711 81.0071 81.641 76.773 74.8716C76.4856 74.4067 76.0715 55.3491 75.8433 51.5037C75.7926 50.7178 100.293 55.9491 100.293 55.9491C100.293 55.9491 98.3914 64.1469 98.8224 70.8403C98.8588 71.3715 98.9465 71.8979 99.0844 72.4122C99.0844 72.4799 99.0844 72.5644 99.1351 72.6658C99.7943 75.6322 99.3548 84.0328 96.6927 85.5709Z" fill="#FFC4C0"/>
<path d="M99.1435 72.6743C98.3295 72.8301 97.5042 72.9206 96.6758 72.9447C83.9988 73.4011 78.5731 58.1972 76.7814 51.47C81.2353 51.8841 100.301 55.9407 100.301 55.9407C100.301 55.9407 98.3998 64.1385 98.8393 70.8488C98.8681 71.3747 98.9531 71.896 99.0928 72.4038C99.0928 72.4799 99.1435 72.6066 99.1435 72.6743Z" fill="#263238"/>
<path d="M70.4091 20.8932C68.161 29.7164 73.9417 54.6308 80.3901 59.9382C89.7456 67.6458 104.468 67.7303 110.865 56.6168C117.06 45.8499 108.955 13.5153 101.806 8.74872C91.2922 1.7257 73.7389 7.85288 70.4091 20.8932Z" fill="#FFC4C0"/>
<path d="M92.8389 36.0971C92.8389 36.0295 92.7206 36.2069 92.7375 36.2745C93.177 37.9648 93.3882 39.9255 91.9938 40.8213C91.9515 40.8213 91.9938 40.9397 91.9938 40.9143C93.8277 40.2382 93.515 37.6014 92.8389 36.0971Z" fill="#263238"/>
<path d="M90.9373 34.6773C88.1906 35.0829 89.2048 40.5509 91.7824 40.1791C94.3601 39.8072 93.2276 34.3392 90.9373 34.6773Z" fill="#263238"/>
<path d="M102.71 33.9927C102.71 33.9251 102.854 34.0519 102.862 34.1195C103.124 35.8098 103.707 37.7282 105.347 38.0071C105.397 38.0071 105.414 38.1 105.347 38.1085C103.437 38.193 102.685 35.6492 102.71 33.9927Z" fill="#263238"/>
<path d="M103.893 31.9475C106.572 31.2291 107.806 36.6549 105.321 37.3141C102.837 37.9733 101.679 32.5391 103.893 31.9475Z" fill="#263238"/>
<path d="M89.1794 33.4434C89.8834 33.1528 90.5717 32.8255 91.2415 32.463C92.0153 32.2185 92.6867 31.7253 93.1515 31.0601C93.2577 30.8224 93.2813 30.5559 93.2185 30.3032C93.1557 30.0505 93.0102 29.8261 92.805 29.6657C92.3581 29.4026 91.8489 29.2639 91.3303 29.2639C90.8117 29.2639 90.3025 29.4026 89.8555 29.6657C88.865 30.0576 88.0591 30.8092 87.599 31.77C87.5009 31.9949 87.4711 32.2436 87.5132 32.4852C87.5554 32.7269 87.6677 32.9508 87.8361 33.1291C88.0045 33.3075 88.2217 33.4323 88.4605 33.4882C88.6994 33.5441 88.9494 33.5285 89.1794 33.4434Z" fill="#263238"/>
<path d="M105.49 28.7951C104.73 28.784 103.971 28.7304 103.217 28.6345C102.406 28.6932 101.598 28.4822 100.918 28.0345C100.733 27.8511 100.614 27.6117 100.578 27.3534C100.543 27.0951 100.594 26.8325 100.724 26.6062C101.047 26.2002 101.473 25.8875 101.957 25.7004C102.441 25.5132 102.967 25.4583 103.479 25.5414C104.545 25.5428 105.572 25.9473 106.352 26.6738C106.521 26.8481 106.636 27.0677 106.683 27.306C106.729 27.5442 106.705 27.7909 106.614 28.0157C106.522 28.2406 106.367 28.434 106.168 28.5724C105.968 28.7108 105.733 28.7882 105.49 28.7951Z" fill="#263238"/>
<path d="M94.267 51.5291C94.7488 51.8502 95.2559 52.3235 95.8812 52.2559C96.5083 52.1266 97.1013 51.8675 97.6222 51.4953C97.6324 51.49 97.6439 51.4878 97.6553 51.4889C97.6667 51.49 97.6775 51.4944 97.6865 51.5015C97.6954 51.5087 97.7021 51.5183 97.7057 51.5292C97.7093 51.5401 97.7096 51.5518 97.7067 51.5629C97.5285 51.942 97.2501 52.2651 96.9015 52.4975C96.553 52.7299 96.1476 52.8626 95.7291 52.8813C95.3689 52.8553 95.0243 52.7236 94.7386 52.5026C94.453 52.2816 94.2389 51.9811 94.1234 51.6389C94.1149 51.6198 94.113 51.5984 94.1182 51.5782C94.1234 51.5579 94.1352 51.54 94.1518 51.5273C94.1684 51.5146 94.1888 51.5078 94.2097 51.5082C94.2306 51.5085 94.2508 51.5159 94.267 51.5291Z" fill="#263238"/>
<path d="M95.1038 46.1288C95.66 46.7169 96.331 47.1846 97.0753 47.503C97.8196 47.8213 98.6213 47.9836 99.4308 47.9796C100.14 47.9821 100.846 47.8825 101.527 47.6838C101.66 47.6584 101.791 47.6187 101.916 47.5655C102.036 47.5294 102.154 47.4871 102.27 47.4387C102.358 47.4056 102.432 47.3445 102.481 47.265C102.529 47.1855 102.551 47.0921 102.541 46.9992C102.528 46.9418 102.511 46.8853 102.49 46.8302V46.6781C102.287 45.3681 101.789 43.4074 101.789 43.4074C102.313 43.5596 104.941 44.2019 104.781 43.5258C103.394 37.9479 101.848 31.7447 99.2956 26.4879C99.2806 26.4497 99.2514 26.4186 99.2142 26.4012C99.1769 26.3838 99.1344 26.3813 99.0954 26.3944C99.0564 26.4074 99.0238 26.4348 99.0045 26.4711C98.9851 26.5074 98.9804 26.5497 98.9914 26.5894C100.115 32.0067 102.177 37.1788 103.386 42.6046C102.449 42.3601 101.481 42.252 100.513 42.2834C100.335 42.3679 101.535 46.0527 101.586 46.6443V46.7119C99.4477 47.3965 97.673 47.0415 95.2728 45.9682C95.0953 45.8752 94.977 46.0104 95.1038 46.1288Z" fill="#263238"/>
<path d="M100.631 47.1682C100.092 48.2278 99.2885 49.1302 98.2984 49.7881C97.7461 50.1348 97.0981 50.2975 96.4475 50.253C95.0277 50.1516 94.7573 48.9177 94.8164 47.8105C94.8508 47.2205 94.9528 46.6363 95.1207 46.0696C96.7938 47.0127 98.7241 47.3976 100.631 47.1682Z" fill="#263238"/>
<path d="M98.2984 49.7882C97.7461 50.1349 97.0981 50.2976 96.4475 50.253C95.0277 50.1516 94.7573 48.9177 94.8164 47.8106C96.287 47.6923 97.9012 48.4106 98.2984 49.7882Z" fill="#FF98B9"/>
<path d="M74.3559 44.9202C78.835 43.5764 77.1025 31.939 77.1025 31.939C77.1025 31.939 82.4775 28.8965 82.6297 18.0535C82.6297 18.0535 88.1737 27.8317 106.851 22.5158C106.906 19.0518 105.871 15.6581 103.893 12.8137C106.294 15.801 108.445 18.981 110.325 22.3214C110.325 22.3214 112.37 5.75688 97.9688 2.31721C92.2472 0.948099 84.1425 2.68906 72.6825 10.7685C72.6825 10.7685 69.1245 3.70322 67.8484 4.91175C66.5722 6.12029 70.3837 12.6278 70.3837 12.6278C70.3837 12.6278 64.6622 11.7827 63.9269 13.0926C63.2931 14.1997 68.7611 14.7829 68.7611 14.7829C68.7611 14.7829 60.8338 18.7719 63.7495 28.1782C66.4623 36.7985 72.0994 45.5625 74.3559 44.9202Z" fill="#263238"/>
<path d="M70.2992 14.4026C67.8799 14.7034 65.6538 15.878 64.0398 17.7052C62.4258 19.5324 61.5351 21.8864 61.5352 24.3244C61.7235 27.1615 62.5621 29.9173 63.9861 32.3785C65.4271 34.9726 67.1968 37.37 69.2513 39.5113C69.3611 39.6297 69.5386 39.4353 69.4203 39.317C67.6138 37.2842 66.1289 34.9871 65.0171 32.5052C63.8292 30.1887 63.0162 27.6985 62.6085 25.1273C62.3533 22.7315 63.0074 20.3272 64.4412 18.391C65.875 16.4547 67.9839 15.1277 70.3499 14.673C70.502 14.6476 70.4598 14.3772 70.2992 14.4026Z" fill="#263238"/>
<path d="M86.6779 1.40451C83.5469 2.64827 80.5921 4.29616 77.8885 6.30626C75.2411 8.10793 72.9155 10.3421 71.0092 12.9152C70.9868 12.941 70.9755 12.9746 70.9779 13.0086C70.9803 13.0427 70.9961 13.0745 71.0219 13.0969C71.0476 13.1193 71.0812 13.1305 71.1153 13.1282C71.1494 13.1258 71.1811 13.11 71.2036 13.0842C75.4292 8.73178 80.8887 5.47803 86.3652 2.94265C91.4867 0.559382 97.842 -0.43787 102.625 3.2807C102.702 3.33986 102.803 3.22999 102.727 3.16238C98.3491 -0.83508 91.9008 -0.589994 86.6779 1.40451Z" fill="#263238"/>
<path d="M77.3307 41.3369C77.3307 41.3369 71.1106 33.6039 67.561 35.8773C64.0115 38.1507 69.0738 49.6276 73.477 50.946C74.0343 51.1543 74.628 51.2477 75.2224 51.2206C75.8168 51.1936 76.3996 51.0465 76.9357 50.7883C77.4718 50.5301 77.9501 50.1662 78.3419 49.7184C78.7336 49.2705 79.0308 48.7481 79.2154 48.1824L77.3307 41.3369Z" fill="#FFC4C0"/>
<path d="M69.0907 39.0973C69.075 39.0973 69.06 39.1035 69.0489 39.1146C69.0378 39.1257 69.0316 39.1408 69.0316 39.1564C69.0316 39.1721 69.0378 39.1872 69.0489 39.1983C69.06 39.2094 69.075 39.2156 69.0907 39.2156C72.2092 40.2382 73.9925 42.9426 75.3109 45.7823C74.3305 44.7174 73.0628 44.185 71.6346 45.3597C71.5585 45.4188 71.6346 45.5456 71.7275 45.5203C72.2477 45.3126 72.8197 45.2727 73.3637 45.406C73.9076 45.5394 74.3964 45.8393 74.7615 46.264C75.3736 46.9729 75.9064 47.7465 76.3504 48.5712C76.511 48.8332 76.9927 48.6557 76.8659 48.3515V48.2838C76.6377 44.4131 73.2741 39.2072 69.0907 39.0973Z" fill="#263238"/>
<path d="M99.0337 73.2321C98.7379 70.8657 105.026 74.373 105.795 77.838C106.564 81.303 123.542 147.916 123.542 147.916C123.542 147.916 113.95 137.191 108.271 117.635C103.927 102.744 99.2957 75.3449 99.0337 73.2321Z" fill="#455A64"/>
<path d="M150.696 194.094C140.073 193.384 130.903 182.803 113.756 144.231C111.381 138.89 142.727 113.46 145.55 119.03C149.116 126.044 163.23 152.59 163.864 154.745C169.289 172.974 163.027 194.914 150.696 194.094Z" fill="#FFC4C0"/>
<path d="M94.4784 90.0079C91.5289 92.8559 93.422 96.6675 93.422 96.6675C91.4138 97.0896 89.6184 98.2057 88.3512 99.8198C86.2553 102.752 89.9485 107.325 89.9485 107.325C87.9669 108.205 86.2948 109.659 85.1482 111.5C83.4579 114.517 86.4919 119.663 86.4919 119.663C85.1171 121.476 84.4393 123.723 84.5819 125.993C85.2158 132.045 92.8896 137.538 98.1716 140.183C103.454 142.828 114.677 146.37 114.677 146.37L145.71 119.41C145.71 119.41 142.625 108.66 134.723 101.485C128.089 95.4843 119.063 91.5291 115.243 90.2445C109.615 88.3599 97.7998 86.8048 94.4784 90.0079Z" fill="#FFC4C0"/>
<path d="M93.9291 96.2703C100.369 96.8365 106.285 99.2789 112.328 101.383C112.356 101.393 112.378 101.414 112.391 101.441C112.404 101.468 112.405 101.499 112.395 101.527C112.385 101.555 112.364 101.578 112.337 101.591C112.31 101.603 112.28 101.605 112.251 101.595C106.268 99.431 99.9295 98.4845 93.8699 96.5238C93.8512 96.5055 93.8375 96.4827 93.8301 96.4576C93.8228 96.4324 93.8221 96.4058 93.828 96.3804C93.834 96.3549 93.8464 96.3313 93.8641 96.312C93.8818 96.2928 93.9042 96.2784 93.9291 96.2703Z" fill="#263238"/>
<path d="M90.295 106.944C91.7589 107.208 93.1804 107.668 94.5206 108.313C95.963 108.877 97.3997 109.485 98.8308 110.139C101.687 111.407 104.504 112.745 107.282 114.153C107.4 114.221 107.341 114.424 107.206 114.365C104.358 113.105 101.493 111.888 98.5941 110.756C97.1405 110.192 95.6841 109.629 94.2248 109.066C92.8162 108.634 91.4588 108.05 90.1766 107.325C90.1457 107.296 90.1234 107.26 90.1125 107.22C90.1015 107.179 90.1022 107.137 90.1146 107.097C90.1271 107.057 90.1506 107.021 90.1826 106.994C90.2145 106.967 90.2535 106.95 90.295 106.944Z" fill="#263238"/>
<path d="M86.6271 119.714C87.8948 119.807 89.1625 120.61 90.3372 121.142C91.6218 121.751 92.9148 122.342 94.2079 122.934C96.8024 124.117 99.397 125.292 102.025 126.382C102.152 126.441 102.084 126.644 101.949 126.593C99.2702 125.503 96.5742 124.447 93.9121 123.323C92.605 122.759 91.295 122.196 89.9822 121.633C88.7567 121.232 87.6121 120.617 86.6017 119.816C86.5922 119.799 86.5895 119.779 86.5942 119.76C86.5989 119.741 86.6107 119.725 86.6271 119.714Z" fill="#263238"/>
<path d="M145.533 119.038C151.305 128.689 157.086 138.569 161.134 149.082C156.063 139.178 150.232 129.104 145.533 119.038Z" fill="#263238"/>
</svg>
