<svg width="172" height="291" viewBox="0 0 172 291" fill="none" xmlns="http://www.w3.org/2000/svg">
<path d="M98.9667 165.224C98.2351 166.305 30.5627 174.335 27.262 173.646C27.1005 173.61 26.9435 173.556 26.7942 173.485C22.6683 171.911 2.90679 156.267 1.40958 154.948C-2.27391 151.681 10.0866 125.914 14.306 121.49C17.1133 118.547 22.6003 117.075 22.6003 117.075C22.6003 117.075 35.5988 77.3991 44.5991 67.1823C46.8534 64.6302 88.886 60.598 96.6613 63.4733C99.9875 64.7068 107.814 65.2853 108.129 66.7059C108.486 68.7986 99.7153 164.118 98.9667 165.224Z" fill="#37474F"/>
<path d="M98.9667 165.224C98.2351 166.305 30.5628 174.335 27.2621 173.646C27.1005 173.61 26.9436 173.556 26.7942 173.484C32.0089 155.424 56.5683 70.6361 57.3595 70.0406C58.1506 69.4451 98.4478 66.7314 108.129 66.7229C108.486 68.7986 99.7153 164.118 98.9667 165.224Z" fill="#263238"/>
<path d="M66.2151 66.4422C65.4836 65.8553 64.4712 60.581 65.5771 58.6584C66.8276 56.4977 83.0503 56.3275 84.1307 58.0119C85.2111 59.6963 86.2319 64.962 85.7725 65.3278C85.3131 65.6936 82.642 66.1785 82.2336 65.6511C81.8253 65.1237 81.383 61.3976 81.0852 60.9978C80.7875 60.598 69.4137 60.7171 69.065 61.3211C68.7162 61.9251 70.1283 65.6511 69.6945 66.0169C69.2606 66.3827 66.9212 67.0207 66.2151 66.4422Z" fill="#37474F"/>
<path d="M109.286 76.5654C123.594 96.1313 159.799 173.17 162.734 178.963C166.597 186.619 125.797 197.78 123.713 192.276C122.361 188.695 116.465 167.657 111.914 149.742C106.07 126.773 99.426 104.204 96.4061 82.92C94.0752 66.4932 102.574 67.3694 109.286 76.5654Z" fill="#F7A9A0"/>
<path d="M137.92 204.424C136.218 202.723 135.283 203.573 135.768 207.878C136.252 212.182 141.799 228.822 135.836 230.268C129.872 231.714 122.369 208.15 122.122 200.902C121.876 193.654 124.003 181.889 124.003 181.889C126.376 186.185 133.147 196.053 137.92 204.424Z" fill="#F7A9A0"/>
<path d="M156.907 167.496C163.602 179.958 172.169 195.288 171.19 210.881C171.122 212.616 170.475 214.278 169.353 215.602C169.038 222.595 165.635 224.543 165.635 224.543C163.347 230.974 159.604 232.488 159.604 232.488C159.604 232.488 159.145 240.698 154.134 241.242C148.519 241.872 150.263 230.183 147.328 223.224C140.523 207.206 126.435 186.321 124.028 181.898L156.907 167.496Z" fill="#F7A9A0"/>
<path d="M152.007 201.438C153.904 206.194 155.895 210.796 157.111 215.798C158.481 221.276 158.872 226.772 159.425 232.352C159.42 232.372 159.42 232.393 159.424 232.414C159.428 232.434 159.437 232.453 159.45 232.469C159.462 232.486 159.479 232.499 159.497 232.508C159.516 232.517 159.536 232.522 159.557 232.522C159.578 232.522 159.598 232.517 159.617 232.508C159.636 232.499 159.652 232.486 159.665 232.469C159.677 232.453 159.686 232.434 159.69 232.414C159.695 232.393 159.694 232.372 159.689 232.352C160.31 222.093 157.256 210.277 152.186 201.353C152.101 201.132 151.914 201.2 152.007 201.438Z" fill="#263238"/>
<path d="M161.084 195.934C162.675 200.673 165.423 209.001 165.474 224.543C165.478 224.552 165.484 224.56 165.492 224.565C165.501 224.571 165.511 224.574 165.52 224.574C165.53 224.574 165.54 224.571 165.548 224.565C165.557 224.56 165.563 224.552 165.567 224.543C166.843 214.772 165.37 204.838 161.314 195.858C161.186 195.577 160.965 195.628 161.084 195.934Z" fill="#263238"/>
<path d="M166.018 193.076C168.417 201.217 168.902 206.687 169.319 215.56C169.323 215.569 169.329 215.576 169.338 215.582C169.346 215.587 169.356 215.59 169.365 215.59C169.375 215.59 169.385 215.587 169.393 215.582C169.402 215.576 169.408 215.569 169.412 215.56C169.999 205.402 169.064 201.651 166.282 192.957C166.188 192.659 165.924 192.77 166.018 193.076Z" fill="#263238"/>
<path d="M119.902 187.87L162.828 173.408C162.828 173.408 118.124 87.9221 112.144 79.3302C104.411 68.2202 93.6669 62.6737 95.9808 81.2612C99.375 107.701 119.902 187.87 119.902 187.87Z" fill="#A78BFA"/>
<path d="M155.095 166.934C152.9 167.785 150.621 168.525 148.375 169.274C146.129 170.022 143.875 170.762 141.612 171.46C137.078 172.864 132.552 174.25 128.001 175.569C126.759 175.926 125.508 176.283 124.258 176.624C123.007 176.964 121.535 177.185 120.2 177.559C120.183 177.554 120.168 177.543 120.158 177.528C120.147 177.514 120.141 177.496 120.141 177.479C120.141 177.461 120.147 177.443 120.158 177.429C120.168 177.414 120.183 177.403 120.2 177.398C121.297 177.032 122.361 176.547 123.458 176.122C124.555 175.696 125.746 175.348 126.861 174.973C129.129 174.253 131.398 173.538 133.666 172.83C138.183 171.417 142.726 170.031 147.277 168.772C149.829 168.057 152.441 167.257 155.053 166.705C155.08 166.705 155.107 166.715 155.128 166.733C155.149 166.75 155.163 166.775 155.168 166.802C155.173 166.829 155.169 166.857 155.155 166.881C155.142 166.905 155.121 166.924 155.095 166.934Z" fill="#263238"/>
<path opacity="0.1" d="M153.819 176.453L119.894 187.87C119.894 187.87 99.3835 107.701 96.0232 81.2782C94.6621 70.517 97.7246 67.8459 101.978 69.6578C111.795 89.666 142.701 152.719 153.819 176.453Z" fill="black"/>
<path d="M62.7954 152.345L63.0336 153.196C63.0336 153.306 63.0931 153.417 63.1186 153.544V153.646C63.1531 153.75 63.1815 153.855 63.2037 153.961C63.2888 154.284 63.3823 154.659 63.5014 155.067C63.5525 155.28 63.612 155.501 63.6631 155.739C64.182 157.721 64.9136 160.503 65.8153 163.957C65.9174 164.365 66.0195 164.808 66.1301 165.199C66.1606 165.288 66.1862 165.379 66.2066 165.471C66.9127 168.193 67.7124 171.264 68.5971 174.641C68.7842 175.339 68.9714 176.054 69.15 176.777C69.8986 179.678 70.7068 182.774 71.5575 186.041C71.617 186.236 71.6681 186.432 71.7191 186.636C73.2589 192.591 74.9432 199.09 76.7212 205.93C81.9359 226.074 87.9333 249.213 93.3692 270.395C93.5563 271.11 93.735 271.824 93.9221 272.539C93.9987 272.794 94.0582 273.058 94.1178 273.322C94.2794 273.943 94.441 274.564 94.5857 275.176C94.6792 275.516 94.7643 275.865 94.8579 276.214C95.0025 276.758 95.1471 277.311 95.2832 277.856C95.8447 280.033 96.3976 282.194 96.9846 284.321C97.1037 284.797 97.2143 285.257 97.3419 285.716C97.7587 287.366 98.1926 288.983 98.5924 290.582H166.282C158.889 264.211 149.098 231.697 140.863 204.807C131.786 175.101 124.589 152.277 124.589 152.277L62.7954 152.345Z" fill="#37474F"/>
<path opacity="0.1" d="M123.092 152.353C118.839 185.53 103.288 240.655 97.3249 285.784C83.3906 231.102 62.7954 152.353 62.7954 152.353H123.092Z" fill="black"/>
<path d="M70.4771 152.353C83.6798 197.95 95.9212 244.356 106.912 290.531C93.7009 244.942 81.4765 198.529 70.4771 152.353Z" fill="#263238"/>
<path d="M27.5598 290.65H96.3806L103.322 214.164C107.031 212.463 113.08 209.613 113.08 209.613C113.08 209.613 117.333 187.325 119.885 171.783C121.484 162.145 122.794 154.131 123.05 152.626C123.05 152.523 123.05 152.455 123.05 152.413H43.0849C43.0849 152.413 35.3095 186.236 34.6375 197.738C34.4163 201.43 35.6328 212.497 35.6328 212.497L27.5598 290.65Z" fill="#37474F"/>
<path d="M48.759 190.745C49.5586 190.481 63.3143 191.596 69.9156 185.922C75.947 180.732 78.9244 165.012 79.0435 164.995C79.0885 164.987 79.1348 164.994 79.1759 165.013C79.217 165.033 79.251 165.065 79.2732 165.105C79.4689 165.454 79.0775 177.866 71.8382 186.526C66.734 192.608 50.4688 191.698 48.7249 191.272C48.4187 191.204 48.5293 190.822 48.759 190.745Z" fill="#263238"/>
<path d="M132.365 183.506C131.71 182.97 128.588 182.502 125.559 176.564C124.412 174.221 123.555 171.747 123.007 169.197C122.658 167.674 121.527 160.248 121.433 160.214C121.34 160.18 121.357 160.214 121.348 160.316C121.497 163.343 121.798 166.361 122.25 169.359C122.655 172.317 123.537 175.19 124.862 177.866C127.788 183.029 131.727 184.356 132.407 184.007C132.509 183.939 132.458 183.582 132.365 183.506Z" fill="#263238"/>
<path d="M114.909 208.456C107.351 211.206 100.048 214.607 93.0799 218.622C93.0201 218.649 92.9735 218.699 92.9504 218.76C92.9273 218.822 92.9295 218.89 92.9566 218.95C92.9836 219.009 93.0333 219.056 93.0948 219.079C93.1562 219.102 93.2243 219.1 93.2841 219.073C100.634 215.908 108.129 212.888 115.3 209.333C115.416 209.281 115.507 209.185 115.552 209.066C115.598 208.947 115.594 208.815 115.542 208.699C115.49 208.583 115.395 208.492 115.276 208.446C115.157 208.401 115.025 208.404 114.909 208.456Z" fill="#263238"/>
<path d="M117.248 157.993C117.248 157.738 116.78 157.687 116.78 157.993C116.84 166.721 116.278 174.403 115.547 182.561C115.206 186.347 112.144 207.282 105.594 205.76C104.488 205.504 103.892 204.424 103.756 202.765C103.552 200.766 104.301 198.325 104.607 196.342C105.338 191.961 105.925 187.563 106.308 183.14C107.076 174.898 106.987 166.599 106.044 158.376C106.044 158.32 106.022 158.266 105.982 158.226C105.942 158.186 105.888 158.164 105.832 158.164C105.775 158.164 105.721 158.186 105.681 158.226C105.642 158.266 105.619 158.32 105.619 158.376C105.619 169.809 105.33 181.226 103.62 192.557C102.769 198.001 100.056 206.168 105.747 207.019C111.438 207.869 115.3 194.139 116.006 190.388C117.997 179.916 118.073 168.601 117.248 157.993Z" fill="#263238"/>
<path d="M105.764 206.287C105.177 207.7 104.682 209.149 104.283 210.626C103.862 211.766 103.654 212.974 103.671 214.19C103.671 214.42 104.003 214.445 104.13 214.292C104.807 213.217 105.32 212.047 105.653 210.821C106.155 209.477 106.682 208.142 107.142 206.789C107.208 206.606 107.2 206.405 107.117 206.228C107.035 206.052 106.886 205.916 106.704 205.849C106.521 205.783 106.319 205.791 106.143 205.873C105.967 205.956 105.83 206.104 105.764 206.287Z" fill="#263238"/>
<path d="M48.2315 153.255C47.3808 159.108 43.3826 186.432 42.7361 191.596C42.4043 194.148 42.0215 196.742 41.8854 199.209C41.9449 204.314 42.8892 209.511 43.6973 214.522C40.6519 239.081 37.079 266.04 33.2849 290.497C35.6668 266.312 38.976 237.856 42.064 214.683C41.2899 209.494 40.4137 204.433 40.3626 199.141C40.4307 197.874 40.6093 196.47 40.771 195.211C42.7956 181.217 45.4498 167.079 48.2145 153.221L48.2315 153.255Z" fill="#263238"/>
<path d="M134.202 180.009L36.1603 181.039C35.9391 180.809 36.3049 177.032 36.4751 175.526C36.4751 175.245 31.5155 171.052 32.3152 166.696C36.9685 141.175 57.6317 88.1943 71.4469 69.8279C78.3886 60.615 97.0527 61.321 104.054 73.1712C113.718 89.581 130.153 140.597 135.734 166.424C136.389 169.435 133.181 174.854 133.181 175.781L134.202 180.009Z" fill="#A78BFA"/>
<path opacity="0.1" d="M96.4997 168.653C106.444 168.236 116.321 167.802 126.206 167.513L125.704 168.159L122.208 153.017L122.565 153.425C120.698 152.648 119.05 151.424 117.767 149.861C116.523 148.322 115.525 146.6 114.807 144.757C114.072 142.955 113.503 141.09 113.105 139.185C112.685 137.288 112.4 135.363 112.254 133.425L112.824 133.944L89.3964 134.608L89.8643 134.183L89.2688 137.849C89.0477 139.066 88.6819 140.265 88.4181 141.473C88.1544 142.681 87.5674 143.829 87.2017 145.003L86.351 146.705C86.2149 146.985 86.0873 147.266 85.9341 147.555L85.4322 148.347C84.1602 150.539 82.3396 152.362 80.1494 153.638C77.9434 154.904 75.3759 155.392 72.859 155.025L73.1142 154.888L66.4618 169.929L96.4997 168.653ZM72.6804 154.693L72.7484 154.531H72.9441C75.3379 154.797 77.7532 154.277 79.8262 153.051C81.8897 151.809 83.5934 150.049 84.7687 147.947L85.2451 147.181C85.3812 146.917 85.5003 146.637 85.6364 146.33L86.3935 144.689C86.7848 143.54 87.2442 142.4 87.5334 141.235C87.8227 140.069 88.1204 138.87 88.3246 137.67L88.852 134.055L88.9115 133.638H89.3199L112.748 132.83H113.284L113.326 133.374C113.475 135.25 113.759 137.112 114.177 138.946C114.576 140.788 115.146 142.587 115.878 144.323C116.566 146.047 117.503 147.661 118.66 149.112C119.806 150.527 121.281 151.64 122.956 152.353L123.245 152.464L123.313 152.762L126.716 167.921L126.861 168.559H126.214C116.176 168.874 106.13 169.078 96.1424 169.282L66.4278 169.895L72.6804 154.693Z" fill="black"/>
<path opacity="0.1" d="M129.923 174.999C101.663 175.798 70.239 176.045 41.9536 175.722C70.239 174.939 101.655 174.667 129.923 174.999Z" fill="black"/>
<path d="M98.184 79.109C92.9608 82.1289 82.3952 75.1533 78.1247 68.3393C77.8355 67.8714 77.4187 48.6883 77.1975 44.8177C77.1465 44.0265 101.799 49.2923 101.799 49.2923C101.799 49.2923 99.8939 57.544 100.328 64.2815C100.366 64.8126 100.451 65.3393 100.583 65.8552C100.606 65.9418 100.624 66.0299 100.634 66.1189C101.306 69.1049 100.855 77.5607 98.184 79.109Z" fill="#F7A9A0"/>
<path d="M100.634 66.1189C99.8153 66.2805 98.9842 66.3716 98.15 66.3912C85.3896 66.859 79.9282 51.5551 78.1247 44.7836C82.6164 45.192 101.808 49.2838 101.808 49.2838C101.808 49.2838 99.8854 57.51 100.336 64.3155C100.363 64.8445 100.446 65.3691 100.583 65.8807C100.606 65.9587 100.623 66.0384 100.634 66.1189Z" fill="#263238"/>
<path d="M71.03 33.9544C71.03 33.9544 55.7176 50.3472 58.2696 53.2735C60.8217 56.1999 83.2714 51.8359 88.1714 47.9227C93.0714 44.0095 102.029 28.1016 102.029 28.1016L71.03 33.9544Z" fill="#A78BFA"/>
<g opacity="0.1">
<path d="M71.03 33.9544C71.03 33.9544 55.7176 50.3472 58.2696 53.2735C60.8217 56.1999 83.2714 51.8359 88.1714 47.9227C93.0714 44.0095 102.029 28.1016 102.029 28.1016L71.03 33.9544Z" fill="black"/>
</g>
<path d="M73.2418 14.8564C70.5111 23.4399 74.7645 48.3821 80.8214 53.9881C89.6091 62.1377 104.147 63.0905 111.106 52.4909C117.86 42.2231 111.744 9.81182 104.964 4.68216C94.9684 -2.84645 77.2826 2.21515 73.2418 14.8564Z" fill="#F7A9A0"/>
<path d="M93.9221 30.6962C93.9221 30.6367 93.8115 30.7983 93.82 30.8664C94.1518 32.5677 94.2539 34.5158 92.8247 35.324C92.7737 35.324 92.8247 35.4346 92.8247 35.4175C94.6622 34.8476 94.5091 32.2275 93.9221 30.6962Z" fill="#263238"/>
<path d="M92.1357 29.1905C89.3965 29.4287 90.077 34.8901 92.6206 34.669C95.1642 34.4478 94.4326 28.9864 92.1357 29.1905Z" fill="#263238"/>
<path d="M104.479 29.0373C104.479 28.9693 104.624 29.0969 104.624 29.1649C104.785 30.8663 105.253 32.7804 106.853 33.1547C106.904 33.1547 106.912 33.2483 106.853 33.2483C104.947 33.2227 104.352 30.6707 104.479 29.0373Z" fill="#263238"/>
<path d="M105.764 27.0808C108.46 26.5279 109.354 31.9553 106.861 32.4657C104.369 32.9761 103.509 27.5402 105.764 27.0808Z" fill="#263238"/>
<path d="M90.1706 26.111C90.9085 25.9687 91.6383 25.7869 92.3568 25.5666C93.1566 25.4774 93.9059 25.1311 94.4921 24.5798C94.6389 24.369 94.7126 24.116 94.7018 23.8594C94.6911 23.6028 94.5965 23.3568 94.4325 23.1591C94.0488 22.8173 93.5807 22.5842 93.0767 22.484C92.5726 22.3838 92.051 22.4201 91.5657 22.5891C90.5299 22.7815 89.6023 23.3514 88.9626 24.1884C88.8284 24.3879 88.755 24.622 88.7512 24.8623C88.7475 25.1027 88.8135 25.339 88.9414 25.5425C89.0693 25.7461 89.2535 25.9081 89.4717 26.009C89.6899 26.1099 89.9326 26.1453 90.1706 26.111Z" fill="#263238"/>
<path d="M107.941 23.5249C107.188 23.48 106.439 23.392 105.696 23.2612C104.892 23.2785 104.106 23.0303 103.458 22.5551C103.283 22.3672 103.176 22.1265 103.153 21.8709C103.13 21.6152 103.192 21.3592 103.331 21.143C103.666 20.7552 104.1 20.4647 104.586 20.3016C105.073 20.1385 105.594 20.1088 106.095 20.2157C107.147 20.27 108.141 20.7126 108.886 21.4577C109.046 21.6377 109.15 21.8603 109.186 22.0984C109.222 22.3366 109.187 22.58 109.087 22.7991C108.987 23.0181 108.826 23.2033 108.622 23.3322C108.419 23.4611 108.182 23.528 107.941 23.5249Z" fill="#263238"/>
<path d="M95.4618 46.5701C95.9127 46.9189 96.3891 47.4208 97.0016 47.4208C97.6313 47.3309 98.2346 47.1076 98.771 46.7658C98.782 46.7589 98.7949 46.7558 98.8078 46.757C98.8206 46.7581 98.8328 46.7634 98.8424 46.772C98.852 46.7807 98.8585 46.7922 98.861 46.8049C98.8635 46.8176 98.8618 46.8307 98.8561 46.8423C98.6557 47.2053 98.361 47.5076 98.0032 47.7172C97.6454 47.9268 97.2376 48.036 96.823 48.0333C96.4669 47.9849 96.1332 47.8323 95.8637 47.5946C95.5943 47.357 95.4012 47.0449 95.3087 46.6977C95.2917 46.5701 95.4618 46.5191 95.4618 46.5701Z" fill="#263238"/>
<path d="M96.2615 40.947C96.7756 41.5617 97.4113 42.0635 98.1286 42.4207C98.846 42.7779 99.6295 42.9828 100.43 43.0227C101.126 43.0709 101.825 43.0164 102.506 42.861C102.639 42.8439 102.77 42.8126 102.897 42.7675L103.263 42.6654C103.35 42.6346 103.425 42.5767 103.477 42.5002C103.529 42.4237 103.555 42.3325 103.552 42.24C103.557 42.1806 103.557 42.1208 103.552 42.0614V41.9168C103.424 40.6067 103.05 38.6416 103.05 38.6416C103.552 38.8203 106.112 39.6114 105.993 38.9308C104.947 33.3418 103.79 27.1318 101.57 21.7894C101.56 21.75 101.534 21.7161 101.499 21.6954C101.464 21.6746 101.422 21.6687 101.383 21.6789C101.343 21.689 101.309 21.7144 101.289 21.7495C101.268 21.7846 101.262 21.8265 101.272 21.866C102.063 27.2764 103.824 32.5166 104.675 37.9355C103.76 37.6446 102.81 37.4814 101.85 37.4506C101.672 37.5272 102.642 41.2362 102.659 41.8317C102.661 41.8515 102.661 41.8715 102.659 41.8912C100.506 42.4442 98.7795 41.9933 96.4656 40.7939C96.2615 40.6918 96.1424 40.8194 96.2615 40.947Z" fill="#263238"/>
<path d="M102.08 42.138C101.529 43.1972 100.715 44.0967 99.7153 44.7496C99.1578 45.0948 98.5068 45.2583 97.8523 45.2175C96.4231 45.1154 96.1509 43.8734 96.2105 42.759C96.245 42.1651 96.3478 41.5771 96.5167 41.0066C98.2027 41.9684 100.152 42.3649 102.08 42.138Z" fill="#263238"/>
<path d="M99.7153 44.7496C99.1578 45.0948 98.5068 45.2583 97.8523 45.2175C96.4231 45.1154 96.1509 43.8734 96.2105 42.759C97.7077 42.6654 99.3325 43.3885 99.7153 44.7496Z" fill="#FF98B9"/>
<path d="M73.9309 41.4149C78.6778 39.5264 79.5029 22.8784 79.5029 22.8784C79.5029 22.8784 80.1665 29.837 81.451 29.5393C82.7355 29.2415 87.1251 19.2289 87.04 12.4234C91.1471 14.5764 95.5165 16.1863 100.039 17.2128C106.419 18.4293 112.399 19.2289 112.289 18.1741C111.974 15.0435 108.112 6.52813 103.552 4.05262C98.3202 1.21131 91.7784 -1.25569 82.055 3.64428C72.3316 8.54426 70.5537 13.9631 69.5669 19.1609C68.5801 24.3586 72.187 42.1125 73.9309 41.4149Z" fill="#263238"/>
<path d="M101.306 1.73022C92.3994 -2.39562 73.5141 0.335095 70.1198 15.622C67.874 25.7452 70.7663 35.5366 70.7663 35.5366C70.7663 35.5366 81.7062 24.3246 86.0787 22.0532C97.1377 16.294 112.45 16.9491 112.45 16.9491C112.45 16.9491 109.311 5.43073 101.306 1.73022ZM87.695 17.8933C87.5249 15.3413 88.2225 11.4706 93.769 10.118C100.158 8.56977 101.978 14.4991 101.978 14.4991C97.0753 14.847 92.2622 15.9935 87.7291 17.8933H87.695Z" fill="#A78BFA"/>
<path d="M79.9027 34.5413C79.9027 34.5413 74.3647 26.4343 70.6897 28.3909C67.0148 30.3474 71.1151 42.0785 75.3855 43.7033C75.9186 43.9526 76.4967 44.0913 77.0849 44.111C77.6731 44.1307 78.2592 44.031 78.8077 43.818C79.3563 43.6049 79.856 43.2829 80.2767 42.8713C80.6974 42.4597 81.0303 41.9672 81.2553 41.4234L79.9027 34.5413Z" fill="#F7A9A0"/>
<path d="M71.9488 31.7426C71.9378 31.747 71.9283 31.7546 71.9216 31.7645C71.9149 31.7743 71.9114 31.7859 71.9114 31.7978C71.9114 31.8097 71.9149 31.8214 71.9216 31.8312C71.9283 31.8411 71.9378 31.8487 71.9488 31.8531C74.9432 33.1036 76.4915 35.9109 77.5719 38.8203C76.7212 37.6974 75.4792 37.0679 73.9735 38.1142C73.8969 38.1738 73.9734 38.2929 74.0585 38.2758C74.588 38.1146 75.1544 38.1213 75.6799 38.2949C76.2054 38.4686 76.6642 38.8007 76.9934 39.2456C77.5434 39.9943 78.0084 40.8017 78.38 41.6531C78.5161 41.9253 79.0095 41.7892 78.9074 41.4744V41.4064C78.9755 37.5698 76.0576 32.1764 71.9488 31.7426Z" fill="#263238"/>
<path d="M64.2586 73.0095C38.5848 100.078 17.0283 140.682 20.0227 162.749C23.0087 184.535 30.2821 181.311 32.4088 180.851C45.4243 178.061 66.2067 115.935 72.102 89.8957C77.5038 66.1359 70.6048 66.3146 64.2586 73.0095Z" fill="#A78BFA"/>
<path d="M47.4063 161.294C48.5292 158.325 49.6947 155.39 50.7665 152.404L54.0842 143.515C56.262 137.56 58.4908 131.605 60.575 125.65C62.6592 119.695 64.8284 113.741 66.8956 107.786C67.9249 104.8 68.9288 101.831 69.873 98.7769C70.8173 95.723 71.7616 92.7455 72.6548 89.7001C71.4547 95.9294 69.9069 102.087 68.0185 108.143C66.1981 114.225 64.1139 120.214 62.0212 126.195C59.9285 132.175 57.5976 138.104 55.2156 143.94C52.8337 149.776 50.2561 155.629 47.4063 161.294Z" fill="#263238"/>
<path d="M70.6558 97.4413C71.0512 96.3791 71.5114 95.3421 72.0339 94.3363C72.2976 93.8429 72.5358 93.341 72.8251 92.8561C73.1143 92.3712 73.361 91.8693 73.6757 91.3844C73.578 92.5398 73.2451 93.663 72.6975 94.6851C72.1925 95.7218 71.5004 96.6562 70.6558 97.4413Z" fill="#263238"/>
<path d="M59.299 78.4624C61.145 76.7611 64.2585 73.0095 69.1415 69.1049C66.8921 69.9767 64.8932 71.3911 63.3227 73.2222C61.857 74.8697 60.5122 76.621 59.299 78.4624Z" fill="#263238"/>
<path d="M67.1679 70.4575C66.079 69.1389 73.1227 65.2598 74.9347 66.7315C76.7467 68.2032 88.7499 87.1055 85.7555 111.818C82.761 136.531 36.0327 160.571 34.2207 156.905C33.4636 155.348 34.4334 151.018 35.6328 149.631C37.3342 147.666 70.3495 128.849 73.8543 113.502C76.9764 99.8573 69.9412 73.8092 67.1679 70.4575Z" fill="#455A64"/>
<path d="M29.3973 180.971C39.2653 179.933 49.3375 169.597 74.6625 139.491C78.1674 135.323 55.4199 102.69 51.4472 106.944C46.4452 112.303 28.2064 134.166 27.0749 135.961C17.5217 150.882 22.7024 181.711 29.3973 180.971Z" fill="#F7A9A0"/>
<path d="M43.1105 120.555C43.1105 120.555 48.8697 106.093 54.246 99.3894C61.4514 90.4487 71.3534 85.7018 75.6238 83.9579C84.5391 80.3254 108.597 77.7053 110.562 84.5023C112.34 90.6528 87.593 92.0905 87.593 92.0905C87.593 92.0905 112.586 86.4334 113.326 94.2683C114.067 102.103 85.3047 102.112 85.3047 102.112C85.3047 102.112 111.098 96.9054 110.621 105.081C110.272 111.257 84.1818 112.737 84.1818 112.737C84.1818 112.737 106.376 108.415 106.3 114.787C106.198 121.822 82.1997 124.723 82.1997 124.723C79.2478 140.886 70.8855 147.266 64.6414 151.196C63.1357 152.166 43.1105 120.555 43.1105 120.555Z" fill="#F7A9A0"/>
<path d="M78.8478 93.4856C81.7572 92.72 84.7006 91.9203 87.6695 91.4184C90.6384 90.9165 93.6243 90.5082 96.6272 90.2785C100.545 89.9064 104.492 89.9834 108.392 90.5082C101.4 90.0828 90.749 91.7247 87.7801 92.2096C84.8112 92.6945 81.8252 93.0603 78.8648 93.5707C78.7883 93.6132 78.7798 93.5026 78.8478 93.4856Z" fill="#263238"/>
<path d="M80.4812 104.238C84.2412 103.388 87.9417 102.469 91.7358 101.814C95.5299 101.159 99.1538 100.878 102.965 100.487C103.254 100.487 103.178 100.623 102.88 100.665C99.0858 101.21 95.6235 102.001 91.8209 102.588C88.0183 103.175 84.2242 103.609 80.4812 104.289C80.4758 104.296 80.4684 104.302 80.4598 104.304C80.4513 104.307 80.4422 104.307 80.4337 104.304C80.4252 104.301 80.4179 104.296 80.4126 104.289C80.4074 104.281 80.4046 104.273 80.4046 104.264C80.4046 104.255 80.4074 104.246 80.4126 104.239C80.4179 104.232 80.4252 104.226 80.4337 104.223C80.4422 104.221 80.4513 104.221 80.4598 104.223C80.4684 104.226 80.4758 104.231 80.4812 104.238Z" fill="#263238"/>
<path d="M80.2259 113.715C85.9 112.167 91.8634 111.673 97.7161 111.325C98.0054 111.325 97.8778 111.512 97.58 111.546C91.7528 112.235 87.1761 112.728 80.277 113.911C80.1494 113.928 80.1494 113.749 80.2259 113.715Z" fill="#263238"/>
<path d="M41.8684 115.655L64.9136 156.973C64.9136 156.973 37.4278 185.581 28.0617 180.979C19.9121 176.972 18.534 150.831 24.2931 139.074C26.7261 134.166 41.8684 115.655 41.8684 115.655Z" fill="#A78BFA"/>
<path d="M42.6681 117.058L41.8174 115.714H41.945C39.4865 118.989 37.0025 122.239 34.5865 125.531C32.1706 128.823 29.7206 132.098 27.4748 135.493C26.3278 137.158 25.2879 138.894 24.3612 140.69C23.5178 142.512 22.8291 144.402 22.3026 146.339C21.2643 150.279 20.8594 154.36 21.1031 158.427C20.4279 154.345 20.5463 150.172 21.4519 146.135C21.9036 144.103 22.5739 142.127 23.451 140.24C24.3618 138.376 25.3992 136.577 26.556 134.855C28.8529 131.452 31.3284 128.168 33.8634 124.953C36.3985 121.737 39.0782 118.623 41.8514 115.595L41.928 115.501L41.979 115.604L42.6681 117.058Z" fill="#263238"/>
<path d="M37.4533 128.406C38.7379 130.397 39.8523 132.507 41.0092 134.574C42.1662 136.641 43.3146 138.717 44.412 140.81C46.6323 144.995 48.8356 149.189 50.9878 153.417C51.5748 154.574 52.1618 155.731 52.6892 156.896C53.2166 158.062 53.7526 159.448 54.3906 160.707C54.3997 160.717 54.4065 160.728 54.4104 160.741C54.4143 160.753 54.4152 160.767 54.4131 160.78C54.411 160.793 54.406 160.805 54.3983 160.816C54.3906 160.826 54.3806 160.835 54.369 160.841C54.3573 160.847 54.3444 160.851 54.3313 160.851C54.3181 160.851 54.3051 160.849 54.2931 160.843C54.2812 160.838 54.2707 160.829 54.2626 160.819C54.2544 160.809 54.2487 160.797 54.246 160.784C53.676 159.771 52.9699 158.827 52.3829 157.823C51.796 156.82 51.192 155.722 50.6135 154.659C49.4821 152.575 48.3507 150.49 47.2107 148.398C44.9819 144.221 42.7616 140.027 40.6689 135.773C39.495 133.374 38.2275 130.984 37.1896 128.517C37.175 128.482 37.1748 128.443 37.1891 128.408C37.2035 128.373 37.2312 128.345 37.2662 128.33C37.3011 128.315 37.3405 128.315 37.3756 128.329C37.4107 128.344 37.4387 128.371 37.4533 128.406Z" fill="#263238"/>
<path d="M62.9314 153.255C63.6885 154.489 64.4201 155.748 65.1602 156.99L65.0751 157.092C58.8537 163.998 51.8639 170.172 44.2417 175.492C41.6885 177.256 38.9707 178.769 36.1261 180.009C46.8704 173.918 55.8962 165.301 64.8199 156.879V157.075C64.1989 155.816 63.5609 154.523 62.9569 153.281L62.9314 153.255Z" fill="#263238"/>
</svg>
