<svg width="500" height="373" viewBox="0 0 500 373" fill="none" xmlns="http://www.w3.org/2000/svg">
<g clip-path="url(#clip0_90_2349)">
<path d="M500 327.4H0V327.65H500V327.4Z" fill="#EBEBEB"/>
<path d="M237 282.8H43.91C42.3973 282.797 40.9475 282.195 39.8788 281.124C38.8102 280.054 38.21 278.603 38.21 277.09V5.66C38.2231 4.15603 38.8292 2.71798 39.8964 1.65822C40.9637 0.598458 42.4059 0.00257639 43.91 0H237C238.514 0 239.967 0.601588 241.038 1.67242C242.108 2.74325 242.71 4.19561 242.71 5.71V277.09C242.71 278.604 242.108 280.057 241.038 281.128C239.967 282.198 238.514 282.8 237 282.8V282.8ZM43.91 0.200001C42.4636 0.20265 41.0774 0.779065 40.0556 1.80273C39.0338 2.82639 38.46 4.21365 38.46 5.66V277.09C38.46 278.536 39.0338 279.924 40.0556 280.947C41.0774 281.971 42.4636 282.547 43.91 282.55H237C238.447 282.547 239.834 281.971 240.858 280.948C241.881 279.924 242.457 278.537 242.46 277.09V5.66C242.457 4.21273 241.881 2.82549 240.858 1.80212C239.834 0.77874 238.447 0.202644 237 0.200001H43.91Z" fill="#EBEBEB"/>
<path d="M453.31 282.8H260.21C258.696 282.797 257.246 282.195 256.175 281.125C255.105 280.054 254.503 278.604 254.5 277.09V5.66C254.516 4.15511 255.124 2.71708 256.193 1.65759C257.262 0.598109 258.705 0.00254829 260.21 0H453.31C454.812 0.0052045 456.252 0.602249 457.317 1.66173C458.382 2.72121 458.987 4.15775 459 5.66V277.09C459 278.601 458.401 280.05 457.335 281.121C456.268 282.191 454.821 282.795 453.31 282.8V282.8ZM260.21 0.200001C258.763 0.202644 257.375 0.77874 256.352 1.80212C255.329 2.82549 254.753 4.21273 254.75 5.66V277.09C254.753 278.537 255.329 279.924 256.352 280.948C257.375 281.971 258.763 282.547 260.21 282.55H453.31C454.757 282.547 456.145 281.971 457.168 280.948C458.191 279.924 458.767 278.537 458.77 277.09V5.66C458.767 4.21273 458.191 2.82549 457.168 1.80212C456.145 0.77874 454.757 0.202644 453.31 0.200001H260.21Z" fill="#EBEBEB"/>
<path d="M449.9 336.92H418.33V337.17H449.9V336.92Z" fill="#EBEBEB"/>
<path d="M335.34 334.21H301.93V334.46H335.34V334.21Z" fill="#EBEBEB"/>
<path d="M459.02 346.21H396.59V346.46H459.02V346.21Z" fill="#EBEBEB"/>
<path d="M71.69 344.53H52.46V344.78H71.69V344.53Z" fill="#EBEBEB"/>
<path d="M110.89 344.53H80.6001V344.78H110.89V344.53Z" fill="#EBEBEB"/>
<path d="M244.14 340.31H189.58V340.56H244.14V340.31Z" fill="#EBEBEB"/>
<path d="M272.26 63.13L215.28 120.12V309.91H415.27V63.13H272.26Z" fill="white"/>
<path d="M415.27 310.45H215.27C215.127 310.45 214.989 310.393 214.888 310.292C214.787 310.191 214.73 310.053 214.73 309.91V120.12C214.73 120.049 214.744 119.979 214.772 119.914C214.799 119.849 214.839 119.789 214.89 119.74L271.89 62.74C271.992 62.6411 272.128 62.5841 272.27 62.58H415.27C415.341 62.58 415.411 62.594 415.477 62.6211C415.542 62.6483 415.602 62.688 415.652 62.7382C415.702 62.7883 415.742 62.8479 415.769 62.9134C415.796 62.9789 415.81 63.0491 415.81 63.12V309.91C415.81 309.981 415.796 310.051 415.769 310.117C415.742 310.182 415.702 310.242 415.652 310.292C415.602 310.342 415.542 310.382 415.477 310.409C415.411 310.436 415.341 310.45 415.27 310.45V310.45ZM215.82 309.38H414.73V63.67H272.49L215.82 120.34V309.38Z" fill="#E0E0E0"/>
<path d="M215.28 120.12L275.07 127.83L272.26 63.13L215.28 120.12Z" fill="#E6E6E6"/>
<path d="M215.28 120.12H272.26V63.13L215.28 120.12Z" fill="white"/>
<path d="M272.26 120.65H215.26C215.154 120.65 215.049 120.619 214.96 120.561C214.871 120.502 214.802 120.418 214.76 120.32C214.719 120.223 214.708 120.115 214.73 120.011C214.751 119.908 214.804 119.813 214.88 119.74L271.88 62.74C271.957 62.6659 272.053 62.6152 272.158 62.594C272.262 62.5727 272.371 62.5817 272.47 62.62C272.568 62.6625 272.651 62.7324 272.709 62.8211C272.768 62.9099 272.799 63.0137 272.8 63.12V120.12C272.798 120.261 272.74 120.396 272.639 120.495C272.538 120.595 272.402 120.65 272.26 120.65V120.65ZM216.58 119.58H271.73V64.43L216.58 119.58Z" fill="#E0E0E0"/>
<path d="M326.84 202.19L360.84 168.19C361.6 167.43 362.202 166.528 362.613 165.536C363.025 164.543 363.236 163.479 363.236 162.405C363.236 161.331 363.025 160.267 362.613 159.274C362.202 158.282 361.6 157.38 360.84 156.62C360.08 155.86 359.178 155.258 358.186 154.847C357.193 154.435 356.129 154.224 355.055 154.224C353.981 154.224 352.917 154.435 351.924 154.847C350.932 155.258 350.03 155.86 349.27 156.62L315.27 190.62L281.27 156.62C279.736 155.086 277.655 154.224 275.485 154.224C273.315 154.224 271.234 155.086 269.7 156.62C268.166 158.154 267.304 160.235 267.304 162.405C267.304 164.575 268.166 166.656 269.7 168.19L303.7 202.19L269.7 236.19C268.166 237.724 267.304 239.805 267.304 241.975C267.304 244.145 268.166 246.226 269.7 247.76C271.234 249.294 273.315 250.156 275.485 250.156C277.655 250.156 279.736 249.294 281.27 247.76L315.27 213.76L349.27 247.76C350.804 249.294 352.885 250.156 355.055 250.156C357.225 250.156 359.306 249.294 360.84 247.76C362.374 246.226 363.236 244.145 363.236 241.975C363.236 239.805 362.374 237.724 360.84 236.19L326.84 202.19Z" fill="#F0F0F0"/>
<path d="M223 174C221.082 175.916 218.481 176.993 215.77 176.993C213.059 176.993 210.458 175.916 208.54 174L175.73 141.18L190.19 126.72L223 159.58C224.904 161.497 225.973 164.088 225.973 166.79C225.973 169.492 224.904 172.083 223 174V174Z" fill="#F0F0F0"/>
<path d="M175.725 141.244L190.185 126.783L191.522 128.12C192.908 129.506 193.686 131.385 193.686 133.345C193.686 135.305 192.908 137.185 191.522 138.571L187.513 142.58C186.127 143.966 184.247 144.745 182.287 144.745C180.327 144.745 178.447 143.966 177.062 142.58L175.725 141.244V141.244Z" fill="#E0E0E0"/>
<path d="M84.71 35.71C74.7876 45.6424 68.0327 58.2935 65.299 72.0642C62.5652 85.8349 63.9755 100.107 69.3514 113.076C74.7273 126.046 83.8276 137.13 95.502 144.928C107.176 152.727 120.901 156.889 134.94 156.889C148.979 156.889 162.704 152.727 174.378 144.928C186.052 137.13 195.153 126.046 200.529 113.076C205.904 100.107 207.315 85.8349 204.581 72.0642C201.847 58.2935 195.092 45.6424 185.17 35.71C178.576 29.1094 170.746 23.8732 162.127 20.3006C153.508 16.728 144.27 14.8892 134.94 14.8892C125.61 14.8892 116.372 16.728 107.753 20.3006C99.134 23.8732 91.3039 29.1094 84.71 35.71V35.71ZM181.07 132.07C171.947 141.192 160.324 147.405 147.671 149.922C135.018 152.439 121.902 151.147 109.983 146.21C98.064 141.272 87.8765 132.912 80.709 122.185C73.5415 111.458 69.7158 98.8462 69.7158 85.945C69.7158 73.0438 73.5415 60.4323 80.709 49.7053C87.8765 38.9783 98.064 30.6176 109.983 25.6805C121.902 20.7433 135.018 19.4515 147.671 21.9683C160.324 24.4851 171.947 30.6975 181.07 39.82C187.127 45.8772 191.932 53.0681 195.21 60.9823C198.489 68.8964 200.176 77.3788 200.176 85.945C200.176 94.5112 198.489 102.994 195.21 110.908C191.932 118.822 187.127 126.013 181.07 132.07V132.07Z" fill="#E0E0E0"/>
<path d="M172.26 125.65C171.79 125.649 171.331 125.509 170.941 125.247C170.55 124.985 170.246 124.614 170.066 124.18C169.887 123.746 169.84 123.268 169.931 122.807C170.022 122.346 170.248 121.923 170.58 121.59C180.016 112.127 185.315 99.3088 185.315 85.945C185.315 72.5812 180.016 59.7628 170.58 50.3C170.337 50.0845 170.141 49.8218 170.004 49.5279C169.867 49.234 169.791 48.9152 169.782 48.591C169.772 48.2668 169.829 47.9441 169.949 47.6427C170.068 47.3412 170.249 47.0674 170.478 46.8381C170.707 46.6087 170.981 46.4287 171.282 46.309C171.584 46.1893 171.907 46.1325 172.231 46.142C172.555 46.1516 172.874 46.2273 173.168 46.3645C173.462 46.5017 173.724 46.6976 173.94 46.94C184.267 57.2919 190.067 71.3175 190.067 85.94C190.067 100.562 184.267 114.588 173.94 124.94C173.72 125.163 173.459 125.34 173.17 125.462C172.882 125.584 172.573 125.648 172.26 125.65V125.65Z" fill="#E0E0E0"/>
<path d="M83.5801 100.53C83.045 100.531 82.5255 100.35 82.1061 100.018C81.6867 99.6854 81.392 99.221 81.2701 98.7C79.5404 91.375 79.3223 83.7742 80.629 76.3621C81.9357 68.9499 84.7398 61.8819 88.8701 55.59C89.2175 55.0596 89.7614 54.6889 90.3822 54.5595C91.0029 54.4301 91.6497 54.5526 92.1801 54.9C92.7105 55.2474 93.0812 55.7913 93.2106 56.4121C93.34 57.0328 93.2175 57.6796 92.8701 58.21C89.0885 63.9576 86.5176 70.4154 85.3141 77.1894C84.1106 83.9634 84.2998 90.9115 85.8701 97.61C85.9443 97.9134 85.9576 98.2286 85.9091 98.5372C85.8606 98.8458 85.7513 99.1417 85.5876 99.4077C85.4239 99.6737 85.209 99.9046 84.9554 100.087C84.7017 100.269 84.4144 100.4 84.1101 100.47C83.9359 100.508 83.7583 100.528 83.5801 100.53V100.53Z" fill="#E0E0E0"/>
<path d="M97.6201 125.65C96.9894 125.648 96.3852 125.397 95.9401 124.95C91.6564 120.683 88.1084 115.736 85.4401 110.31C85.3022 110.03 85.2207 109.726 85.2004 109.415C85.18 109.104 85.2212 108.792 85.3215 108.496C85.4217 108.201 85.5792 107.928 85.7849 107.694C85.9905 107.46 86.2403 107.268 86.5201 107.13C86.7998 106.992 87.1039 106.911 87.4151 106.89C87.7263 106.87 88.0384 106.911 88.3337 107.011C88.629 107.112 88.9017 107.269 89.1361 107.475C89.3705 107.68 89.5622 107.93 89.7001 108.21C92.1466 113.165 95.3897 117.685 99.3001 121.59C99.7446 122.036 99.9942 122.64 99.9942 123.27C99.9942 123.9 99.7446 124.504 99.3001 124.95C98.8531 125.394 98.25 125.645 97.6201 125.65V125.65Z" fill="#E0E0E0"/>
<path d="M211.033 265.405L220.381 274.753L198.673 296.461C197.562 297.571 196.057 298.195 194.487 298.195C192.917 298.195 191.411 297.571 190.301 296.461L189.318 295.478C188.207 294.368 187.584 292.862 187.584 291.292C187.584 289.722 188.207 288.216 189.318 287.106L211.026 265.398L211.033 265.405Z" fill="#F0F0F0"/>
<path d="M211.047 265.425L220.381 274.759L219.935 275.204C218.928 276.211 217.562 276.777 216.138 276.777C214.714 276.777 213.348 276.212 212.341 275.204L210.587 273.451C209.58 272.444 209.014 271.078 209.014 269.654C209.014 268.229 209.58 266.864 210.587 265.856L211.033 265.411L211.047 265.425Z" fill="#E0E0E0"/>
<path d="M284.35 214.7L262.45 236.59C260.019 239.195 258.695 242.642 258.758 246.205C258.821 249.767 260.265 253.166 262.785 255.684C265.306 258.202 268.706 259.643 272.269 259.702C275.831 259.761 279.277 258.433 281.88 256L290.74 247.15C292.605 235.916 290.335 224.388 284.35 214.7Z" fill="#F0F0F0"/>
<path d="M292.6 235.82C291.973 226.755 288.671 218.079 283.113 210.89C277.555 203.702 269.99 198.323 261.374 195.434C252.758 192.545 243.48 192.277 234.711 194.662C225.943 197.047 218.079 201.979 212.114 208.833C206.149 215.688 202.351 224.158 201.2 233.172C200.049 242.186 201.597 251.338 205.648 259.472C209.699 267.606 216.071 274.356 223.959 278.868C231.847 283.38 240.895 285.451 249.96 284.82C262.111 283.974 273.429 278.337 281.425 269.148C289.421 259.96 293.441 247.972 292.6 235.82ZM204.69 241.94C204.111 233.617 206.013 225.31 210.155 218.068C214.297 210.827 220.494 204.976 227.961 201.256C235.429 197.536 243.832 196.115 252.107 197.171C260.383 198.227 268.16 201.713 274.454 207.189C280.748 212.665 285.277 219.884 287.468 227.934C289.659 235.984 289.413 244.503 286.763 252.413C284.112 260.324 279.175 267.27 272.576 272.375C265.977 277.479 258.013 280.512 249.69 281.09C238.531 281.865 227.522 278.176 219.083 270.834C210.644 263.492 205.467 253.099 204.69 241.94Z" fill="#E0E0E0"/>
<path d="M223.38 265.91C219.841 262.842 216.942 259.106 214.85 254.915C212.759 250.725 211.515 246.162 211.19 241.49C211.167 241.283 211.186 241.074 211.246 240.875C211.306 240.676 211.405 240.492 211.539 240.332C211.672 240.173 211.836 240.042 212.021 239.947C212.206 239.853 212.408 239.797 212.616 239.783C212.823 239.769 213.031 239.797 213.227 239.865C213.423 239.933 213.604 240.041 213.757 240.18C213.911 240.32 214.035 240.49 214.121 240.679C214.208 240.868 214.255 241.072 214.26 241.28C214.873 249.891 218.873 257.909 225.383 263.579C231.894 269.248 240.386 272.107 249 271.53C249.406 271.502 249.806 271.637 250.113 271.904C250.419 272.171 250.607 272.549 250.635 272.955C250.663 273.361 250.529 273.761 250.261 274.068C249.994 274.374 249.616 274.562 249.21 274.59C244.545 274.914 239.862 274.314 235.43 272.825C230.997 271.335 226.903 268.985 223.38 265.91V265.91Z" fill="#E0E0E0"/>
<path d="M278.64 231C278.412 230.803 278.248 230.541 278.17 230.25C276.966 225.97 274.902 221.98 272.105 218.524C269.308 215.069 265.835 212.219 261.9 210.15C261.556 209.952 261.301 209.629 261.19 209.247C261.078 208.866 261.118 208.457 261.302 208.105C261.485 207.752 261.797 207.484 262.173 207.357C262.549 207.229 262.96 207.252 263.32 207.42C267.627 209.685 271.428 212.804 274.49 216.586C277.552 220.369 279.811 224.735 281.13 229.42C281.185 229.614 281.2 229.818 281.176 230.018C281.152 230.218 281.088 230.412 280.988 230.588C280.889 230.763 280.756 230.918 280.596 231.042C280.437 231.166 280.255 231.257 280.06 231.31C279.816 231.377 279.559 231.384 279.312 231.33C279.064 231.276 278.834 231.163 278.64 231V231Z" fill="#E0E0E0"/>
<path d="M243.39 206.13C243.084 205.858 242.898 205.478 242.87 205.07C242.842 204.665 242.976 204.265 243.242 203.958C243.508 203.65 243.885 203.461 244.29 203.43C248.19 203.159 252.108 203.527 255.89 204.52C256.087 204.572 256.272 204.662 256.434 204.785C256.596 204.909 256.732 205.063 256.835 205.239C256.937 205.415 257.004 205.609 257.032 205.811C257.059 206.013 257.047 206.218 256.995 206.415C256.943 206.612 256.853 206.797 256.729 206.959C256.606 207.121 256.452 207.257 256.276 207.36C256.1 207.463 255.906 207.53 255.704 207.557C255.502 207.584 255.297 207.572 255.1 207.52C251.649 206.607 248.071 206.269 244.51 206.52C244.1 206.54 243.698 206.4 243.39 206.13V206.13Z" fill="#E0E0E0"/>
<path d="M250 372.56C357.082 372.56 443.89 367.492 443.89 361.24C443.89 354.988 357.082 349.92 250 349.92C142.917 349.92 56.1099 354.988 56.1099 361.24C56.1099 367.492 142.917 372.56 250 372.56Z" fill="#F5F5F5"/>
<path d="M137.82 90.88C129.76 98.99 143.46 111.58 134.41 117.36C141.8 121.07 167.7 125.78 174.41 111.19C169.52 107.39 172.92 98.05 168.41 89.08C161.66 75.78 129.76 81.67 137.82 90.88Z" fill="#263238"/>
<path d="M138.55 90.67C136.04 90.25 127.55 94.47 133.87 105.8C138.96 114.96 134.72 115.61 134.72 115.61C134.72 115.61 139.72 115.75 136.72 108.94C133.54 101.67 132.05 94.13 138.55 90.67Z" fill="#263238"/>
<path d="M198 162.61C197.691 162.044 197.172 161.622 196.554 161.435C195.937 161.248 195.271 161.311 194.7 161.61L194.11 161.92C193.92 162.02 193.56 162.26 193.27 162.43C192.98 162.6 192.64 162.79 192.32 162.95C191.689 163.267 191.038 163.541 190.37 163.77C189.134 164.218 187.834 164.464 186.52 164.5C185.313 164.514 184.112 164.321 182.97 163.93C182.244 163.661 181.545 163.326 180.88 162.93C180.02 161.03 179.2 159.11 178.5 157.13C177.65 154.82 176.9 152.46 176.24 150.07C175.58 147.68 175 145.26 174.52 142.83C174.27 141.62 174.05 140.4 173.85 139.19L173.58 137.38C173.49 136.8 173.41 136.14 173.36 135.68V135.48C173.227 134.154 172.573 132.935 171.542 132.091C170.51 131.247 169.186 130.847 167.86 130.98C166.534 131.113 165.315 131.767 164.471 132.798C163.627 133.829 163.227 135.154 163.36 136.48C163.43 137.33 163.49 137.98 163.58 138.69C163.67 139.4 163.77 140.08 163.87 140.77C164.09 142.15 164.34 143.51 164.62 144.87C165.176 147.572 165.877 150.243 166.72 152.87C167.11 154.19 167.59 155.49 168.04 156.8C168.49 158.11 169.04 159.39 169.61 160.66C170.701 163.226 171.94 165.727 173.32 168.15L173.44 168.37C173.799 169.021 174.337 169.555 174.99 169.91C176.88 170.94 178.922 171.663 181.04 172.05C183.215 172.434 185.444 172.387 187.6 171.91C190.644 171.204 193.439 169.687 195.69 167.52C196.06 167.18 196.41 166.83 196.69 166.46C196.97 166.09 197.31 165.74 197.69 165.22C197.983 164.859 198.168 164.422 198.223 163.96C198.278 163.498 198.2 163.03 198 162.61Z" fill="#FF8B7B"/>
<path d="M204.65 153.25H204.36C203.403 153.23 202.454 153.43 201.587 153.836C200.72 154.242 199.958 154.842 199.36 155.59L194.53 161.65V165.79C198.41 167.33 203.33 163.18 203.33 163.18L205.82 162.55C206.658 162.341 207.389 161.828 207.871 161.112C208.353 160.395 208.552 159.525 208.43 158.67L208.07 156.24C207.953 155.415 207.543 154.659 206.915 154.11C206.288 153.561 205.484 153.256 204.65 153.25V153.25Z" fill="#FF8B7B"/>
<path d="M173.23 129.88C176.46 133.2 176.66 143.11 176.66 143.11L163.74 153.51C163.74 153.51 158.43 138.81 161.37 133.62C163.86 129.22 169.11 125.65 173.23 129.88Z" fill="#6D28D9"/>
<g opacity="0.2">
<path d="M173.23 129.88C176.46 133.2 176.66 143.11 176.66 143.11L163.74 153.51C163.74 153.51 158.43 138.81 161.37 133.62C163.86 129.22 169.11 125.65 173.23 129.88Z" fill="white"/>
</g>
<path d="M151.85 352.67L158.99 353.45L159.97 334.05L152.83 333.26L151.85 352.67Z" fill="#FF8B7B"/>
<path d="M160.16 348.79H151.77C151.601 348.784 151.436 348.845 151.311 348.959C151.186 349.073 151.11 349.231 151.1 349.4L150.54 357.33C150.54 357.745 150.702 358.143 150.992 358.44C151.281 358.737 151.675 358.91 152.09 358.92C155.63 358.92 155.67 358.92 160.09 358.92H172C175.66 358.92 175.67 355.21 174.09 354.87C166.98 353.37 164.21 351.29 161.7 349.31C161.259 348.97 160.717 348.787 160.16 348.79V348.79Z" fill="#263238"/>
<path opacity="0.2" d="M159.97 334.06L159.46 344.06H152.28L152.83 333.27L159.97 334.06Z" fill="black"/>
<path d="M163.82 179.27C163.82 179.27 170 231 170 254C165.13 286 161 342.16 161 342.16L151.12 341.9C151.12 341.9 146.63 280.74 150.79 254.33C145.46 230.67 138.88 176.07 138.88 176.07L163.82 179.27Z" fill="#263238"/>
<path opacity="0.2" d="M144.77 193.67C143.593 194.188 142.45 194.783 141.35 195.45C142.71 205.66 144.5 218.51 146.4 230.37C149.64 220.61 147.89 199.15 144.77 193.67Z" fill="black"/>
<path d="M74.5303 334.66L80.4203 338.77L90.5803 322.21L84.6903 318.1L74.5303 334.66Z" fill="#FF8B7B"/>
<path d="M81.9101 336.6L76.9101 329.87C76.8149 329.732 76.6694 329.637 76.5049 329.605C76.3403 329.573 76.1699 329.607 76.0301 329.7L69.3301 334C68.9959 334.246 68.7718 334.614 68.7063 335.023C68.6408 335.433 68.7392 335.852 68.9801 336.19C71.0701 339.04 71.1101 339.06 73.7401 342.6C75.3701 344.77 78.6201 349.14 80.8601 352.15C83.1001 355.16 86.0301 352.88 85.3501 351.4C82.3501 344.81 82.3501 341.4 82.4101 338.16C82.4203 337.599 82.2445 337.051 81.9101 336.6V336.6Z" fill="#263238"/>
<path opacity="0.2" d="M90.5703 322.21L85.3403 330.75L79.0303 327.31L84.6903 318.1L90.5703 322.21Z" fill="black"/>
<path d="M110.66 341.6C105.55 341.6 94.91 341.6 94.73 334.08C94.59 328.18 101.89 325.73 108.19 325.43C108.888 325.396 109.586 325.501 110.244 325.737C110.901 325.973 111.506 326.336 112.023 326.806C112.541 327.276 112.96 327.843 113.258 328.475C113.556 329.107 113.727 329.792 113.76 330.49V330.89C120.9 330.55 125.52 328.99 127.21 326.33C131.02 320.33 123.72 304.84 116.67 289.87C108.37 272.26 98.97 252.31 98.79 233.2C98.7834 232.501 98.9145 231.808 99.1758 231.16C99.4371 230.512 99.8234 229.922 100.313 229.423C100.802 228.925 101.385 228.527 102.028 228.254C102.671 227.981 103.361 227.837 104.06 227.83V227.83C105.462 227.833 106.806 228.387 107.801 229.373C108.797 230.36 109.364 231.699 109.38 233.1C109.54 249.88 118.38 268.71 126.24 285.33C135.24 304.51 143.09 321.08 136.14 332.03C132.11 338.47 123.76 341.6 110.66 341.6Z" fill="#6D28D9"/>
<path d="M155.91 178.25C155.91 178.25 138.85 237.37 130.52 258.81C114.38 286.87 87.6003 329.81 87.6003 329.81L79.0503 324.81C79.0503 324.81 99.0503 275.21 112.5 252.11C116.11 228.11 129.76 174.85 129.76 174.85L155.91 178.25Z" fill="#263238"/>
<path d="M83.4502 341.43C83.7895 341.992 84.3123 342.419 84.9302 342.64C85.1111 342.683 85.3005 342.676 85.4771 342.617C85.6538 342.559 85.8107 342.453 85.9302 342.31C86.0133 342.234 86.0768 342.138 86.1151 342.032C86.1534 341.926 86.1654 341.812 86.1502 341.7C86.0302 340.5 82.9302 338.94 82.3102 338.64C82.274 338.625 82.2338 338.624 82.1969 338.637C82.1601 338.65 82.1292 338.676 82.1102 338.71C82.0861 338.747 82.0732 338.791 82.0732 338.835C82.0732 338.879 82.0861 338.923 82.1102 338.96C82.4774 339.824 82.9261 340.651 83.4502 341.43V341.43ZM85.5802 341.43C85.6682 341.54 85.7267 341.671 85.7502 341.81C85.755 341.849 85.7502 341.888 85.7363 341.925C85.7223 341.962 85.6996 341.994 85.6702 342.02C85.5895 342.112 85.4859 342.181 85.3699 342.219C85.254 342.258 85.1298 342.265 85.0102 342.24C84.3502 342.11 83.4802 341.04 82.6402 339.35C83.7293 339.857 84.7236 340.547 85.5802 341.39V341.43Z" fill="#6D28D9"/>
<path d="M82.0602 339L82.1202 339.05C83.1202 339.6 85.7202 340.05 86.2902 339.22C86.3859 339.069 86.4324 338.891 86.4235 338.712C86.4145 338.533 86.3505 338.361 86.2402 338.22C85.2402 336.45 82.2402 338.53 82.1102 338.62C82.0804 338.644 82.0567 338.674 82.041 338.709C82.0254 338.744 82.0182 338.782 82.0202 338.82C82.0162 338.883 82.0301 338.945 82.0602 339ZM85.8602 338.42C85.8894 338.455 85.9161 338.492 85.9402 338.53C86.0502 338.72 86.0702 338.86 86.0102 338.94C85.6802 339.42 83.7602 339.25 82.6402 338.81C83.3902 338.36 85.1402 337.45 85.8602 338.42Z" fill="#6D28D9"/>
<path d="M165 350.44C165.656 350.5 166.312 350.334 166.86 349.97C166.999 349.848 167.102 349.69 167.157 349.514C167.211 349.337 167.216 349.149 167.17 348.97C167.156 348.857 167.116 348.749 167.054 348.653C166.991 348.558 166.908 348.478 166.81 348.42C165.81 347.81 162.68 349.36 162.07 349.68C162.036 349.699 162.009 349.729 161.995 349.766C161.98 349.802 161.978 349.843 161.99 349.88C162.006 349.922 162.031 349.959 162.064 349.989C162.097 350.018 162.137 350.039 162.18 350.05C163.105 350.276 164.049 350.407 165 350.44V350.44ZM166.24 348.71C166.383 348.701 166.525 348.732 166.65 348.8C166.7 348.8 166.75 348.87 166.77 348.99C166.796 349.11 166.79 349.234 166.751 349.35C166.712 349.466 166.643 349.57 166.55 349.65C166.06 350.1 164.68 350.16 162.82 349.83C163.871 349.267 165.011 348.888 166.19 348.71H166.24Z" fill="#6D28D9"/>
<path d="M162.18 350.1H162.25C163.25 349.64 165.2 347.81 164.88 346.86C164.814 346.703 164.702 346.569 164.56 346.475C164.418 346.38 164.251 346.33 164.08 346.33C162.08 346.1 161.94 349.72 161.93 349.87C161.93 349.91 161.941 349.949 161.96 349.984C161.979 350.019 162.007 350.048 162.04 350.07C162.083 350.094 162.132 350.104 162.18 350.1V350.1ZM163.98 346.7H164.12C164.33 346.7 164.46 346.79 164.49 346.89C164.68 347.44 163.4 348.89 162.37 349.52C162.46 348.65 162.78 346.7 164 346.7H163.98Z" fill="#6D28D9"/>
<path d="M129.76 174.9L163.82 179.26C171.5 153.4 174.03 140.91 174.71 134.9C174.89 133.389 174.537 131.863 173.712 130.585C172.887 129.307 171.641 128.358 170.19 127.9C168.19 127.26 165.61 126.5 163.05 125.9C162.18 125.67 161.29 125.46 160.42 125.26C155.321 124.225 150.155 123.557 144.96 123.26C144.19 123.19 143.43 123.15 142.66 123.11C141.15 123.03 139.66 123.01 138.3 123.01C137.28 123.009 136.27 123.22 135.335 123.631C134.401 124.041 133.562 124.642 132.872 125.395C132.183 126.147 131.657 127.035 131.33 128.002C131.002 128.969 130.88 129.993 130.97 131.01C131.24 134.01 131.45 136.8 131.61 139.36C131.99 145.36 132.11 150.16 132.02 154.36C131.816 161.256 131.06 168.125 129.76 174.9V174.9Z" fill="#6D28D9"/>
<g opacity="0.3">
<path d="M129.76 174.9L163.82 179.26C171.5 153.4 174.03 140.91 174.71 134.9C174.89 133.389 174.537 131.863 173.712 130.585C172.887 129.307 171.641 128.358 170.19 127.9C168.19 127.26 165.61 126.5 163.05 125.9C162.18 125.67 161.29 125.46 160.42 125.26C155.321 124.225 150.155 123.557 144.96 123.26C144.19 123.19 143.43 123.15 142.66 123.11C141.15 123.03 139.66 123.01 138.3 123.01C137.28 123.009 136.27 123.22 135.335 123.631C134.401 124.041 133.562 124.642 132.872 125.395C132.183 126.147 131.657 127.035 131.33 128.002C131.002 128.969 130.88 129.993 130.97 131.01C131.24 134.01 131.45 136.8 131.61 139.36C131.99 145.36 132.11 150.16 132.02 154.36C131.816 161.256 131.06 168.125 129.76 174.9V174.9Z" fill="white"/>
</g>
<path opacity="0.3" d="M132 154.32C136.5 148.5 138.13 141.84 136.67 138.17L131.59 139.31C132 145.29 132.11 150.11 132 154.32Z" fill="#6D28D9"/>
<path d="M163.05 125.84C162.17 125.61 161.29 125.4 160.42 125.2C155.317 124.17 150.147 123.502 144.95 123.2C144.18 123.14 143.42 123.1 142.66 123.06L141.33 123L142.33 124.75C142.47 124.99 145.87 130.55 154.33 136.53L156.14 137.79L157.88 136.46C159.556 135.258 160.925 133.678 161.877 131.849C162.829 130.02 163.337 127.992 163.36 125.93L163.05 125.84Z" fill="white"/>
<path d="M148.71 112.92C148.39 117.13 147.4 121.42 144.95 123.22C144.95 123.22 148.07 128.41 156.15 134.08C161.21 130.21 160.42 125.2 160.42 125.2C155.04 123.2 155.42 119.47 157.69 113.52L153.49 111.26C153.128 110.861 152.656 110.577 152.134 110.443C151.611 110.31 151.061 110.333 150.552 110.51C150.042 110.687 149.596 111.01 149.269 111.438C148.941 111.867 148.747 112.382 148.71 112.92V112.92Z" fill="#FF8B7B"/>
<path opacity="0.2" d="M153.49 111.26C153.15 110.884 152.712 110.61 152.226 110.467C151.739 110.324 151.223 110.319 150.733 110.451C150.244 110.583 149.8 110.849 149.452 111.217C149.104 111.586 148.865 112.044 148.76 112.54C150.356 115.757 152.929 118.386 156.11 120.05C156.224 117.795 156.757 115.581 157.68 113.52L153.49 111.26Z" fill="black"/>
<path d="M142.17 99.72C144.26 107.85 144.97 111.33 149.94 114.72C157.41 119.86 166.94 115.52 167.31 106.94C167.66 99.21 164.19 87.21 155.51 85.49C153.594 85.0983 151.61 85.2039 149.746 85.7968C147.882 86.3898 146.201 87.4502 144.864 88.8771C143.526 90.3039 142.576 92.0496 142.105 93.9477C141.633 95.8458 141.656 97.8331 142.17 99.72V99.72Z" fill="#FF8B7B"/>
<path d="M162.86 87.17C157.964 91.5227 152.155 94.7243 145.86 96.54C145.86 96.54 152.07 109.75 140.45 106.42C137.08 95.17 140.45 89.33 143.45 86.58C152.69 83.58 159.19 82.58 162.86 87.17Z" fill="#263238"/>
<path d="M141.78 107.73C142.461 109.203 143.698 110.346 145.22 110.91C147.22 111.63 148.41 109.91 147.98 107.91C147.59 106.12 146.07 103.58 143.98 103.71C143.528 103.749 143.092 103.898 142.712 104.146C142.332 104.394 142.019 104.732 141.802 105.13C141.584 105.528 141.468 105.974 141.464 106.427C141.46 106.881 141.569 107.328 141.78 107.73V107.73Z" fill="#FF8B7B"/>
<path d="M129.51 172.84L127.58 175.69C127.43 175.91 127.68 176.19 128.07 176.24L163.79 180.82C164.1 180.82 164.37 180.74 164.42 180.55L165.12 177.55C165.12 177.34 164.92 177.13 164.59 177.08L130.09 172.66C129.986 172.636 129.878 172.64 129.776 172.671C129.674 172.703 129.582 172.761 129.51 172.84V172.84Z" fill="#6D28D9"/>
<path d="M133.64 177.29L132.72 177.17C132.54 177.17 132.41 177.03 132.44 176.92L133.38 173.01C133.416 172.944 133.473 172.892 133.542 172.863C133.611 172.834 133.688 172.83 133.76 172.85L134.69 172.97C134.87 172.97 135 173.1 134.97 173.22L134.03 177.12C134 177.24 133.83 177.31 133.64 177.29Z" fill="#263238"/>
<path d="M161.15 180.81L160.23 180.7C160.05 180.7 159.92 180.56 159.95 180.44L160.89 176.54C160.89 176.43 161.09 176.35 161.27 176.37L162.2 176.49C162.38 176.49 162.51 176.63 162.48 176.74L161.54 180.65C161.51 180.76 161.34 180.84 161.15 180.81Z" fill="#263238"/>
<path d="M147.4 179.05L146.48 178.93C146.29 178.93 146.16 178.8 146.19 178.68L147.13 174.78C147.13 174.66 147.33 174.59 147.52 174.61L148.44 174.73C148.62 174.73 148.75 174.87 148.73 174.98L147.78 178.89C147.76 179 147.58 179.07 147.4 179.05Z" fill="#263238"/>
<path d="M156.1 99.37C156.22 100.04 156.68 100.52 157.1 100.43C157.52 100.34 157.79 99.74 157.66 99.07C157.53 98.4 157.07 97.92 156.66 98.01C156.25 98.1 156 98.7 156.1 99.37Z" fill="#263238"/>
<path d="M163.66 97.92C163.79 98.59 164.25 99.06 164.66 98.98C165.07 98.9 165.35 98.28 165.22 97.61C165.09 96.94 164.63 96.47 164.22 96.55C163.81 96.63 163.54 97.25 163.66 97.92Z" fill="#263238"/>
<path d="M164 96.63L165.52 95.85C165.52 95.85 165 97.27 164 96.63Z" fill="#263238"/>
<path d="M161.66 99.42C162.554 100.829 163.634 102.11 164.87 103.23C164.577 103.541 164.219 103.784 163.822 103.942C163.424 104.099 162.997 104.167 162.57 104.14L161.66 99.42Z" fill="#FF5652"/>
<path d="M156.94 106.84C156.91 106.875 156.893 106.919 156.892 106.965C156.89 107.012 156.905 107.057 156.933 107.093C156.962 107.13 157.002 107.155 157.047 107.166C157.092 107.176 157.139 107.17 157.18 107.15C157.936 106.765 158.772 106.564 159.62 106.564C160.468 106.564 161.305 106.765 162.06 107.15C162.105 107.176 162.159 107.183 162.209 107.17C162.26 107.157 162.303 107.125 162.33 107.08C162.358 107.034 162.366 106.98 162.355 106.928C162.344 106.876 162.314 106.83 162.27 106.8C161.455 106.382 160.552 106.164 159.635 106.164C158.719 106.164 157.816 106.382 157 106.8C157 106.8 157 106.82 156.94 106.84Z" fill="#263238"/>
<path d="M153.49 97.31C153.552 97.272 153.601 97.2162 153.63 97.15C153.839 96.6942 154.152 96.2944 154.545 95.9832C154.938 95.6721 155.399 95.4585 155.89 95.36C155.943 95.3538 155.994 95.3372 156.04 95.3112C156.086 95.2851 156.127 95.2502 156.16 95.2083C156.192 95.1664 156.216 95.1185 156.23 95.0673C156.244 95.016 156.247 94.9626 156.24 94.91C156.235 94.8577 156.22 94.807 156.195 94.7608C156.17 94.7147 156.136 94.674 156.095 94.6413C156.054 94.6087 156.006 94.5846 155.956 94.5706C155.905 94.5567 155.852 94.553 155.8 94.56C155.175 94.6768 154.587 94.9409 154.084 95.3305C153.582 95.72 153.179 96.2238 152.91 96.8C152.871 96.8789 152.86 96.9684 152.877 97.0546C152.894 97.1408 152.939 97.219 153.005 97.2771C153.071 97.3351 153.154 97.3698 153.242 97.3758C153.33 97.3817 153.417 97.3586 153.49 97.31V97.31Z" fill="#263238"/>
<path d="M165.91 92.24L165.96 92.19C165.991 92.1468 166.012 92.0979 166.024 92.0463C166.035 91.9946 166.037 91.9412 166.027 91.8891C166.018 91.837 165.998 91.7873 165.97 91.7428C165.941 91.6984 165.904 91.66 165.86 91.63C165.343 91.2584 164.745 91.0156 164.116 90.9217C163.486 90.8278 162.843 90.8855 162.24 91.09C162.144 91.132 162.067 91.2093 162.027 91.3061C161.986 91.4029 161.983 91.5116 162.02 91.61C162.06 91.708 162.137 91.7862 162.235 91.8274C162.332 91.8686 162.442 91.8696 162.54 91.83C163.019 91.6731 163.529 91.633 164.026 91.713C164.524 91.793 164.995 91.9908 165.4 92.29C165.477 92.3447 165.571 92.3697 165.665 92.3605C165.758 92.3513 165.846 92.3085 165.91 92.24V92.24Z" fill="#263238"/>
<path d="M156.47 98.08L157.99 97.31C157.99 97.31 157.4 98.72 156.47 98.08Z" fill="#263238"/>
<path d="M104.11 238.47C102.708 238.47 101.362 237.916 100.366 236.93C99.3696 235.943 98.8033 234.602 98.7901 233.2C98.6501 219 103.38 207.01 112.47 198.53C123.66 188.09 141.11 183.24 161.63 184.86C176.02 186 185.25 182.5 195.93 178.43C197.69 177.77 199.46 177.09 201.28 176.43C202.606 175.947 204.07 176.011 205.349 176.608C206.628 177.204 207.617 178.284 208.1 179.61C208.583 180.936 208.519 182.4 207.923 183.679C207.326 184.958 206.246 185.947 204.92 186.43C203.15 187.07 201.43 187.73 199.72 188.38C188.83 192.52 177.58 196.79 160.79 195.47C143.29 194.08 128.71 197.93 119.73 206.31C112.73 212.79 109.32 221.8 109.43 233.1C109.437 233.799 109.306 234.492 109.044 235.14C108.783 235.788 108.397 236.378 107.907 236.877C107.418 237.375 106.835 237.773 106.192 238.046C105.549 238.319 104.859 238.463 104.16 238.47H104.11Z" fill="#6D28D9"/>
<path d="M227.145 193.941L205.746 201.781C203.96 202.435 201.988 202.353 200.263 201.553C198.538 200.753 197.201 199.3 196.547 197.515L187.71 173.393C187.056 171.607 187.138 169.635 187.938 167.91C188.738 166.185 190.19 164.848 191.976 164.194L213.375 156.354L227.135 193.913L227.145 193.941Z" fill="#6D28D9"/>
<path opacity="0.7" d="M227.145 193.941L205.746 201.781C203.96 202.435 201.988 202.353 200.263 201.553C198.538 200.753 197.201 199.3 196.547 197.515L187.71 173.393C187.056 171.607 187.138 169.635 187.938 167.91C188.738 166.185 190.19 164.848 191.976 164.194L213.375 156.354L227.135 193.913L227.145 193.941Z" fill="white"/>
<path opacity="0.2" d="M203.84 159.84L213.39 156.35L227.15 193.93L217.6 197.43C216.965 196.815 216.479 196.062 216.18 195.23L204.18 162.44C203.866 161.612 203.75 160.721 203.84 159.84V159.84Z" fill="#6D28D9"/>
<path d="M234.836 165.711L233.897 166.055L236.188 172.308L237.127 171.964L234.836 165.711Z" fill="#6D28D9"/>
<path d="M232.45 162.16L229.08 152.94C228.502 151.377 227.459 150.028 226.091 149.075C224.724 148.122 223.097 147.611 221.43 147.61C220.482 147.607 219.541 147.773 218.65 148.1L212.57 150.33L212.22 149.39L218.31 147.16C219.31 146.794 220.366 146.607 221.43 146.61C223.303 146.614 225.13 147.192 226.665 148.264C228.201 149.337 229.371 150.853 230.02 152.61L233.39 161.83L232.45 162.16Z" fill="#6D28D9"/>
<path d="M227.311 196.635L236.241 193.405C239.159 192.35 240.668 189.129 239.613 186.211L227.492 152.7C226.437 149.783 223.216 148.273 220.299 149.328L211.369 152.558C208.451 153.614 206.941 156.834 207.997 159.752L220.118 193.263C221.173 196.18 224.394 197.69 227.311 196.635Z" fill="#6D28D9"/>
<path d="M222.2 162.87C222.404 163.428 222.438 164.033 222.298 164.61C222.157 165.187 221.849 165.709 221.411 166.111C220.974 166.512 220.427 166.775 219.841 166.865C219.254 166.956 218.653 166.87 218.115 166.619C217.577 166.369 217.126 165.964 216.818 165.456C216.51 164.949 216.36 164.361 216.386 163.768C216.412 163.175 216.614 162.603 216.965 162.124C217.317 161.646 217.802 161.282 218.36 161.08C219.107 160.809 219.93 160.846 220.65 161.181C221.37 161.517 221.928 162.124 222.2 162.87Z" fill="#263238"/>
<path d="M229.67 183.26C229.873 183.817 229.907 184.422 229.766 184.999C229.625 185.575 229.317 186.096 228.88 186.497C228.443 186.899 227.897 187.161 227.311 187.252C226.725 187.343 226.125 187.258 225.587 187.008C225.049 186.757 224.597 186.354 224.289 185.847C223.98 185.34 223.829 184.753 223.854 184.161C223.879 183.568 224.079 182.996 224.429 182.517C224.779 182.038 225.263 181.674 225.82 181.47C226.191 181.334 226.584 181.273 226.978 181.29C227.372 181.306 227.759 181.401 228.116 181.567C228.474 181.733 228.795 181.968 229.062 182.259C229.328 182.549 229.535 182.889 229.67 183.26V183.26Z" fill="#263238"/>
<path d="M142 180.85L141.92 180.76C140.36 179.2 138.71 177.5 137.22 175.76C135.73 174.02 134.27 172.28 132.94 170.48C131.636 168.724 130.45 166.883 129.39 164.97C128.632 163.602 127.986 162.174 127.46 160.7C128.06 158.7 128.7 156.7 129.46 154.78C130.33 152.47 131.31 150.2 132.38 147.96C133.45 145.72 134.59 143.52 135.82 141.37C136.42 140.29 137.05 139.22 137.7 138.17L138.7 136.63C139.01 136.13 139.38 135.63 139.64 135.2L139.75 135.04C140.461 133.956 140.723 132.639 140.482 131.366C140.241 130.093 139.514 128.963 138.456 128.215C137.398 127.467 136.091 127.158 134.81 127.355C133.529 127.552 132.375 128.239 131.59 129.27C131.09 129.95 130.71 130.49 130.31 131.08C129.91 131.67 129.55 132.26 129.17 132.85C128.44 134.03 127.73 135.22 127.05 136.43C125.697 138.844 124.472 141.327 123.38 143.87C122.82 145.13 122.38 146.42 121.81 147.71C121.24 149 120.86 150.31 120.46 151.65C119.611 154.305 118.914 157.006 118.37 159.74V159.97C118.215 160.7 118.267 161.458 118.52 162.16C119.489 164.724 120.776 167.156 122.35 169.4C123.833 171.53 125.485 173.536 127.29 175.4C129.049 177.196 130.916 178.882 132.88 180.45C134.844 182.016 136.905 183.455 139.05 184.76C139.571 185.065 140.185 185.169 140.778 185.053C141.37 184.937 141.9 184.61 142.268 184.131C142.636 183.653 142.817 183.057 142.777 182.455C142.737 181.852 142.478 181.285 142.05 180.86L142 180.85Z" fill="#FF8B7B"/>
<path d="M153.62 185.82L153.49 185.56C153.075 184.693 152.464 183.935 151.706 183.345C150.948 182.755 150.062 182.349 149.12 182.16L141.53 180.62L137.82 182.47C138.22 186.63 144.16 189.12 144.16 189.12L145.85 191.05C146.42 191.697 147.209 192.111 148.065 192.213C148.921 192.314 149.785 192.096 150.49 191.6L152.49 190.17C153.163 189.696 153.645 188.998 153.852 188.202C154.059 187.406 153.977 186.562 153.62 185.82V185.82Z" fill="#FF8B7B"/>
<path d="M135.19 123.65C130.98 125.58 126.5 132.26 126.5 132.26L135.5 149.11C135.5 149.11 145.73 137.32 144.87 131.42C144.17 126.41 140.55 121.19 135.19 123.65Z" fill="#6D28D9"/>
<g opacity="0.3">
<path d="M135.19 123.65C130.98 125.58 126.5 132.26 126.5 132.26L135.5 149.11C135.5 149.11 145.73 137.32 144.87 131.42C144.17 126.41 140.55 121.19 135.19 123.65Z" fill="white"/>
</g>
<path d="M423.29 344.43C414.48 344.43 405.82 342.62 401.62 337.14C381.74 311.14 381.92 258.84 382.09 208.23C382.19 180.98 384.34 155.23 381.31 135.23C379.53 123.44 373.31 115.35 367.03 111.17C357.71 105.01 344.91 108.32 339.44 109.73C338.759 109.92 338.046 109.973 337.344 109.885C336.642 109.796 335.965 109.569 335.352 109.216C334.739 108.862 334.203 108.39 333.774 107.827C333.346 107.264 333.034 106.621 332.857 105.936C332.681 105.251 332.642 104.538 332.744 103.838C332.846 103.138 333.087 102.465 333.452 101.86C333.818 101.254 334.3 100.727 334.871 100.31C335.443 99.8924 336.092 99.5934 336.78 99.43C343.61 97.66 359.63 93.53 372.89 102.29C381.84 108.2 389.58 118.75 391.83 133.64C394.98 154.44 392.83 180.57 392.73 208.23C392.56 257.06 392.39 307.55 410.07 330.64C411.5 332.5 417.07 334.17 426.32 333.69C427.14 333.69 427.94 333.6 428.73 333.53C428.372 332.806 428.187 332.008 428.19 331.2C428.19 329.789 428.751 328.436 429.748 327.438C430.746 326.441 432.099 325.88 433.51 325.88C445.14 325.88 451.26 326.88 452.44 332.2C452.78 333.73 452.96 337.57 447.34 340.2C443.14 342.17 433.12 344.43 423.29 344.43Z" fill="#6D28D9"/>
<path d="M306.87 349.02L296.02 344.75L301.74 325.94L312.6 330.2L306.87 349.02Z" fill="#FFC3BD"/>
<path d="M295.76 343.6L308 348.4C308.155 348.463 308.285 348.576 308.368 348.721C308.451 348.866 308.484 349.034 308.46 349.2L307.26 356.82C307.229 357.004 307.157 357.179 307.049 357.332C306.941 357.484 306.801 357.611 306.638 357.702C306.475 357.793 306.293 357.847 306.107 357.858C305.92 357.87 305.734 357.84 305.56 357.77C302.49 356.5 297.68 354.4 293.79 352.87C291.4 351.93 286.85 350.43 283.54 349.13C280.23 347.83 281.09 344.39 282.54 344.63C289.13 345.69 291.65 344.56 294.28 343.58C294.758 343.397 295.288 343.404 295.76 343.6V343.6Z" fill="#263238"/>
<path opacity="0.2" d="M312.6 330.21L301.74 325.94L298.79 335.64L309.65 339.91L312.6 330.21Z" fill="black"/>
<path d="M326.17 184.61C326.17 184.61 316.35 233.15 312.6 257.09C308.38 283.92 297.23 332.93 297.23 332.93L311.66 338.6C311.66 338.6 332.27 288.42 335.14 264.12C343.79 244.37 360.99 186.25 360.99 186.25L326.17 184.61Z" fill="#6D28D9"/>
<path d="M296.53 333.01L312.37 339.24L315.08 334.44L297.37 327.1L296.53 333.01Z" fill="#263238"/>
<path d="M292.65 343.81C292.098 343.638 291.619 343.286 291.29 342.81C291.199 342.634 291.151 342.438 291.151 342.24C291.151 342.042 291.199 341.846 291.29 341.67C291.331 341.561 291.401 341.466 291.493 341.396C291.585 341.325 291.695 341.281 291.81 341.27C292.86 341.16 294.81 343.72 295 344.02C295.022 344.053 295.033 344.091 295.033 344.13C295.033 344.169 295.022 344.207 295 344.24C294.979 344.273 294.949 344.299 294.914 344.315C294.878 344.331 294.839 344.336 294.8 344.33C294.067 344.235 293.346 344.061 292.65 343.81V343.81ZM292.12 341.72C292.04 341.68 291.95 341.663 291.86 341.67C291.8 341.67 291.73 341.67 291.66 341.84C291.594 341.959 291.559 342.093 291.559 342.23C291.559 342.367 291.594 342.501 291.66 342.62C291.95 343.15 292.95 343.62 294.4 343.86C293.791 343.001 293.016 342.273 292.12 341.72V341.72Z" fill="#6D28D9"/>
<path d="M294.78 344.32C294.748 344.309 294.72 344.288 294.7 344.26C294.06 343.5 293.16 341.15 293.7 340.34C293.783 340.214 293.907 340.121 294.051 340.076C294.195 340.03 294.35 340.035 294.49 340.09C294.639 340.128 294.778 340.196 294.898 340.291C295.019 340.386 295.118 340.505 295.19 340.64C295.81 341.75 295.11 344.09 295.08 344.19C295.068 344.225 295.047 344.257 295.019 344.282C294.991 344.306 294.957 344.323 294.92 344.33C294.898 344.341 294.873 344.346 294.849 344.344C294.824 344.342 294.801 344.334 294.78 344.32V344.32ZM294.44 340.5H294.36C294.1 340.44 294.04 340.5 294.01 340.59C293.71 341.07 294.2 342.77 294.77 343.7C295.055 342.775 295.055 341.785 294.77 340.86C294.707 340.704 294.59 340.576 294.44 340.5V340.5Z" fill="#6D28D9"/>
<path opacity="0.2" d="M347.34 214C341.9 220.74 339.75 237.92 339.77 252.24C343.44 242.13 347.65 229.29 351.35 217.63L347.34 214Z" fill="black"/>
<path d="M372.17 350.83H360.51L358.96 331.23H370.62L372.17 350.83Z" fill="#FFC3BD"/>
<path d="M359.85 349.85H373C373.169 349.849 373.333 349.906 373.464 350.011C373.595 350.117 373.686 350.265 373.72 350.43L375.39 357.95C375.429 358.134 375.427 358.324 375.382 358.506C375.338 358.688 375.253 358.858 375.134 359.003C375.015 359.148 374.864 359.265 374.694 359.344C374.524 359.423 374.338 359.463 374.15 359.46C370.83 359.4 365.6 359.2 361.42 359.2C358.84 359.2 354.06 359.47 350.51 359.47C346.96 359.47 346.51 355.96 347.94 355.64C354.47 354.21 356.41 352.25 358.49 350.37C358.865 350.037 359.349 349.852 359.85 349.85V349.85Z" fill="#263238"/>
<path opacity="0.2" d="M370.62 331.23H358.95L359.76 341.34H371.43L370.62 331.23Z" fill="black"/>
<path d="M340.29 185.22C340.29 185.22 346.75 239.31 348.11 258.78C350 285.88 357.31 339.38 357.31 339.38H372.81C372.81 339.38 374.47 284.74 371.67 260.43C375.53 239.22 374.31 186.85 374.31 186.85L340.29 185.22Z" fill="#6D28D9"/>
<path d="M356.69 339.71H373.71L374.48 334.26L355.31 333.9L356.69 339.71Z" fill="#263238"/>
<path d="M357 351.18C356.424 351.223 355.85 351.072 355.37 350.75C355.221 350.619 355.105 350.455 355.032 350.271C354.959 350.086 354.931 349.887 354.95 349.69C354.95 349.572 354.983 349.456 355.045 349.356C355.107 349.255 355.195 349.173 355.3 349.12C356.24 348.64 358.97 350.32 359.3 350.51C359.335 350.53 359.363 350.559 359.381 350.595C359.398 350.63 359.405 350.67 359.4 350.71C359.391 350.75 359.371 350.787 359.343 350.817C359.315 350.847 359.28 350.869 359.24 350.88C358.507 351.064 357.756 351.165 357 351.18ZM355.74 349.43C355.651 349.424 355.561 349.442 355.48 349.48C355.43 349.48 355.37 349.56 355.36 349.71C355.339 349.845 355.353 349.982 355.4 350.11C355.448 350.238 355.527 350.351 355.63 350.44C356.09 350.83 357.2 350.88 358.63 350.59C357.76 350.023 356.789 349.629 355.77 349.43H355.74Z" fill="#6D28D9"/>
<path d="M359.2 350.88H359.1C358.23 350.4 356.53 348.55 356.71 347.6C356.74 347.453 356.82 347.32 356.937 347.226C357.054 347.131 357.2 347.079 357.35 347.08C357.501 347.059 357.655 347.07 357.802 347.113C357.949 347.156 358.084 347.23 358.2 347.33C359.2 348.14 359.39 350.58 359.4 350.68C359.402 350.717 359.395 350.753 359.379 350.786C359.363 350.82 359.34 350.848 359.31 350.87C359.275 350.882 359.237 350.886 359.2 350.88V350.88ZM357.49 347.45H357.4C357.14 347.45 357.12 347.61 357.11 347.66C357 348.21 358.11 349.66 358.95 350.28C358.889 349.314 358.541 348.387 357.95 347.62C357.82 347.513 357.658 347.454 357.49 347.45V347.45Z" fill="#6D28D9"/>
<path d="M345.64 110.63L336.3 110.51C333.16 110.51 330.04 110.41 326.95 110.36C326.01 110.36 325.09 110.3 324.16 110.26C324.22 110.26 324.26 110.15 324.31 110.1C324.97 109.4 325.63 108.68 326.31 107.99C326.65 107.63 326.984 107.28 327.31 106.94C327.62 106.6 328.02 106.22 328.23 105.94L329.08 104.86C329.75 104.005 330.134 102.961 330.177 101.876C330.221 100.791 329.921 99.72 329.321 98.8147C328.722 97.9094 327.852 97.2159 326.836 96.8328C325.82 96.4496 324.709 96.3961 323.66 96.68L321.81 97.18C321.24 97.35 320.67 97.54 320.1 97.73C318.98 98.12 317.88 98.55 316.79 99.02C314.594 99.9899 312.471 101.12 310.44 102.4C308.336 103.745 306.346 105.26 304.49 106.93C302.526 108.716 300.747 110.696 299.18 112.84C298.785 113.375 298.45 113.952 298.18 114.56C297.252 116.688 297.206 119.099 298.054 121.261C298.901 123.423 300.573 125.16 302.7 126.09L303.61 126.49C305.665 127.374 307.793 128.077 309.97 128.59C311.87 129.08 313.67 129.4 315.44 129.7C317.21 130 318.94 130.24 320.66 130.45C322.38 130.66 324.08 130.82 325.78 130.96C329.17 131.26 332.53 131.41 335.88 131.51C339.23 131.61 342.51 131.61 345.99 131.45C348.704 131.334 351.265 130.163 353.128 128.187C354.991 126.211 356.009 123.585 355.965 120.869C355.92 118.154 354.817 115.563 352.891 113.648C350.964 111.734 348.366 110.647 345.65 110.62L345.64 110.63Z" fill="#FFC3BD"/>
<path d="M351.08 128.88C343.01 138.08 323.59 134.64 323.59 134.64L324.66 111.72C331.317 110.255 338.105 109.468 344.92 109.37C356.32 109.35 357.54 121.5 351.08 128.88Z" fill="#263238"/>
<path d="M329.54 121.83C329.06 125.53 328.54 130.51 328.23 137.21C324.02 158.51 322.45 173.6 326.17 184.61C329.11 188.24 367.42 187.54 374.31 186.84C378.31 176.94 378.73 148.52 379.2 124.63C379.259 121.338 378.137 118.134 376.036 115.598C373.936 113.063 370.996 111.364 367.75 110.81C359.129 109.282 350.335 108.986 341.63 109.93C338.575 110.278 335.725 111.638 333.533 113.795C331.342 115.952 329.936 118.781 329.54 121.83V121.83Z" fill="#263238"/>
<path opacity="0.2" d="M366.71 136.37C366.84 143.65 372.12 155.28 378.06 161.18C378.42 155.03 378.65 148.36 378.83 141.63L366.71 136.37Z" fill="black"/>
<path d="M400.09 150.52L399.75 149.72C398.352 146.384 396.718 143.153 394.86 140.05C393.08 137.05 391.16 134.22 389.17 131.49C387.18 128.76 385.07 126.15 382.91 123.61C381.81 122.35 380.72 121.09 379.57 119.87L377.84 118.05L376 116.19C374.073 114.287 371.48 113.209 368.771 113.185C366.063 113.161 363.451 114.193 361.49 116.061C359.53 117.93 358.373 120.488 358.267 123.195C358.16 125.901 359.112 128.543 360.92 130.56L361.22 130.89L367.09 137.42C369.09 139.64 371 141.9 372.9 144.15C373.82 145.28 374.77 146.41 375.63 147.56C376.49 148.71 377.4 149.82 378.26 150.96C379.5 152.69 380.7 154.41 381.77 156.1C381.606 156.953 381.399 157.798 381.15 158.63C380.431 161.052 379.587 163.436 378.62 165.77C377.62 168.24 376.56 170.77 375.46 173.26C374.36 175.75 373.18 178.35 372.13 180.85L372.03 181.07C371.569 182.175 371.499 183.404 371.832 184.554C372.164 185.705 372.879 186.707 373.858 187.396C374.837 188.085 376.022 188.419 377.217 188.344C378.412 188.268 379.545 187.787 380.43 186.98C382.636 184.935 384.729 182.772 386.7 180.5C388.7 178.253 390.577 175.887 392.33 173.4C393.22 172.15 394.07 170.85 394.91 169.5C395.783 168.127 396.58 166.709 397.3 165.25C398.11 163.659 398.811 162.015 399.4 160.33C400.167 158.172 400.599 155.909 400.68 153.62C400.706 152.556 400.505 151.5 400.09 150.52V150.52Z" fill="#FFC3BD"/>
<path d="M368.43 110.94C381.92 113.25 390.71 131.51 390.71 131.51L374.45 149C374.45 149 365.08 139.46 359.45 130.62C353.38 121 358.77 109.3 368.43 110.94Z" fill="#263238"/>
<path d="M343.79 82.15C341.53 78.36 340.79 73.15 344.93 67.84C344.123 67.9411 343.305 67.806 342.573 67.451C341.842 67.0959 341.23 66.5363 340.81 65.84C345.343 62.1311 351.044 60.1472 356.9 60.24C369 60.24 369.9 64.91 369.49 68.1C377.77 68.63 383.81 90.16 362.82 93.97C350.81 81.32 343.79 82.15 343.79 82.15Z" fill="#263238"/>
<path d="M368.73 68.49C368.73 68.49 372.1 65.05 367.91 60.89C368.849 61.1476 369.706 61.644 370.397 62.331C371.087 63.0179 371.588 63.872 371.85 64.81C372.44 67.23 370.81 69.17 368.73 68.49Z" fill="#263238"/>
<path d="M364.09 91.34C363.77 97.97 363.17 105.51 364.28 110.8C362.56 113.51 358.16 116.63 350.28 117.33C347.48 115.74 343.78 111.85 345.07 109.85C348.42 107.7 349.84 101.19 348.88 96.32L364.09 91.34Z" fill="#FFC3BD"/>
<path opacity="0.2" d="M360.25 92.59L348.86 96.32C349.248 98.394 349.265 100.52 348.91 102.6C352.31 102.49 357.02 99.93 358.79 97.53C359.367 96.8553 359.795 96.0666 360.047 95.2155C360.298 94.3644 360.368 93.4698 360.25 92.59Z" fill="black"/>
<path d="M367.41 80.84C365.3 88.97 364.48 93.84 359.5 97.25C352.01 102.38 342.59 96.63 342.22 88.04C341.9 80.3 345.4 68.3 354.1 66.59C356.016 66.2058 357.998 66.3178 359.858 66.9153C361.718 67.5128 363.395 68.5759 364.729 70.0038C366.062 71.4316 367.009 73.1767 367.478 75.0733C367.947 76.9699 367.924 78.955 367.41 80.84V80.84Z" fill="#FFC3BD"/>
<path d="M365.73 69.2C362.16 71.74 357.73 82.5 366.73 86.82C374.81 79.72 372.72 69.2 365.73 69.2Z" fill="#263238"/>
<path d="M367.79 70.49C369.32 63.41 351.45 59.75 345.79 68.02C343.87 73 366.71 77.4 367.79 70.49Z" fill="#263238"/>
<path d="M354.46 89.47C352.604 88.6305 350.613 88.1261 348.58 87.98C348.552 87.9799 348.524 87.9857 348.498 87.9969C348.471 88.008 348.448 88.0244 348.428 88.045C348.409 88.0656 348.393 88.0899 348.383 88.1165C348.373 88.1432 348.369 88.1716 348.37 88.2C348.382 88.2646 348.414 88.3236 348.463 88.3672C348.512 88.4107 348.575 88.4364 348.64 88.44C350.589 88.5808 352.498 89.0614 354.28 89.86C354.336 89.8846 354.4 89.8869 354.457 89.8664C354.515 89.846 354.562 89.8044 354.59 89.75C354.601 89.7232 354.607 89.6944 354.606 89.6654C354.606 89.6364 354.599 89.6078 354.587 89.5815C354.574 89.5552 354.557 89.5317 354.535 89.5125C354.513 89.4933 354.488 89.4788 354.46 89.47V89.47Z" fill="#263238"/>
<path d="M369.36 89.73C367.911 91.2682 365.912 92.1705 363.8 92.24C361 92.3 360.29 89.63 361.64 87.35C362.86 85.35 365.78 82.79 368.32 83.81C370.86 84.83 371.12 87.82 369.36 89.73Z" fill="#FFC3BD"/>
<path d="M354.48 80.7C354.35 81.37 353.89 81.85 353.48 81.76C353.07 81.67 352.8 81.06 352.93 80.39C353.06 79.72 353.52 79.25 353.93 79.39C354.34 79.53 354.61 80 354.48 80.7Z" fill="#263238"/>
<path d="M346.91 79.23C346.78 79.9 346.32 80.37 345.91 80.29C345.5 80.21 345.22 79.59 345.35 78.92C345.48 78.25 345.94 77.77 346.35 77.86C346.76 77.95 347 78.56 346.91 79.23Z" fill="#263238"/>
<path d="M349.25 80C348.05 81.8927 346.597 83.612 344.93 85.11C345.93 86.44 348.14 86.18 348.14 86.18L349.25 80Z" fill="#ED847E"/>
<path d="M353.39 76.81C353.462 76.7944 353.536 76.7972 353.606 76.8182C353.676 76.8392 353.739 76.8777 353.79 76.93C354.111 77.3181 354.52 77.6246 354.982 77.8245C355.445 78.0244 355.948 78.1119 356.45 78.08C356.556 78.0656 356.663 78.093 356.749 78.1565C356.835 78.22 356.893 78.3146 356.91 78.42C356.919 78.472 356.917 78.5252 356.904 78.5764C356.891 78.6276 356.868 78.6756 356.837 78.7177C356.805 78.7598 356.765 78.795 356.719 78.8211C356.673 78.8473 356.623 78.8639 356.57 78.87C355.935 78.9211 355.297 78.8198 354.709 78.5746C354.122 78.3293 353.601 77.9472 353.19 77.46C353.153 77.4237 353.123 77.3801 353.103 77.332C353.082 77.2839 353.072 77.2322 353.072 77.18C353.072 77.1278 353.082 77.0761 353.103 77.028C353.123 76.9799 353.153 76.9364 353.19 76.9C353.25 76.8559 353.318 76.8251 353.39 76.81V76.81Z" fill="#263238"/>
<path d="M344.57 74.59C344.487 74.5728 344.413 74.5267 344.36 74.46C344.326 74.4183 344.302 74.3703 344.287 74.3188C344.272 74.2673 344.268 74.2133 344.274 74.1602C344.281 74.107 344.298 74.0557 344.325 74.0093C344.352 73.9629 344.387 73.9223 344.43 73.89C344.921 73.4875 345.501 73.2077 346.122 73.0738C346.743 72.9399 347.387 72.9557 348 73.12C348.101 73.1543 348.185 73.2268 348.234 73.3221C348.282 73.4174 348.292 73.5279 348.26 73.63C348.22 73.7265 348.146 73.8052 348.052 73.8512C347.958 73.8972 347.851 73.9074 347.75 73.88V73.88C347.261 73.7553 346.75 73.7484 346.258 73.8596C345.766 73.9709 345.308 74.1972 344.92 74.52C344.873 74.562 344.816 74.5906 344.755 74.603C344.693 74.6153 344.629 74.6108 344.57 74.59V74.59Z" fill="#263238"/>
<path d="M376.85 180.56L368.26 180.5L372.7 190.36C372.7 190.36 380.03 188.79 379.63 184.81L376.85 180.56Z" fill="#FFC3BD"/>
<path d="M363.89 187.27L365.3 190.05C365.679 190.79 366.321 191.362 367.099 191.655C367.878 191.947 368.738 191.938 369.51 191.63L372.7 190.36L368.26 180.5L364.85 183.1C364.226 183.572 363.787 184.248 363.612 185.01C363.436 185.773 363.535 186.573 363.89 187.27Z" fill="#FFC3BD"/>
<path d="M311.46 173.3C310.422 173.289 309.41 172.976 308.548 172.398C307.686 171.821 307.011 171.004 306.607 170.048C306.202 169.092 306.085 168.039 306.271 167.018C306.456 165.997 306.935 165.053 307.65 164.3C311.47 160.36 314.92 157.3 317.96 154.63C325.3 148.16 327.83 145.63 327.59 140.78C327.231 137.788 326.595 134.835 325.69 131.96C323.5 123.91 321.02 114.8 325.27 107.49C327.55 103.56 331.42 100.87 336.78 99.49C338.135 99.1684 339.562 99.391 340.755 100.11C341.948 100.829 342.811 101.987 343.16 103.336C343.508 104.684 343.313 106.116 342.618 107.323C341.922 108.529 340.782 109.415 339.44 109.79C335.67 110.79 334.76 112.32 334.44 112.84C332.44 116.29 334.37 123.43 335.93 129.16C337.06 132.773 337.817 136.493 338.19 140.26C338.69 150.51 332.64 155.85 324.97 162.61C322.08 165.17 318.79 168.07 315.25 171.71C314.756 172.214 314.167 172.615 313.516 172.888C312.865 173.161 312.166 173.301 311.46 173.3V173.3Z" fill="#6D28D9"/>
<path d="M323.13 96.9L331.45 94.77L329.51 105.41C329.51 105.41 322.02 105.64 321.46 101.69L323.13 96.9Z" fill="#FFC3BD"/>
<path d="M337.29 100.41L336.65 103.19C336.454 104.039 335.947 104.784 335.229 105.278C334.511 105.772 333.634 105.98 332.77 105.86L329.51 105.41L331.45 94.77L335.27 96.42C336.021 96.7433 336.634 97.3198 337.003 98.0489C337.372 98.7781 337.474 99.6136 337.29 100.41Z" fill="#FFC3BD"/>
<path d="M308.486 155.803L308.259 155.576C307.248 154.565 305.608 154.565 304.597 155.577L275.108 185.076C274.097 186.087 274.097 187.727 275.109 188.738L275.335 188.965C276.347 189.976 277.987 189.976 278.998 188.964L308.486 159.465C309.498 158.454 309.497 156.814 308.486 155.803Z" fill="#263238"/>
<path d="M323.855 171.152L323.628 170.925C322.617 169.914 320.977 169.914 319.965 170.925L290.472 200.419C289.461 201.43 289.461 203.07 290.472 204.082L290.698 204.308C291.71 205.319 293.35 205.319 294.361 204.308L323.855 174.815C324.866 173.803 324.866 172.163 323.855 171.152Z" fill="#263238"/>
<path d="M284.413 166.783L305.194 146.001C305.86 145.335 306.651 144.807 307.521 144.447C308.39 144.087 309.323 143.901 310.264 143.901C311.206 143.901 312.138 144.087 313.008 144.447C313.878 144.807 314.669 145.335 315.334 146.001L333.5 164.167C334.166 164.833 334.694 165.623 335.054 166.493C335.415 167.363 335.6 168.295 335.6 169.237C335.6 170.178 335.415 171.111 335.054 171.981C334.694 172.851 334.166 173.641 333.5 174.307L312.718 195.089L284.413 166.783Z" fill="#6D28D9"/>
<path opacity="0.7" d="M284.413 166.783L305.194 146.001C305.86 145.335 306.651 144.807 307.521 144.447C308.39 144.087 309.323 143.901 310.264 143.901C311.206 143.901 312.138 144.087 313.008 144.447C313.878 144.807 314.669 145.335 315.334 146.001L333.5 164.167C334.166 164.833 334.694 165.623 335.054 166.493C335.415 167.363 335.6 168.295 335.6 169.237C335.6 170.178 335.415 171.111 335.054 171.981C334.694 172.851 334.166 173.641 333.5 174.307L312.718 195.089L284.413 166.783Z" fill="white"/>
<path opacity="0.2" d="M291.58 159.56L284.38 166.75L312.69 195.06L319.88 187.86C319.594 187.023 319.119 186.263 318.49 185.64L293.8 161C293.183 160.354 292.422 159.861 291.58 159.56V159.56Z" fill="#6D28D9"/>
<path d="M283.166 163.124L282.65 163.64C280.455 165.835 280.455 169.393 282.65 171.588L307.859 196.797C310.053 198.991 313.612 198.991 315.806 196.797L316.323 196.28C318.517 194.086 318.517 190.527 316.323 188.333L291.114 163.124C288.92 160.929 285.361 160.929 283.166 163.124Z" fill="#6D28D9"/>
</g>
<defs>
<clipPath id="clip0_90_2349">
<rect width="500" height="373" fill="white"/>
</clipPath>
</defs>
</svg>
